<?xml version="1.0" encoding="UTF-8"?>
<svg width="324px" height="454px" viewBox="0 0 324 454" version="1.1" xmlns="http://www.w3.org/2000/svg" xmlns:xlink="http://www.w3.org/1999/xlink">
    <!-- Generator: Sketch 49.3 (51167) - http://www.bohemiancoding.com/sketch -->
    <title>Action Stack</title>
    <desc>Created with Sketch.</desc>
    <defs>
        <rect id="path-1" x="0" y="0" width="300" height="430" rx="12"></rect>
        <filter x="-6.0%" y="-4.2%" width="112.0%" height="108.4%" filterUnits="objectBoundingBox" id="filter-2">
            <feOffset dx="0" dy="0" in="SourceAlpha" result="shadowOffsetOuter1"></feOffset>
            <feGaussianBlur stdDeviation="6" in="shadowOffsetOuter1" result="shadowBlurOuter1"></feGaussianBlur>
            <feColorMatrix values="0 0 0 0 0.543925383   0 0 0 0 0.543925383   0 0 0 0 0.543925383  0 0 0 0.5 0" type="matrix" in="shadowBlurOuter1"></feColorMatrix>
        </filter>
        <rect id="path-3" x="20" y="170" width="260" height="86" rx="12"></rect>
        <rect id="path-4" x="20" y="272" width="260" height="134" rx="12"></rect>
    </defs>
    <g id="Page-1" stroke="none" stroke-width="1" fill="none" fill-rule="evenodd">
        <g id="Desktop-HD-Copy-7" transform="translate(-248.000000, -33737.000000)">
            <g id="Group-8" transform="translate(130.000000, 33669.000000)">
                <g id="Action-Stack" transform="translate(130.000000, 80.000000)">
                    <g id="Rectangle-Copy">
                        <use fill="black" fill-opacity="1" filter="url(#filter-2)" xlink:href="#path-1"></use>
                        <use fill="#45C7EF" fill-rule="evenodd" xlink:href="#path-1"></use>
                    </g>
                    <path d="M36.4765625,58 L23.28125,58 L23.28125,24.1796875 L36.5234375,24.1796875 C42.3125,24.1796875 46.2265625,27.5546875 46.2265625,32.6171875 C46.2265625,36.1328125 43.6484375,39.4140625 40.390625,40 L40.390625,40.1875 C44.984375,40.7734375 47.9375,44.0078125 47.9375,48.5078125 C47.9375,54.4609375 43.671875,58 36.4765625,58 Z M27.5,27.90625 L27.5,38.7578125 L34.25,38.7578125 C39.2421875,38.7578125 41.9609375,36.765625 41.9609375,33.109375 C41.9609375,29.7578125 39.6640625,27.90625 35.5625,27.90625 L27.5,27.90625 Z M27.5,54.2734375 L35.84375,54.2734375 C40.9296875,54.2734375 43.6015625,52.2109375 43.6015625,48.296875 C43.6015625,44.3828125 40.8359375,42.390625 35.4453125,42.390625 L27.5,42.390625 L27.5,54.2734375 Z M62.609375,58.234375 C55.5078125,58.234375 50.9609375,53.1953125 50.9609375,45.3671875 C50.9609375,37.515625 55.5078125,32.5 62.609375,32.5 C69.7109375,32.5 74.2578125,37.515625 74.2578125,45.3671875 C74.2578125,53.1953125 69.7109375,58.234375 62.609375,58.234375 Z M62.609375,54.6015625 C67.3203125,54.6015625 70.109375,51.15625 70.109375,45.3671875 C70.109375,39.5546875 67.3203125,36.1328125 62.609375,36.1328125 C57.8984375,36.1328125 55.109375,39.578125 55.109375,45.3671875 C55.109375,51.15625 57.921875,54.6015625 62.609375,54.6015625 Z M88.953125,58.234375 C81.8515625,58.234375 77.3046875,53.1953125 77.3046875,45.3671875 C77.3046875,37.515625 81.8515625,32.5 88.953125,32.5 C96.0546875,32.5 100.601562,37.515625 100.601562,45.3671875 C100.601562,53.1953125 96.0546875,58.234375 88.953125,58.234375 Z M88.953125,54.6015625 C93.6640625,54.6015625 96.453125,51.15625 96.453125,45.3671875 C96.453125,39.5546875 93.6640625,36.1328125 88.953125,36.1328125 C84.2421875,36.1328125 81.453125,39.578125 81.453125,45.3671875 C81.453125,51.15625 84.265625,54.6015625 88.953125,54.6015625 Z M109.203125,44.03125 L120.523438,32.734375 L125.492188,32.734375 L114.453125,43.65625 L125.820312,58 L121.085938,58 L111.59375,46.1640625 L109.203125,48.4140625 L109.203125,58 L105.125,58 L105.125,22.703125 L109.203125,22.703125 L109.203125,44.03125 Z M148.671875,54.6953125 C152.796875,54.6953125 155.820312,52.0234375 155.820312,48.390625 L155.820312,46.3515625 L149.210938,46.7734375 C145.414062,47.0078125 143.445312,48.390625 143.445312,50.828125 C143.445312,53.171875 145.484375,54.6953125 148.671875,54.6953125 Z M147.804688,58.234375 C142.671875,58.234375 139.273438,55.28125 139.273438,50.8046875 C139.273438,46.46875 142.601562,43.9140625 148.742188,43.5390625 L155.820312,43.1171875 L155.820312,41.0078125 C155.820312,37.8671875 153.757812,36.1328125 150.03125,36.1328125 C147.101562,36.1328125 144.921875,37.6328125 144.429688,40.0234375 L140.515625,40.0234375 C140.632812,35.7578125 144.78125,32.5 150.078125,32.5 C156.054688,32.5 159.898438,35.6875 159.898438,40.65625 L159.898438,58 L156.03125,58 L156.03125,53.6171875 L155.9375,53.6171875 C154.507812,56.4296875 151.34375,58.234375 147.804688,58.234375 Z M37.2265625,116 L33.0546875,116 L20.5859375,82.1796875 L25.015625,82.1796875 L35.0703125,110.867188 L35.2109375,110.867188 L45.265625,82.1796875 L49.6953125,82.1796875 L37.2265625,116 Z M63.125,94.0859375 C59.1640625,94.0859375 56.3046875,96.96875 56.0234375,101.234375 L69.921875,101.234375 C69.828125,96.9453125 67.109375,94.0859375 63.125,94.0859375 Z M69.828125,108.78125 L73.859375,108.78125 C73.15625,113.117188 68.7734375,116.234375 63.3828125,116.234375 C56.28125,116.234375 51.8046875,111.289062 51.8046875,103.460938 C51.8046875,95.6328125 56.3046875,90.5 63.1953125,90.5 C69.9453125,90.5 74.1640625,95.2578125 74.1640625,102.898438 L74.1640625,104.492188 L56.0234375,104.492188 L56.0234375,104.726562 C56.0234375,109.53125 58.9765625,112.648438 63.4765625,112.648438 C66.640625,112.648438 69.1015625,111.148438 69.828125,108.78125 Z M78.6875,116 L78.6875,80.703125 L82.765625,80.703125 L82.765625,94.8359375 L82.859375,94.8359375 C84.4296875,91.9765625 87.2421875,90.5 91.109375,90.5 C96.640625,90.5 100.367188,94.25 100.367188,99.875 L100.367188,116 L96.2890625,116 L96.2890625,100.601562 C96.2890625,96.5703125 93.8984375,94.1328125 89.890625,94.1328125 C85.625,94.1328125 82.765625,97.0390625 82.765625,101.46875 L82.765625,116 L78.6875,116 Z M106.015625,116 L106.015625,90.734375 L110.09375,90.734375 L110.09375,116 L106.015625,116 Z M108.054688,86.65625 C106.648438,86.65625 105.476563,85.484375 105.476563,84.078125 C105.476563,82.6484375 106.648438,81.5 108.054688,81.5 C109.484375,81.5 110.632813,82.6484375 110.632813,84.078125 C110.632813,85.484375 109.484375,86.65625 108.054688,86.65625 Z M136.742188,98.9609375 L132.734375,98.9609375 C132.21875,96.265625 129.96875,94.1328125 126.171875,94.1328125 C121.765625,94.1328125 118.765625,97.7890625 118.765625,103.367188 C118.765625,109.109375 121.8125,112.601562 126.21875,112.601562 C129.734375,112.601562 132.078125,110.960938 132.78125,107.914062 L136.789062,107.914062 C136.109375,112.835938 131.960938,116.234375 126.195312,116.234375 C119.257812,116.234375 114.617188,111.3125 114.617188,103.367188 C114.617188,95.609375 119.234375,90.5 126.148438,90.5 C132.40625,90.5 136.226562,94.53125 136.742188,98.9609375 Z M140.9375,116 L140.9375,80.703125 L145.015625,80.703125 L145.015625,116 L140.9375,116 Z M160.859375,94.0859375 C156.898438,94.0859375 154.039062,96.96875 153.757812,101.234375 L167.65625,101.234375 C167.5625,96.9453125 164.84375,94.0859375 160.859375,94.0859375 Z M167.5625,108.78125 L171.59375,108.78125 C170.890625,113.117188 166.507812,116.234375 161.117188,116.234375 C154.015625,116.234375 149.539062,111.289062 149.539062,103.460938 C149.539062,95.6328125 154.039062,90.5 160.929688,90.5 C167.679688,90.5 171.898438,95.2578125 171.898438,102.898438 L171.898438,104.492188 L153.757812,104.492188 L153.757812,104.726562 C153.757812,109.53125 156.710938,112.648438 161.210938,112.648438 C164.375,112.648438 166.835938,111.148438 167.5625,108.78125 Z" id="Book-a-Vehicle" fill="#FFFFFF"></path>
                    <g id="Rectangle-Copy-2">
                        <use fill="#45C7EF" xlink:href="#path-3"></use>
                        <use fill-opacity="0.5" fill="#000000" xlink:href="#path-3"></use>
                    </g>
                    <path d="M55.203125,226.5625 C45.875,226.5625 39.96875,219.789062 39.96875,209.078125 C39.96875,198.460938 45.9453125,191.617188 55.203125,191.617188 C62.5625,191.617188 68.1640625,196.09375 69.2421875,202.84375 L64.9765625,202.84375 C63.8984375,198.414062 60.03125,195.507812 55.203125,195.507812 C48.59375,195.507812 44.3046875,200.851562 44.3046875,209.078125 C44.3046875,217.375 48.546875,222.671875 55.2265625,222.671875 C60.1953125,222.671875 63.7578125,220.28125 64.9765625,216.15625 L69.2421875,216.15625 C67.6953125,222.835938 62.6796875,226.5625 55.203125,226.5625 Z M81.9453125,222.695312 C86.0703125,222.695312 89.09375,220.023438 89.09375,216.390625 L89.09375,214.351562 L82.484375,214.773438 C78.6875,215.007812 76.71875,216.390625 76.71875,218.828125 C76.71875,221.171875 78.7578125,222.695312 81.9453125,222.695312 Z M81.078125,226.234375 C75.9453125,226.234375 72.546875,223.28125 72.546875,218.804688 C72.546875,214.46875 75.875,211.914062 82.015625,211.539062 L89.09375,211.117188 L89.09375,209.007812 C89.09375,205.867188 87.03125,204.132812 83.3046875,204.132812 C80.375,204.132812 78.1953125,205.632812 77.703125,208.023438 L73.7890625,208.023438 C73.90625,203.757812 78.0546875,200.5 83.3515625,200.5 C89.328125,200.5 93.171875,203.6875 93.171875,208.65625 L93.171875,226 L89.3046875,226 L89.3046875,221.617188 L89.2109375,221.617188 C87.78125,224.429688 84.6171875,226.234375 81.078125,226.234375 Z M98.5859375,226 L98.5859375,200.734375 L102.429688,200.734375 L102.429688,204.835938 L102.523438,204.835938 C103.273438,202.1875 105.6875,200.5 108.640625,200.5 C109.132812,200.5 109.859375,200.570312 110.210938,200.664062 L110.210938,204.695312 C109.882812,204.554688 108.804688,204.414062 108.101562,204.414062 C104.820312,204.414062 102.664062,206.804688 102.664062,210.367188 L102.664062,226 L98.5859375,226 Z M138.804688,226 L134.585938,226 L134.585938,195.976562 L123.6875,195.976562 L123.6875,192.179688 L149.703125,192.179688 L149.703125,195.976562 L138.804688,195.976562 L138.804688,226 Z M155.796875,235.164062 C155.28125,235.164062 154.507812,235.09375 154.015625,235 L154.015625,231.554688 C154.484375,231.648438 155.140625,231.695312 155.679688,231.695312 C158.023438,231.695312 159.289062,230.570312 160.320312,227.523438 L160.8125,226.023438 L151.460938,200.734375 L155.796875,200.734375 L162.875,221.851562 L162.96875,221.851562 L170.046875,200.734375 L174.335937,200.734375 L164.445312,227.546875 C162.289062,233.40625 160.273438,235.164062 155.796875,235.164062 Z M189.828125,200.5 C196.273438,200.5 200.65625,205.65625 200.65625,213.367188 C200.65625,221.078125 196.296875,226.234375 189.921875,226.234375 C186.335938,226.234375 183.453125,224.664062 181.859375,221.898438 L181.765625,221.898438 L181.765625,234.4375 L177.6875,234.4375 L177.6875,200.734375 L181.554688,200.734375 L181.554688,204.835938 L181.648438,204.835938 C183.125,202.210938 186.335938,200.5 189.828125,200.5 Z M189.078125,222.601562 C193.53125,222.601562 196.484375,218.96875 196.484375,213.367188 C196.484375,207.789062 193.53125,204.132812 189.078125,204.132812 C184.71875,204.132812 181.742188,207.882812 181.742188,213.367188 C181.742188,218.875 184.71875,222.601562 189.078125,222.601562 Z M215.023438,204.085938 C211.0625,204.085938 208.203125,206.96875 207.921875,211.234375 L221.820312,211.234375 C221.726562,206.945312 219.007812,204.085938 215.023438,204.085938 Z M221.726562,218.78125 L225.757812,218.78125 C225.054687,223.117188 220.671875,226.234375 215.28125,226.234375 C208.179687,226.234375 203.703125,221.289062 203.703125,213.460938 C203.703125,205.632812 208.203125,200.5 215.09375,200.5 C221.84375,200.5 226.0625,205.257812 226.0625,212.898438 L226.0625,214.492188 L207.921875,214.492188 L207.921875,214.726562 C207.921875,219.53125 210.875,222.648438 215.375,222.648438 C218.539062,222.648438 221,221.148438 221.726562,218.78125 Z" id="Car-Type-Copy" fill="#FFFFFF"></path>
                    <g id="Rectangle-Copy-3">
                        <use fill="#45C7EF" xlink:href="#path-4"></use>
                        <use fill-opacity="0.5" fill="#000000" xlink:href="#path-4"></use>
                    </g>
                    <path d="M41.28125,294.179688 L54.0546875,294.179688 C60.40625,294.179688 64.8828125,298.632812 64.8828125,305.03125 C64.8828125,311.453125 60.359375,315.929688 54.0078125,315.929688 L45.5,315.929688 L45.5,328 L41.28125,328 L41.28125,294.179688 Z M45.5,297.929688 L45.5,312.179688 L52.953125,312.179688 C57.78125,312.179688 60.546875,309.53125 60.546875,305.03125 C60.546875,300.554688 57.8046875,297.929688 52.953125,297.929688 L45.5,297.929688 Z M69.4296875,328 L69.4296875,302.734375 L73.5078125,302.734375 L73.5078125,328 L69.4296875,328 Z M71.46875,298.65625 C70.0625,298.65625 68.890625,297.484375 68.890625,296.078125 C68.890625,294.648438 70.0625,293.5 71.46875,293.5 C72.8984375,293.5 74.046875,294.648438 74.046875,296.078125 C74.046875,297.484375 72.8984375,298.65625 71.46875,298.65625 Z M100.15625,310.960938 L96.1484375,310.960938 C95.6328125,308.265625 93.3828125,306.132812 89.5859375,306.132812 C85.1796875,306.132812 82.1796875,309.789062 82.1796875,315.367188 C82.1796875,321.109375 85.2265625,324.601562 89.6328125,324.601562 C93.1484375,324.601562 95.4921875,322.960938 96.1953125,319.914062 L100.203125,319.914062 C99.5234375,324.835938 95.375,328.234375 89.609375,328.234375 C82.671875,328.234375 78.03125,323.3125 78.03125,315.367188 C78.03125,307.609375 82.6484375,302.5 89.5625,302.5 C95.8203125,302.5 99.640625,306.53125 100.15625,310.960938 Z M108.429688,314.03125 L119.75,302.734375 L124.71875,302.734375 L113.679688,313.65625 L125.046875,328 L120.3125,328 L110.820312,316.164062 L108.429688,318.414062 L108.429688,328 L104.351562,328 L104.351562,292.703125 L108.429688,292.703125 L108.429688,314.03125 Z M149.234375,302.734375 L149.234375,328 L145.390625,328 L145.390625,323.828125 L145.296875,323.828125 C143.726562,326.734375 140.890625,328.234375 137.023438,328.234375 C131.492188,328.234375 128.046875,324.671875 128.046875,318.929688 L128.046875,302.734375 L132.125,302.734375 L132.125,318.226562 C132.125,322.375 134.304688,324.601562 138.265625,324.601562 C142.414062,324.601562 145.15625,321.742188 145.15625,317.40625 L145.15625,302.734375 L149.234375,302.734375 Z M166.90625,302.5 C173.351562,302.5 177.734375,307.65625 177.734375,315.367188 C177.734375,323.078125 173.375,328.234375 167,328.234375 C163.414062,328.234375 160.53125,326.664062 158.9375,323.898438 L158.84375,323.898438 L158.84375,336.4375 L154.765625,336.4375 L154.765625,302.734375 L158.632812,302.734375 L158.632812,306.835938 L158.726562,306.835938 C160.203125,304.210938 163.414062,302.5 166.90625,302.5 Z M166.15625,324.601562 C170.609375,324.601562 173.5625,320.96875 173.5625,315.367188 C173.5625,309.789062 170.609375,306.132812 166.15625,306.132812 C161.796875,306.132812 158.820312,309.882812 158.820312,315.367188 C158.820312,320.875 161.796875,324.601562 166.15625,324.601562 Z M54.2890625,386 L50.0703125,386 L50.0703125,355.976562 L39.171875,355.976562 L39.171875,352.179688 L65.1875,352.179688 L65.1875,355.976562 L54.2890625,355.976562 L54.2890625,386 Z M69.359375,386 L69.359375,360.734375 L73.4375,360.734375 L73.4375,386 L69.359375,386 Z M71.3984375,356.65625 C69.9921875,356.65625 68.8203125,355.484375 68.8203125,354.078125 C68.8203125,352.648438 69.9921875,351.5 71.3984375,351.5 C72.828125,351.5 73.9765625,352.648438 73.9765625,354.078125 C73.9765625,355.484375 72.828125,356.65625 71.3984375,356.65625 Z M79.203125,386 L79.203125,360.734375 L83.046875,360.734375 L83.046875,364.835938 L83.140625,364.835938 C84.3359375,362.140625 87.03125,360.5 90.3125,360.5 C93.734375,360.5 96.2890625,362.234375 97.390625,365.28125 L97.484375,365.28125 C98.9140625,362.28125 101.890625,360.5 105.429688,360.5 C110.421875,360.5 113.65625,363.734375 113.65625,368.75 L113.65625,386 L109.578125,386 L109.578125,369.6875 C109.578125,366.195312 107.632812,364.132812 104.257812,364.132812 C100.882812,364.132812 98.46875,366.640625 98.46875,370.109375 L98.46875,386 L94.390625,386 L94.390625,369.195312 C94.390625,366.148438 92.3046875,364.132812 89.140625,364.132812 C85.765625,364.132812 83.28125,366.78125 83.28125,370.320312 L83.28125,386 L79.203125,386 Z M129.148438,364.085938 C125.1875,364.085938 122.328125,366.96875 122.046875,371.234375 L135.945312,371.234375 C135.851562,366.945312 133.132812,364.085938 129.148438,364.085938 Z M135.851562,378.78125 L139.882812,378.78125 C139.179688,383.117188 134.796875,386.234375 129.40625,386.234375 C122.304688,386.234375 117.828125,381.289062 117.828125,373.460938 C117.828125,365.632812 122.328125,360.5 129.21875,360.5 C135.96875,360.5 140.1875,365.257812 140.1875,372.898438 L140.1875,374.492188 L122.046875,374.492188 L122.046875,374.726562 C122.046875,379.53125 125,382.648438 129.5,382.648438 C132.664062,382.648438 135.125,381.148438 135.851562,378.78125 Z" id="Pickup-Time-Copy" fill="#FFFFFF"></path>
                </g>
            </g>
        </g>
    </g>
</svg>