<?xml version="1.0" encoding="UTF-8"?>
<svg width="112px" height="112px" viewBox="0 0 112 112" version="1.1" xmlns="http://www.w3.org/2000/svg" xmlns:xlink="http://www.w3.org/1999/xlink">
    <!-- Generator: Sketch 49.3 (51167) - http://www.bohemiancoding.com/sketch -->
    <title>Group 5</title>
    <desc>Created with Sketch.</desc>
    <defs></defs>
    <g id="Page-1" stroke="none" stroke-width="1" fill="none" fill-rule="evenodd">
        <g id="Desktop-HD-Copy-7" transform="translate(-859.000000, -19223.000000)" fill="#F4E62E">
            <g id="Group-5" transform="translate(859.000000, 19223.000000)">
                <path d="M24.4953935,32.6242016 L19.5588042,44.2356004 C19.3007136,44.8426579 19.428985,45.5450977 19.8849718,46.0217587 C20.5148984,46.6802457 21.559364,46.7033986 22.2178511,46.073472 L38.5712223,30.4293939 C38.6772988,30.3279183 38.7693591,30.2127405 38.8449654,30.0869104 C39.3143041,29.3057997 39.0615629,28.2921102 38.2804522,27.8227715 L29.5046065,22.5497115 L34.4411958,10.9383126 C34.6992864,10.3312552 34.571015,9.62881531 34.1150282,9.15215437 C33.4851016,8.4936673 32.440636,8.47051444 31.7821489,9.10044102 L15.4287777,24.7445191 C15.3227012,24.8459948 15.2306409,24.9611725 15.1550346,25.0870026 C14.6856959,25.8681133 14.9384371,26.8818028 15.7195478,27.3511415 L24.4953935,32.6242016 Z M7,0 L47,0 C50.8659932,-7.10171439e-16 54,3.13400675 54,7 L54,47 C54,50.8659932 50.8659932,54 47,54 L7,54 C3.13400675,54 4.73447626e-16,50.8659932 0,47 L0,7 C-4.73447626e-16,3.13400675 3.13400675,7.10171439e-16 7,0 Z" id="Combined-Shape"></path>
                <path d="M24.4953935,90.6242016 L19.5588042,102.2356 C19.3007136,102.842658 19.428985,103.545098 19.8849718,104.021759 C20.5148984,104.680246 21.559364,104.703399 22.2178511,104.073472 L38.5712223,88.4293939 C38.6772988,88.3279183 38.7693591,88.2127405 38.8449654,88.0869104 C39.3143041,87.3057997 39.0615629,86.2921102 38.2804522,85.8227715 L29.5046065,80.5497115 L34.4411958,68.9383126 C34.6992864,68.3312552 34.571015,67.6288153 34.1150282,67.1521544 C33.4851016,66.4936673 32.440636,66.4705144 31.7821489,67.100441 L15.4287777,82.7445191 C15.3227012,82.8459948 15.2306409,82.9611725 15.1550346,83.0870026 C14.6856959,83.8681133 14.9384371,84.8818028 15.7195478,85.3511415 L24.4953935,90.6242016 Z M7,58 L47,58 C50.8659932,58 54,61.1340068 54,65 L54,105 C54,108.865993 50.8659932,112 47,112 L7,112 C3.13400675,112 4.73447626e-16,108.865993 0,105 L0,65 C-4.73447626e-16,61.1340068 3.13400675,58 7,58 Z" id="Combined-Shape-Copy-4"></path>
                <path d="M82.4953935,32.6242016 L77.5588042,44.2356004 C77.3007136,44.8426579 77.428985,45.5450977 77.8849718,46.0217587 C78.5148984,46.6802457 79.559364,46.7033986 80.2178511,46.073472 L96.5712223,30.4293939 C96.6772988,30.3279183 96.7693591,30.2127405 96.8449654,30.0869104 C97.3143041,29.3057997 97.0615629,28.2921102 96.2804522,27.8227715 L87.5046065,22.5497115 L92.4411958,10.9383126 C92.6992864,10.3312552 92.571015,9.62881531 92.1150282,9.15215437 C91.4851016,8.4936673 90.440636,8.47051444 89.7821489,9.10044102 L73.4287777,24.7445191 C73.3227012,24.8459948 73.2306409,24.9611725 73.1550346,25.0870026 C72.6856959,25.8681133 72.9384371,26.8818028 73.7195478,27.3511415 L82.4953935,32.6242016 Z M65,0 L105,0 C108.865993,-7.10171439e-16 112,3.13400675 112,7 L112,47 C112,50.8659932 108.865993,54 105,54 L65,54 C61.1340068,54 58,50.8659932 58,47 L58,7 C58,3.13400675 61.1340068,7.10171439e-16 65,0 Z" id="Combined-Shape-Copy-3"></path>
                <path d="M82.4953935,90.6242016 L77.5588042,102.2356 C77.3007136,102.842658 77.428985,103.545098 77.8849718,104.021759 C78.5148984,104.680246 79.559364,104.703399 80.2178511,104.073472 L96.5712223,88.4293939 C96.6772988,88.3279183 96.7693591,88.2127405 96.8449654,88.0869104 C97.3143041,87.3057997 97.0615629,86.2921102 96.2804522,85.8227715 L87.5046065,80.5497115 L92.4411958,68.9383126 C92.6992864,68.3312552 92.571015,67.6288153 92.1150282,67.1521544 C91.4851016,66.4936673 90.440636,66.4705144 89.7821489,67.100441 L73.4287777,82.7445191 C73.3227012,82.8459948 73.2306409,82.9611725 73.1550346,83.0870026 C72.6856959,83.8681133 72.9384371,84.8818028 73.7195478,85.3511415 L82.4953935,90.6242016 Z M65,58 L105,58 C108.865993,58 112,61.1340068 112,65 L112,105 C112,108.865993 108.865993,112 105,112 L65,112 C61.1340068,112 58,108.865993 58,105 L58,65 C58,61.1340068 61.1340068,58 65,58 Z" id="Combined-Shape-Copy-5"></path>
            </g>
        </g>
    </g>
</svg>