<?xml version="1.0" encoding="UTF-8"?>
<svg width="112px" height="112px" viewBox="0 0 112 112" version="1.1" xmlns="http://www.w3.org/2000/svg" xmlns:xlink="http://www.w3.org/1999/xlink">
    <!-- Generator: Sketch 49.3 (51167) - http://www.bohemiancoding.com/sketch -->
    <title>Combined Shape</title>
    <desc>Created with Sketch.</desc>
    <defs></defs>
    <g id="Page-1" stroke="none" stroke-width="1" fill="none" fill-rule="evenodd">
        <g id="Desktop-HD-Copy-7" transform="translate(-434.000000, -19223.000000)" fill="#F4E62E">
            <path d="M484.805261,19290.665 L471.193991,19322.6802 C470.9359,19323.2873 471.064172,19323.9897 471.520159,19324.4664 C472.150085,19325.1249 473.194551,19325.148 473.853038,19324.5181 L515.676665,19284.5085 C515.782742,19284.407 515.874802,19284.2918 515.950408,19284.166 C516.419747,19283.3849 516.167006,19282.3712 515.385895,19281.9018 L495.194739,19269.7698 L508.806009,19237.7546 C509.0641,19237.1475 508.935828,19236.4451 508.479841,19235.9684 C507.849915,19235.3099 506.805449,19235.2868 506.146962,19235.9167 L464.323335,19275.9263 C464.217258,19276.0278 464.125198,19276.143 464.049592,19276.2688 C463.580253,19277.0499 463.832994,19278.0636 464.614105,19278.5329 L484.805261,19290.665 Z M441,19223 L539,19223 C542.865993,19223 546,19226.134 546,19230 L546,19328 C546,19331.866 542.865993,19335 539,19335 L441,19335 C437.134007,19335 434,19331.866 434,19328 L434,19230 C434,19226.134 437.134007,19223 441,19223 Z" id="Combined-Shape"></path>
        </g>
    </g>
</svg>