<?xml version="1.0" encoding="UTF-8"?>
<svg width="130px" height="130px" viewBox="0 0 130 130" version="1.1" xmlns="http://www.w3.org/2000/svg" xmlns:xlink="http://www.w3.org/1999/xlink">
    <!-- Generator: Sketch 49.3 (51167) - http://www.bohemiancoding.com/sketch -->
    <title>Desktop HD Copy 7</title>
    <desc>Created with Sketch.</desc>
    <defs></defs>
    <g id="Page-1" stroke="none" stroke-width="1" fill="none" fill-rule="evenodd">
        <g id="Desktop-HD-Copy-7" transform="translate(-1016.000000, -3385.000000)">
            <g id="Group-3" transform="translate(1035.000000, 3404.000000)">
                <rect id="Rectangle-11" fill="#2E3039" x="0" y="0" width="92" height="92" rx="20"></rect>
                <ellipse id="Oval" fill="#1ABCFE" cx="57.6263736" cy="45" rx="11.1208791" ry="11"></ellipse>
                <path d="M57.6263736,12 C63.7682656,12 68.7472527,16.9248678 68.7472527,23 C68.7472527,29.0751322 63.7682656,34 57.6263736,34 L45.4945055,34 L45.4945055,12 L57.6263736,12 Z" id="Combined-Shape" fill="#FF7262"></path>
                <path d="M33.3626374,33.955157 C27.6945275,33.4499282 23.2527473,28.7380426 23.2527473,23 C23.2527473,17.2619574 27.6945275,12.5500718 33.3626374,12.044843 L33.3626374,12 L45.4945055,12 L45.4945055,34 L33.3626374,34 L33.3626374,33.955157 Z" id="Combined-Shape" fill="#F24E1E"></path>
                <path d="M33.3626374,55.955157 C27.6945275,55.4499282 23.2527473,50.7380426 23.2527473,45 C23.2527473,39.2619574 27.6945275,34.5500718 33.3626374,34.044843 L33.3626374,34 L45.4945055,34 L45.4945055,56 L33.3626374,56 L33.3626374,55.955157 Z" id="Combined-Shape" fill="#A259FF"></path>
                <path d="M34.2527473,56 L45.4945055,56 L45.4945055,66.8791209 C45.4945055,73.0210128 40.5155183,78 34.3736264,78 L34.2527473,78 C28.177615,78 23.2527473,73.0751322 23.2527473,67 L23.2527473,67 C23.2527473,60.9248678 28.177615,56 34.2527473,56 Z" id="Rectangle" fill="#0ACF83"></path>
            </g>
        </g>
    </g>
</svg>