<?xml version="1.0" encoding="UTF-8"?>
<svg width="152px" height="148px" viewBox="0 0 152 148" version="1.1" xmlns="http://www.w3.org/2000/svg" xmlns:xlink="http://www.w3.org/1999/xlink">
    <!-- Generator: Sketch 49.3 (51167) - http://www.bohemiancoding.com/sketch -->
    <title>Combined Shape</title>
    <desc>Created with Sketch.</desc>
    <defs></defs>
    <g id="Page-1" stroke="none" stroke-width="1" fill="none" fill-rule="evenodd">
        <g id="Desktop-HD-Copy-7" transform="translate(-644.000000, -32354.000000)" fill="#7B28D7">
            <g id="Group-21" transform="translate(153.000000, 32354.000000)">
                <path d="M599.302015,0 C612.36981,0 625.439338,4.49019883 638.176061,13.4688655 L643,16.870269 L643,148 L491,148 L491,0.797988304 L508.974935,13.4688655 C526.566797,25.8697076 542.83264,25.8697076 560.426235,13.4688655 C573.164692,4.49019883 586.232487,0 599.302015,0 Z M567,77 C576.941125,77 585,68.9411255 585,59 C585,49.0588745 576.941125,41 567,41 C557.058875,41 549,49.0588745 549,59 C549,68.9411255 557.058875,77 567,77 Z M542,122 C551.941125,122 560,113.941125 560,104 C560,94.0588745 551.941125,86 542,86 C532.058875,86 524,94.0588745 524,104 C524,113.941125 532.058875,122 542,122 Z M592,122 C601.941125,122 610,113.941125 610,104 C610,94.0588745 601.941125,86 592,86 C582.058875,86 574,94.0588745 574,104 C574,113.941125 582.058875,122 592,122 Z" id="Combined-Shape"></path>
            </g>
        </g>
    </g>
</svg>