<?xml version="1.0" encoding="UTF-8"?>
<svg width="152px" height="148px" viewBox="0 0 152 148" version="1.1" xmlns="http://www.w3.org/2000/svg" xmlns:xlink="http://www.w3.org/1999/xlink">
    <!-- Generator: Sketch 49.3 (51167) - http://www.bohemiancoding.com/sketch -->
    <title>Combined Shape</title>
    <desc>Created with Sketch.</desc>
    <defs></defs>
    <g id="Page-1" stroke="none" stroke-width="1" fill="none" fill-rule="evenodd">
        <g id="Desktop-HD-Copy-7" transform="translate(-244.000000, -32354.000000)" fill="#F4E62E">
            <g id="Group-21" transform="translate(153.000000, 32354.000000)">
                <path d="M160.575288,91.8250418 L148.145421,121.369972 C147.301051,123.376982 147.720184,125.693167 149.214347,127.277 C151.298773,129.486519 154.779703,129.587927 156.989223,127.503501 L200.151416,86.7849673 C200.516675,86.4403875 200.833025,86.0474101 201.091649,85.6169878 C202.656111,83.0132854 201.813641,79.6343204 199.209938,78.0698582 L175.219585,63.6549997 L187.649451,34.1100697 C188.493822,32.1030598 188.074689,29.7868748 186.580526,28.2030419 C184.4961,25.9935224 181.015169,25.892114 178.80565,27.97654 L135.643457,68.6950741 C135.278197,69.039654 134.961847,69.4326314 134.703223,69.8630537 C133.138761,72.466756 133.981232,75.845721 136.584934,77.4101832 L160.575288,91.8250418 Z M199.302015,0 C212.36981,0 225.439338,4.49019883 238.176061,13.4688655 L243,16.870269 L243,148 L91,148 L91,0.797988304 L108.974935,13.4688655 C126.566797,25.8697076 142.83264,25.8697076 160.426235,13.4688655 C173.164692,4.49019883 186.232487,0 199.302015,0 Z" id="Combined-Shape"></path>
            </g>
        </g>
    </g>
</svg>