<?xml version="1.0" encoding="UTF-8"?>
<svg width="152px" height="148px" viewBox="0 0 152 148" version="1.1" xmlns="http://www.w3.org/2000/svg" xmlns:xlink="http://www.w3.org/1999/xlink">
    <!-- Generator: Sketch 49.3 (51167) - http://www.bohemiancoding.com/sketch -->
    <title>Combined Shape</title>
    <desc>Created with Sketch.</desc>
    <defs></defs>
    <g id="Page-1" stroke="none" stroke-width="1" fill="none" fill-rule="evenodd">
        <g id="Desktop-HD-Copy-7" transform="translate(-1044.000000, -42192.000000)" fill="#91DF3C">
            <path d="M1152.30202,42192 C1165.36981,42192 1178.43934,42196.4902 1191.17606,42205.4689 L1196,42208.8703 L1196,42340 L1044,42340 L1044,42192.798 L1061.97493,42205.4689 C1079.5668,42217.8697 1095.83264,42217.8697 1113.42624,42205.4689 C1126.16469,42196.4902 1139.23249,42192 1152.30202,42192 Z M1122.5,42277.7263 C1136.03098,42277.7263 1147,42266.8185 1147,42253.3631 C1147,42239.9077 1136.03098,42229 1122.5,42229 C1108.96902,42229 1098,42239.9077 1098,42253.3631 C1098,42266.8185 1108.96902,42277.7263 1122.5,42277.7263 Z M1159,42318 C1159,42297.9542 1142.65839,42281.7039 1122.5,42281.7039 C1102.34161,42281.7039 1086,42297.9542 1086,42318 C1109.84897,42318 1133.85167,42318 1159,42318 Z" id="Combined-Shape"></path>
        </g>
    </g>
</svg>