<?xml version="1.0" encoding="UTF-8"?>
<svg width="152px" height="148px" viewBox="0 0 152 148" version="1.1" xmlns="http://www.w3.org/2000/svg" xmlns:xlink="http://www.w3.org/1999/xlink">
    <!-- Generator: Sketch 49.3 (51167) - http://www.bohemiancoding.com/sketch -->
    <title>Combined Shape</title>
    <desc>Created with Sketch.</desc>
    <defs></defs>
    <g id="Page-1" stroke="none" stroke-width="1" fill="none" fill-rule="evenodd">
        <g id="Desktop-HD-Copy-7" transform="translate(-1044.000000, -32354.000000)" fill="#91DF3C">
            <g id="Group-21" transform="translate(153.000000, 32354.000000)">
                <path d="M999.302015,0 C1012.36981,0 1025.43934,4.49019883 1038.17606,13.4688655 L1043,16.870269 L1043,148 L891,148 L891,0.797988304 L908.974935,13.4688655 C926.566797,25.8697076 942.83264,25.8697076 960.426235,13.4688655 C973.164692,4.49019883 986.232487,0 999.302015,0 Z M986.823639,103.987781 L945.512219,62.6763611 L938.637212,69.5513671 C934.463102,73.725478 948.274498,88.7645537 948.213114,93.1228165 C948.45865,97.2969273 938.514444,101.839342 933.910646,106.443141 C931.393902,108.959884 931.332519,113.072611 933.910646,115.650738 C936.427389,118.167481 940.540116,118.106098 943.056859,115.589354 C947.660658,110.985556 952.203073,101.04135 956.377183,101.286886 C960.735446,101.225502 975.774522,115.036898 979.948633,110.862788 L986.823639,103.987781 Z M988.665158,102.146262 L1011.5,79.3114204 L987.795742,55.6071619 L982.271183,61.1317204 C981.780111,61.6227922 980.389883,62.0919396 979.429664,61.1317204 C978.469444,60.1715012 978.938592,58.7812728 979.429664,58.2902009 L984.954222,52.7656424 L982.588144,50.3995645 L971.539027,61.4486814 C971.047955,61.9397533 969.799811,62.4282168 968.758892,61.3872974 C967.717972,60.3463781 968.206436,59.0982338 968.697508,58.6071619 L979.746625,47.558045 L970.18858,38 L947.353738,60.8348416 L988.665158,102.146262 Z" id="Combined-Shape"></path>
            </g>
        </g>
    </g>
</svg>