<?xml version="1.0" encoding="UTF-8"?>
<svg width="324px" height="324px" viewBox="0 0 324 324" version="1.1" xmlns="http://www.w3.org/2000/svg" xmlns:xlink="http://www.w3.org/1999/xlink">
    <!-- Generator: Sketch 49.3 (51167) - http://www.bohemiancoding.com/sketch -->
    <title>Group 38</title>
    <desc>Created with Sketch.</desc>
    <defs>
        <rect id="path-1" x="0" y="0" width="300" height="300" rx="12"></rect>
        <filter x="-6.0%" y="-6.0%" width="112.0%" height="112.0%" filterUnits="objectBoundingBox" id="filter-2">
            <feOffset dx="0" dy="0" in="SourceAlpha" result="shadowOffsetOuter1"></feOffset>
            <feGaussianBlur stdDeviation="6" in="shadowOffsetOuter1" result="shadowBlurOuter1"></feGaussianBlur>
            <feColorMatrix values="0 0 0 0 0.543925383   0 0 0 0 0.543925383   0 0 0 0 0.543925383  0 0 0 0.5 0" type="matrix" in="shadowBlurOuter1"></feColorMatrix>
        </filter>
        <path d="M61.8651846,127.617512 L141.123544,88.3906688 C146.714191,85.623725 153.275707,85.623725 158.866354,88.3906688 L238.124714,127.617512 C241.094591,129.087374 242.310593,132.686494 240.84073,135.656371 C240.257465,136.834865 239.303209,137.789122 238.124714,138.372387 L158.866354,177.59923 C153.275707,180.366174 146.714191,180.366174 141.123544,177.59923 L61.8651846,138.372387 C58.8953078,136.902525 57.6793059,133.303405 59.1491684,130.333528 C59.7324333,129.155033 60.68669,128.200777 61.8651846,127.617512 Z" id="path-3"></path>
        <path d="M116,67.8597194 C116,49.4228457 129.627255,38 151.804943,38 C173.181029,38 186.941884,48.754843 186.941884,65.5217101 C186.941884,75.2077488 182.599866,81.8209753 172.379426,87.6993988 C163.027388,93.0434202 160.488978,95.8490314 160.488978,101.861055 L160.488978,104.666667 L136.774883,104.666667 L136.574482,103.06346 C134.904476,90.8390114 137.977288,84.8269873 147.262525,79.4829659 C156.748163,74.005344 158.952572,71.6005344 158.952572,66.1229125 C158.952572,61.6472946 155.144957,58.5744823 149.934536,58.5744823 C144.657315,58.5744823 140.9165,62.3820975 140.849699,67.8597194 L116,67.8597194 Z M149.132933,138 C141.317301,138 134.971276,132.121576 134.971276,124.639947 C134.971276,117.225117 141.317301,111.346693 149.132933,111.346693 C156.948564,111.346693 163.361389,117.225117 163.361389,124.639947 C163.361389,132.121576 156.948564,138 149.132933,138 Z" id="path-4"></path>
    </defs>
    <g id="Page-1" stroke="none" stroke-width="1" fill="none" fill-rule="evenodd">
        <g id="Group-38" transform="translate(12.000000, 12.000000)">
            <g id="Rectangle-Copy-11">
                <use fill="black" fill-opacity="1" filter="url(#filter-2)" xlink:href="#path-1"></use>
                <use fill="#FFFFFF" fill-rule="evenodd" xlink:href="#path-1"></use>
            </g>
            <path d="M61.8651846,167.617512 L141.123544,128.390669 C146.714191,125.623725 153.275707,125.623725 158.866354,128.390669 L238.124714,167.617512 C241.094591,169.087374 242.310593,172.686494 240.84073,175.656371 C240.257465,176.834865 239.303209,177.789122 238.124714,178.372387 L158.866354,217.59923 C153.275707,220.366174 146.714191,220.366174 141.123544,217.59923 L61.8651846,178.372387 C58.8953078,176.902525 57.6793059,173.303405 59.1491684,170.333528 C59.7324333,169.155033 60.68669,168.200777 61.8651846,167.617512 Z" id="Rectangle-16-Copy-9" fill="#6FE4F5"></path>
            <path d="M62.7523251,209.409991 C61.966662,209.798834 61.3304909,210.435005 60.9416476,211.220668 C59.9617393,213.200586 60.7724072,215.599999 62.7523251,216.579908 L142.010685,255.806751 C147.042267,258.297 152.947632,258.297 157.979214,255.806751 L237.237574,216.579908 C238.023237,216.191065 238.659408,215.554893 239.048251,214.76923 C240.028159,212.789312 239.217492,210.389899 237.237574,209.409991 L157.979214,170.183148 C152.947632,167.692899 147.042267,167.692899 142.010685,170.183148 L62.7523251,209.409991 Z" id="Rectangle-16-Copy-10" stroke="#6FE4F5" stroke-width="4"></path>
            <g id="Rectangle-16-Copy-11">
                <use fill="#FFFFFF" fill-rule="evenodd" xlink:href="#path-3"></use>
                <path stroke="#6FE4F5" stroke-width="4" d="M62.7523251,129.409991 C61.966662,129.798834 61.3304909,130.435005 60.9416476,131.220668 C59.9617393,133.200586 60.7724072,135.599999 62.7523251,136.579908 L142.010685,175.806751 C147.042267,178.297 152.947632,178.297 157.979214,175.806751 L237.237574,136.579908 C238.023237,136.191065 238.659408,135.554893 239.048251,134.76923 C240.028159,132.789312 239.217492,130.389899 237.237574,129.409991 L157.979214,90.183148 C152.947632,87.6928986 147.042267,87.6928986 142.010685,90.183148 L62.7523251,129.409991 Z"></path>
            </g>
            <g id="Combined-Shape-Copy-15">
                <use fill="#6FE4F5" fill-rule="evenodd" xlink:href="#path-4"></use>
                <path stroke="#FFFFFF" stroke-width="3" d="M114.5,67.8597194 C114.5,48.5074839 128.877893,36.5 151.804943,36.5 C173.95094,36.5 188.441884,47.8433209 188.441884,65.5217101 C188.441884,75.7801116 183.787801,82.8681319 173.123634,89.0017635 C164.041545,94.1915286 161.988978,96.6051954 161.988978,101.861055 L161.988978,106.166667 L135.45071,106.166667 L135.286466,104.852719 L135.088287,103.266492 C133.368806,90.6798986 136.499862,83.9466103 146.512413,78.1839922 C155.666783,72.8976661 157.452572,70.8714828 157.452572,66.1229125 C157.452572,62.5850207 154.420978,60.0744823 149.934536,60.0744823 C145.484322,60.0744823 142.406436,63.2164917 142.349588,67.8780108 L142.331518,69.3597194 L114.5,69.3597194 L114.5,67.8597194 Z M149.132933,139.5 C140.469643,139.5 133.471276,132.934757 133.471276,124.639947 C133.471276,116.400354 140.481637,109.846693 149.132933,109.846693 C157.795147,109.846693 164.861389,116.409838 164.861389,124.639947 C164.861389,132.925224 157.807203,139.5 149.132933,139.5 Z"></path>
            </g>
        </g>
    </g>
</svg>