<?xml version="1.0" encoding="UTF-8"?>
<svg width="102px" height="51px" viewBox="0 0 102 51" version="1.1" xmlns="http://www.w3.org/2000/svg" xmlns:xlink="http://www.w3.org/1999/xlink">
    <!-- Generator: Sketch 49.3 (51167) - http://www.bohemiancoding.com/sketch -->
    <title>Shape</title>
    <desc>Created with Sketch.</desc>
    <defs>
        <linearGradient x1="100%" y1="100%" x2="0%" y2="0%" id="linearGradient-1">
            <stop stop-color="#E8484C" offset="0%"></stop>
            <stop stop-color="#EA4589" offset="100%"></stop>
        </linearGradient>
        <path d="M634.261068,85.4579957 C625.608486,76.2511067 611.298517,74.3462926 600.316412,80.8016301 C597.986889,82.177407 595.768318,84.082219 593.771635,86.4104037 L589.999988,90.8551749 L580.349065,102.390159 L574.469789,109.268867 C573.582394,110.327113 572.583963,111.173765 571.696573,111.70289 C566.926582,114.454358 560.825413,113.607706 557.053763,109.692146 C553.17126,105.564995 553.17126,99.2154121 557.053763,95.0881676 C559.272337,92.7599867 562.378396,91.4900522 565.595401,91.4900522 C567.70312,91.4900522 569.810747,92.1250195 571.696573,93.0775134 C572.69491,93.6065487 573.582394,94.4532044 574.469789,95.5114506 L576.04899,97.3591323 L585.801753,85.9484168 C583.915379,83.8368365 581.851447,82.0820098 579.683474,80.80163 C568.701459,74.3462925 554.391492,76.2511066 545.739,85.4579956 C536.753667,95.0881676 536.753667,110.009677 545.739,119.534006 C550.952686,125.142776 558.273996,128 565.595401,128 C570.476338,128 575.246232,126.730155 579.683474,124.084444 C582.012993,122.708749 584.231659,120.803941 586.228341,118.475666 L589.999988,114.030985 L599.761768,102.496001 L605.641134,95.6172927 C606.528524,94.5590465 607.526866,93.7123949 608.414354,93.1832697 C613.184338,90.431802 619.285418,91.2784537 623.057069,95.1940139 C626.939668,99.3211644 626.939668,105.670748 623.057069,109.797992 C619.285512,113.713548 613.184338,114.56011 608.414354,111.808646 C607.416013,111.279521 606.528524,110.432955 605.641134,109.374709 L604.002596,107.457609 L594.147166,118.988294 C596.046974,121.125325 598.12921,122.898587 600.316412,124.190286 C611.298517,130.645712 625.608486,128.740806 634.261068,119.534006 C643.246311,109.903834 643.246311,94.9823254 634.261068,85.4579957 Z" id="path-2"></path>
    </defs>
    <g id="Page-1" stroke="none" stroke-width="1" fill="none" fill-rule="evenodd">
        <g id="Desktop-HD-Copy-7" transform="translate(-669.000000, -36802.000000)" fill-rule="nonzero">
            <g id="Group-20" transform="translate(130.000000, 36725.000000)">
                <g id="Shape">
                    <use fill="url(#linearGradient-1)" fill-rule="evenodd" xlink:href="#path-2"></use>
                    <path stroke-opacity="0.3" stroke="#000000" stroke-width="1.8" d="M576.048993,95.9739185 L584.600146,85.969085 C582.899506,84.1597605 581.087989,82.6763585 579.227401,81.577515 C568.577178,75.3172083 554.735489,77.1992695 546.397046,86.0719788 C537.734884,95.355787 537.734884,109.73823 546.398189,118.921251 C551.291401,124.185261 558.287286,127.1 565.595401,127.1 C570.390112,127.1 574.989788,125.835221 579.225824,123.309488 C581.462362,121.988703 583.606537,120.150353 585.542113,117.89335 L589.312982,113.449588 L599.077619,101.911245 L604.951507,95.0390072 C605.868059,93.9459841 606.936684,93.0164463 607.964659,92.4036712 C613.087301,89.4487798 619.642367,90.3517206 623.71259,94.5773355 C627.921159,99.0509888 627.921159,105.940915 623.705273,110.422357 C619.642491,114.640257 613.087332,115.54315 607.992887,112.603861 C606.945548,112.048766 605.99346,111.195563 604.956977,109.959456 L604.002589,108.842816 L595.347505,118.969117 C597.061172,120.801314 598.891111,122.303313 600.772487,123.414402 C611.422733,129.674757 625.264443,127.792698 633.603019,118.920027 C642.265094,109.636217 642.265094,95.2537691 633.606415,86.075595 L633.605236,86.0743431 C625.264488,77.1992652 611.422792,75.3172103 600.774081,81.5765746 C598.537613,82.8973948 596.39351,84.7357219 594.457868,86.9927127 L590.690255,91.4326971 L581.033219,102.97491 L575.159415,109.847154 C574.242951,110.940066 573.174276,111.869627 572.146268,112.482489 C567.023616,115.437382 560.468461,114.534437 556.398235,110.308816 C552.18977,105.835165 552.18977,98.9452501 556.402215,94.4672932 C558.770338,91.9821751 562.101245,90.5900522 565.595401,90.5900522 C567.735716,90.5900522 569.960549,91.1923975 572.117985,92.2822704 C573.165286,92.8372526 574.117319,93.6904314 575.153947,94.926705 L576.048993,95.9739185 Z"></path>
                </g>
            </g>
        </g>
    </g>
</svg>