<?xml version="1.0" encoding="UTF-8"?>
<svg width="200px" height="200px" viewBox="0 0 200 200" version="1.1" xmlns="http://www.w3.org/2000/svg" xmlns:xlink="http://www.w3.org/1999/xlink">
    <!-- Generator: Sketch 49.3 (51167) - http://www.bohemiancoding.com/sketch -->
    <title>historyflipphone</title>
    <desc>Created with Sketch.</desc>
    <defs></defs>
    <g id="Page-1" stroke="none" stroke-width="1" fill="none" fill-rule="evenodd">
        <g id="Desktop-HD-Copy-7" transform="translate(-249.000000, -2373.000000)" fill="#000000">
            <path d="M313,2422.55357 L385,2422.55357 C389.970563,2422.55357 394,2426.58301 394,2431.55357 L394,2521.55357 C394,2541.43582 377.882251,2557.55357 358,2557.55357 L340,2557.55357 C320.117749,2557.55357 304,2541.43582 304,2521.55357 L304,2431.55357 C304,2426.58301 308.029437,2422.55357 313,2422.55357 Z M349.401786,2457.91071 C354.505489,2457.91071 358.642857,2453.77335 358.642857,2448.66964 C358.642857,2443.56594 354.505489,2439.42857 349.401786,2439.42857 C344.298083,2439.42857 340.160714,2443.56594 340.160714,2448.66964 C340.160714,2453.77335 344.298083,2457.91071 349.401786,2457.91071 Z M328.482143,2470.76786 C325.168434,2470.76786 322.482143,2473.45415 322.482143,2476.76786 L322.482143,2478.42857 C322.482143,2481.74228 325.168434,2484.42857 328.482143,2484.42857 L369.517857,2484.42857 C372.831566,2484.42857 375.517857,2481.74228 375.517857,2478.42857 L375.517857,2476.76786 C375.517857,2473.45415 372.831566,2470.76786 369.517857,2470.76786 L328.482143,2470.76786 Z M374.714286,2388 C378.264688,2388 381.142857,2390.87817 381.142857,2394.42857 L381.142857,2420.14286 L368.285714,2420.14286 L368.285714,2394.42857 C368.285714,2390.87817 371.163884,2388 374.714286,2388 Z" id="Combined-Shape"></path>
        </g>
    </g>
</svg>