<?xml version="1.0" encoding="UTF-8"?>
<svg width="130px" height="130px" viewBox="0 0 130 130" version="1.1" xmlns="http://www.w3.org/2000/svg" xmlns:xlink="http://www.w3.org/1999/xlink">
    <!-- Generator: Sketch 49.3 (51167) - http://www.bohemiancoding.com/sketch -->
    <title>Desktop HD Copy 8</title>
    <desc>Created with Sketch.</desc>
    <defs></defs>
    <g id="Page-1" stroke="none" stroke-width="1" fill="none" fill-rule="evenodd">
        <g id="Desktop-HD-Copy-7" transform="translate(-779.000000, -3386.000000)">
            <g id="Group-2" transform="translate(799.000000, 3406.000000)">
                <rect id="Rectangle-10" fill="#FF3366" x="0" y="0" width="90" height="90"></rect>
                <g id="Group" transform="translate(38.426966, 42.471910)" fill="#FFFFFF" fill-rule="nonzero">
                    <path d="M20.407147,25.4270312 C20.407147,17.126713 1.34681314,23.6442164 1.34681314,10.0539066 C1.34681314,4.64700916 5.94354496,0 13.5559671,0 C21.5782888,0 25.7943995,4.88082094 25.9407923,11.252192 L20.2021971,11.252192 C20.14364,7.89114763 17.889192,5.20231214 13.5266885,5.20231214 C9.54480619,5.20231214 7.08540827,6.86822108 7.08540827,9.90777424 C7.08540827,17.3897513 26.2921348,11.5736832 26.2921348,25.1932195 C26.2921348,31.3892317 20.9048823,35.3932584 12.7654463,35.3932584 C3.68909687,35.3932584 0.175671279,29.6356433 0,24.0826135 L5.76787368,24.0826135 C6.00210205,27.7359226 8.46149996,30.1617198 13.0582318,30.1617198 C17.7135207,30.1909463 20.407147,28.4958109 20.407147,25.4270312 Z" id="Shape"></path>
                    <polygon id="Shape" points="31.3483146 28.3146067 37.4157303 28.3146067 37.4157303 34.3820225 31.3483146 34.3820225"></polygon>
                </g>
            </g>
        </g>
    </g>
</svg>