<?xml version="1.0" encoding="UTF-8"?>
<svg width="2595px" height="630px" viewBox="0 0 2595 630" version="1.1" xmlns="http://www.w3.org/2000/svg" xmlns:xlink="http://www.w3.org/1999/xlink">
    <!-- Generator: Sketch 49.3 (51167) - http://www.bohemiancoding.com/sketch -->
    <title>movieinteractionflow</title>
    <desc>Created with Sketch.</desc>
    <defs>
        <rect id="path-1" x="0" y="0" width="250" height="160" rx="10"></rect>
        <filter x="-6.0%" y="-9.4%" width="112.0%" height="118.8%" filterUnits="objectBoundingBox" id="filter-2">
            <feOffset dx="0" dy="0" in="SourceAlpha" result="shadowOffsetOuter1"></feOffset>
            <feGaussianBlur stdDeviation="5" in="shadowOffsetOuter1" result="shadowBlurOuter1"></feGaussianBlur>
            <feComposite in="shadowBlurOuter1" in2="SourceAlpha" operator="out" result="shadowBlurOuter1"></feComposite>
            <feColorMatrix values="0 0 0 0 0.899845876   0 0 0 0 0.899845876   0 0 0 0 0.899845876  0 0 0 0.5 0" type="matrix" in="shadowBlurOuter1"></feColorMatrix>
        </filter>
        <rect id="path-3" x="0" y="0" width="309" height="160" rx="10"></rect>
        <filter x="-4.9%" y="-9.4%" width="109.7%" height="118.8%" filterUnits="objectBoundingBox" id="filter-4">
            <feOffset dx="0" dy="0" in="SourceAlpha" result="shadowOffsetOuter1"></feOffset>
            <feGaussianBlur stdDeviation="5" in="shadowOffsetOuter1" result="shadowBlurOuter1"></feGaussianBlur>
            <feComposite in="shadowBlurOuter1" in2="SourceAlpha" operator="out" result="shadowBlurOuter1"></feComposite>
            <feColorMatrix values="0 0 0 0 0.899845876   0 0 0 0 0.899845876   0 0 0 0 0.899845876  0 0 0 0.5 0" type="matrix" in="shadowBlurOuter1"></feColorMatrix>
        </filter>
        <rect id="path-5" x="0" y="0" width="309" height="160" rx="10"></rect>
        <filter x="-4.9%" y="-9.4%" width="109.7%" height="118.8%" filterUnits="objectBoundingBox" id="filter-6">
            <feOffset dx="0" dy="0" in="SourceAlpha" result="shadowOffsetOuter1"></feOffset>
            <feGaussianBlur stdDeviation="5" in="shadowOffsetOuter1" result="shadowBlurOuter1"></feGaussianBlur>
            <feComposite in="shadowBlurOuter1" in2="SourceAlpha" operator="out" result="shadowBlurOuter1"></feComposite>
            <feColorMatrix values="0 0 0 0 0.899845876   0 0 0 0 0.899845876   0 0 0 0 0.899845876  0 0 0 0.5 0" type="matrix" in="shadowBlurOuter1"></feColorMatrix>
        </filter>
        <rect id="path-7" x="1283" y="50" width="309" height="542" rx="10"></rect>
        <filter x="-4.9%" y="-2.8%" width="109.7%" height="105.5%" filterUnits="objectBoundingBox" id="filter-8">
            <feOffset dx="0" dy="0" in="SourceAlpha" result="shadowOffsetOuter1"></feOffset>
            <feMorphology radius="3" operator="erode" in="SourceAlpha" result="shadowInner"></feMorphology>
            <feOffset dx="0" dy="0" in="shadowInner" result="shadowInner"></feOffset>
            <feComposite in="shadowOffsetOuter1" in2="shadowInner" operator="out" result="shadowOffsetOuter1"></feComposite>
            <feGaussianBlur stdDeviation="5" in="shadowOffsetOuter1" result="shadowBlurOuter1"></feGaussianBlur>
            <feColorMatrix values="0 0 0 0 0.899845876   0 0 0 0 0.899845876   0 0 0 0 0.899845876  0 0 0 0.5 0" type="matrix" in="shadowBlurOuter1"></feColorMatrix>
        </filter>
        <rect id="path-9" x="1293" y="314" width="289" height="126" rx="10"></rect>
        <filter x="-5.2%" y="-11.9%" width="110.4%" height="123.8%" filterUnits="objectBoundingBox" id="filter-10">
            <feOffset dx="0" dy="0" in="SourceAlpha" result="shadowOffsetOuter1"></feOffset>
            <feGaussianBlur stdDeviation="5" in="shadowOffsetOuter1" result="shadowBlurOuter1"></feGaussianBlur>
            <feComposite in="shadowBlurOuter1" in2="SourceAlpha" operator="out" result="shadowBlurOuter1"></feComposite>
            <feColorMatrix values="0 0 0 0 0.899845876   0 0 0 0 0.899845876   0 0 0 0 0.899845876  0 0 0 0.5 0" type="matrix" in="shadowBlurOuter1"></feColorMatrix>
        </filter>
        <rect id="path-11" x="1293" y="453" width="289" height="126" rx="10"></rect>
        <filter x="-5.2%" y="-11.9%" width="110.4%" height="123.8%" filterUnits="objectBoundingBox" id="filter-12">
            <feOffset dx="0" dy="0" in="SourceAlpha" result="shadowOffsetOuter1"></feOffset>
            <feGaussianBlur stdDeviation="5" in="shadowOffsetOuter1" result="shadowBlurOuter1"></feGaussianBlur>
            <feComposite in="shadowBlurOuter1" in2="SourceAlpha" operator="out" result="shadowBlurOuter1"></feComposite>
            <feColorMatrix values="0 0 0 0 0.899845876   0 0 0 0 0.899845876   0 0 0 0 0.899845876  0 0 0 0.5 0" type="matrix" in="shadowBlurOuter1"></feColorMatrix>
        </filter>
        <rect id="path-13" x="1293" y="148" width="289" height="70" rx="10"></rect>
        <filter x="-5.2%" y="-21.4%" width="110.4%" height="142.9%" filterUnits="objectBoundingBox" id="filter-14">
            <feOffset dx="0" dy="0" in="SourceAlpha" result="shadowOffsetOuter1"></feOffset>
            <feGaussianBlur stdDeviation="5" in="shadowOffsetOuter1" result="shadowBlurOuter1"></feGaussianBlur>
            <feComposite in="shadowBlurOuter1" in2="SourceAlpha" operator="out" result="shadowBlurOuter1"></feComposite>
            <feColorMatrix values="0 0 0 0 0.899845876   0 0 0 0 0.899845876   0 0 0 0 0.899845876  0 0 0 0.5 0" type="matrix" in="shadowBlurOuter1"></feColorMatrix>
        </filter>
        <rect id="path-15" x="1293" y="231" width="289" height="70" rx="10"></rect>
        <filter x="-5.2%" y="-21.4%" width="110.4%" height="142.9%" filterUnits="objectBoundingBox" id="filter-16">
            <feOffset dx="0" dy="0" in="SourceAlpha" result="shadowOffsetOuter1"></feOffset>
            <feGaussianBlur stdDeviation="5" in="shadowOffsetOuter1" result="shadowBlurOuter1"></feGaussianBlur>
            <feComposite in="shadowBlurOuter1" in2="SourceAlpha" operator="out" result="shadowBlurOuter1"></feComposite>
            <feColorMatrix values="0 0 0 0 0.899845876   0 0 0 0 0.899845876   0 0 0 0 0.899845876  0 0 0 0.5 0" type="matrix" in="shadowBlurOuter1"></feColorMatrix>
        </filter>
    </defs>
    <g id="movieinteractionflow" stroke="none" stroke-width="1" fill="none" fill-rule="evenodd">
        <g id="Flow-Node/Action" transform="translate(664.000000, 50.000000)">
            <g id="Rectangle">
                <use fill="black" fill-opacity="1" filter="url(#filter-2)" xlink:href="#path-1"></use>
                <use fill="#D9FFB3" fill-rule="evenodd" xlink:href="#path-1"></use>
                <rect stroke="#BDFF7A" stroke-width="1" x="0.5" y="0.5" width="249" height="159" rx="10"></rect>
            </g>
        </g>
        <path d="M682.466,110.43 L694.859,110.43 L694.859,114 L677.825,114 L677.825,78.657 L682.466,78.657 L682.466,110.43 Z M710.465,85.542 C713.117013,85.542 715.513989,86.136994 717.656,87.327 C719.798011,88.5170059 721.489494,90.216989 722.7305,92.427 C723.971506,94.637011 724.592,97.1699857 724.592,100.026 C724.592,102.848014 723.946006,105.355489 722.654,107.5485 C721.361994,109.741511 719.611011,111.441494 717.401,112.6485 C715.190989,113.855506 712.743013,114.459 710.057,114.459 C707.438987,114.459 705.08451,113.864006 702.9935,112.674 C700.90249,111.483994 699.270506,109.792511 698.0975,107.5995 C696.924494,105.406489 696.338,102.882014 696.338,100.026 C696.338,97.1359856 696.958494,94.594511 698.1995,92.4015 C699.440506,90.208489 701.131989,88.5170059 703.274,87.327 C705.416011,86.136994 707.812987,85.542 710.465,85.542 Z M710.312,89.367 C708.611992,89.367 707.065007,89.7749959 705.671,90.591 C704.276993,91.4070041 703.163504,92.613992 702.3305,94.212 C701.497496,95.810008 701.081,97.7479886 701.081,100.026 C701.081,102.270011 701.480496,104.190992 702.2795,105.789 C703.078504,107.387008 704.157993,108.593996 705.518,109.41 C706.878007,110.226004 708.390992,110.634 710.057,110.634 C711.757009,110.634 713.346493,110.217504 714.8255,109.3845 C716.304507,108.551496 717.502995,107.336008 718.421,105.738 C719.339005,104.139992 719.798,102.236011 719.798,100.026 C719.798,97.7819888 719.364504,95.8525081 718.4975,94.2375 C717.630496,92.6224919 716.474507,91.4070041 715.0295,90.591 C713.584493,89.7749959 712.012009,89.367 710.312,89.367 Z M740.402,85.542 C742.782012,85.542 744.864491,86.1029944 746.6495,87.225 C748.434509,88.3470056 749.785995,89.808991 750.704,91.611 L750.704,86.001 L755.396,86.001 L755.396,114.714 C755.396,117.264013 754.835006,119.52499 753.713,121.497 C752.590994,123.46901 751.01001,125.007494 748.97,126.1125 C746.92999,127.217506 744.567013,127.77 741.881,127.77 C739.534988,127.77 737.39301,127.370504 735.455,126.5715 C733.51699,125.772496 731.936006,124.642007 730.712,123.18 C729.487994,121.717993 728.757001,120.052009 728.519,118.182 L733.058,118.182 C733.500002,119.780008 734.536992,121.105995 736.169,122.16 C737.801008,123.214005 739.704989,123.741 741.881,123.741 C744.533013,123.741 746.666492,122.950508 748.2815,121.3695 C749.896508,119.788492 750.704,117.570014 750.704,114.714 L750.704,108.288 C749.785995,110.124009 748.434509,111.611494 746.6495,112.7505 C744.864491,113.889506 742.782012,114.459 740.402,114.459 C737.885987,114.459 735.61651,113.838506 733.5935,112.5975 C731.57049,111.356494 729.972506,109.622511 728.7995,107.3955 C727.626494,105.168489 727.04,102.644014 727.04,99.822 C727.04,96.9999859 727.626494,94.5095108 728.7995,92.3505 C729.972506,90.1914892 731.57049,88.5170059 733.5935,87.327 C735.61651,86.136994 737.885987,85.542 740.402,85.542 Z M741.218,89.571 C739.551992,89.571 737.996507,89.9789959 736.5515,90.795 C735.106493,91.6110041 733.950504,92.7924923 733.0835,94.3395 C732.216496,95.8865077 731.783,97.7139895 731.783,99.822 C731.783,101.930011 732.216496,103.791492 733.0835,105.4065 C733.950504,107.021508 735.106493,108.270996 736.5515,109.155 C737.996507,110.039004 739.551992,110.481 741.218,110.481 C742.918009,110.481 744.490493,110.056004 745.9355,109.206 C747.380507,108.355996 748.536496,107.140508 749.4035,105.5595 C750.270504,103.978492 750.704,102.134011 750.704,100.026 C750.704,97.9179895 750.270504,96.0735079 749.4035,94.4925 C748.536496,92.9114921 747.380507,91.6960043 745.9355,90.846 C744.490493,89.9959957 742.918009,89.571 741.218,89.571 Z M760.751,78.351 C760.751,77.4669956 761.056997,76.7190031 761.669,76.107 C762.281003,75.4949969 763.011996,75.189 763.862,75.189 C764.746005,75.189 765.493997,75.4949969 766.106,76.107 C766.718003,76.7190031 767.024,77.4669956 767.024,78.351 C767.024,79.2350044 766.718003,79.9829969 766.106,80.595 C765.493997,81.2070031 764.746005,81.513 763.862,81.513 C762.977996,81.513 762.238503,81.2070031 761.6435,80.595 C761.048497,79.9829969 760.751,79.2350044 760.751,78.351 Z M766.157,86.001 L766.157,114 L761.516,114 L761.516,86.001 L766.157,86.001 Z M786.047,85.542 C788.05301,85.542 789.880492,85.9924955 791.5295,86.8935 C793.178508,87.7945045 794.487495,89.1374911 795.4565,90.9225 C796.425505,92.7075089 796.91,94.8749873 796.91,97.425 L796.91,114 L792.32,114 L792.32,98.19 C792.32,95.3679859 791.640007,93.2260073 790.28,91.764 C788.919993,90.3019927 787.033012,89.571 784.619,89.571 C782.238988,89.571 780.360507,90.3019927 778.9835,91.764 C777.606493,93.2260073 776.918,95.3679859 776.918,98.19 L776.918,114 L772.277,114 L772.277,86.001 L776.918,86.001 L776.918,90.54 C777.836005,88.9079918 779.093992,87.6670042 780.692,86.817 C782.290008,85.9669957 784.07499,85.542 786.047,85.542 Z" id="Login" fill="#000000"></path>
        <g id="Flow-Node/Action" transform="translate(944.000000, 50.000000)">
            <g id="Rectangle">
                <use fill="black" fill-opacity="1" filter="url(#filter-4)" xlink:href="#path-3"></use>
                <use fill="#D9FFB3" fill-rule="evenodd" xlink:href="#path-3"></use>
                <rect stroke="#BDFF7A" stroke-width="1" x="0.5" y="0.5" width="308" height="159" rx="10"></rect>
            </g>
        </g>
        <path d="M981.911,78.657 L981.911,82.38 L972.578,82.38 L972.578,114 L967.937,114 L967.937,82.38 L958.604,82.38 L958.604,78.657 L981.911,78.657 Z M1000.271,85.542 C1002.27701,85.542 1004.10449,85.9924955 1005.7535,86.8935 C1007.40251,87.7945045 1008.7115,89.1374911 1009.6805,90.9225 C1010.6495,92.7075089 1011.134,94.8749873 1011.134,97.425 L1011.134,114 L1006.544,114 L1006.544,98.19 C1006.544,95.3679859 1005.86401,93.2260073 1004.504,91.764 C1003.14399,90.3019927 1001.25701,89.571 998.843,89.571 C996.462988,89.571 994.584507,90.3019927 993.2075,91.764 C991.830493,93.2260073 991.142,95.3679859 991.142,98.19 L991.142,114 L986.501,114 L986.501,76.26 L991.142,76.26 L991.142,90.54 C992.060005,88.9079918 993.317992,87.6670042 994.916,86.817 C996.514008,85.9669957 998.29899,85.542 1000.271,85.542 Z M1042.397,98.853 C1042.397,99.8390049 1042.329,100.756996 1042.193,101.607 L1019.906,101.607 C1020.042,104.395014 1020.91749,106.596492 1022.5325,108.2115 C1024.14751,109.826508 1026.21299,110.634 1028.729,110.634 C1030.63301,110.634 1032.23949,110.209004 1033.5485,109.359 C1034.85751,108.508996 1035.818,107.387007 1036.43,105.993 L1041.428,105.993 C1040.544,108.441012 1039.02251,110.463992 1036.8635,112.062 C1034.70449,113.660008 1031.99302,114.459 1028.729,114.459 C1026.11099,114.459 1023.77351,113.864006 1021.7165,112.674 C1019.65949,111.483994 1018.05301,109.792511 1016.897,107.5995 C1015.74099,105.406489 1015.163,102.882014 1015.163,100.026 C1015.163,97.1359856 1015.74099,94.594511 1016.897,92.4015 C1018.05301,90.208489 1019.68499,88.5170059 1021.793,87.327 C1023.90101,86.136994 1026.33199,85.542 1029.086,85.542 C1031.70401,85.542 1034.01599,86.1199942 1036.022,87.276 C1038.02801,88.4320058 1039.59199,90.01299 1040.714,92.019 C1041.83601,94.02501 1042.397,96.3029872 1042.397,98.853 Z M1037.552,98.241 C1037.552,96.438991 1037.161,94.8665067 1036.379,93.5235 C1035.597,92.1804933 1034.53451,91.1520036 1033.1915,90.438 C1031.84849,89.7239964 1030.36101,89.367 1028.729,89.367 C1026.31499,89.367 1024.29201,90.1574921 1022.66,91.7385 C1021.02799,93.3195079 1020.127,95.4869862 1019.957,98.241 L1037.552,98.241 Z M1058.156,85.542 C1060.53601,85.542 1062.61849,86.1029944 1064.4035,87.225 C1066.18851,88.3470056 1067.54,89.808991 1068.458,91.611 L1068.458,86.001 L1073.15,86.001 L1073.15,114 L1068.458,114 L1068.458,108.288 C1067.54,110.124009 1066.18851,111.611494 1064.4035,112.7505 C1062.61849,113.889506 1060.53601,114.459 1058.156,114.459 C1055.63999,114.459 1053.37051,113.838506 1051.3475,112.5975 C1049.32449,111.356494 1047.72651,109.622511 1046.5535,107.3955 C1045.38049,105.168489 1044.794,102.644014 1044.794,99.822 C1044.794,96.9999859 1045.38049,94.5095108 1046.5535,92.3505 C1047.72651,90.1914892 1049.32449,88.5170059 1051.3475,87.327 C1053.37051,86.136994 1055.63999,85.542 1058.156,85.542 Z M1058.972,89.571 C1057.30599,89.571 1055.75051,89.9789959 1054.3055,90.795 C1052.86049,91.6110041 1051.7045,92.7924923 1050.8375,94.3395 C1049.9705,95.8865077 1049.537,97.7139895 1049.537,99.822 C1049.537,101.930011 1049.9705,103.791492 1050.8375,105.4065 C1051.7045,107.021508 1052.86049,108.270996 1054.3055,109.155 C1055.75051,110.039004 1057.30599,110.481 1058.972,110.481 C1060.67201,110.481 1062.24449,110.056004 1063.6895,109.206 C1065.13451,108.355996 1066.2905,107.140508 1067.1575,105.5595 C1068.0245,103.978492 1068.458,102.134011 1068.458,100.026 C1068.458,97.9179895 1068.0245,96.0735079 1067.1575,94.4925 C1066.2905,92.9114921 1065.13451,91.6960043 1063.6895,90.846 C1062.24449,89.9959957 1060.67201,89.571 1058.972,89.571 Z M1092.275,110.226 L1092.275,114 L1087.583,114 C1085.20299,114 1083.39251,113.422006 1082.1515,112.266 C1080.91049,111.109994 1080.29,109.291012 1080.29,106.809 L1080.29,89.775 L1076.669,89.775 L1076.669,86.001 L1080.29,86.001 L1080.29,79.065 L1084.982,79.065 L1084.982,86.001 L1092.224,86.001 L1092.224,89.775 L1084.982,89.775 L1084.982,106.809 C1084.982,108.067006 1085.237,108.950997 1085.747,109.461 C1086.257,109.971003 1087.15799,110.226 1088.45,110.226 L1092.275,110.226 Z M1121.243,98.853 C1121.243,99.8390049 1121.175,100.756996 1121.039,101.607 L1098.752,101.607 C1098.888,104.395014 1099.76349,106.596492 1101.3785,108.2115 C1102.99351,109.826508 1105.05899,110.634 1107.575,110.634 C1109.47901,110.634 1111.08549,110.209004 1112.3945,109.359 C1113.70351,108.508996 1114.664,107.387007 1115.276,105.993 L1120.274,105.993 C1119.39,108.441012 1117.86851,110.463992 1115.7095,112.062 C1113.55049,113.660008 1110.83902,114.459 1107.575,114.459 C1104.95699,114.459 1102.61951,113.864006 1100.5625,112.674 C1098.50549,111.483994 1096.89901,109.792511 1095.743,107.5995 C1094.58699,105.406489 1094.009,102.882014 1094.009,100.026 C1094.009,97.1359856 1094.58699,94.594511 1095.743,92.4015 C1096.89901,90.208489 1098.53099,88.5170059 1100.639,87.327 C1102.74701,86.136994 1105.17799,85.542 1107.932,85.542 C1110.55001,85.542 1112.86199,86.1199942 1114.868,87.276 C1116.87401,88.4320058 1118.43799,90.01299 1119.56,92.019 C1120.68201,94.02501 1121.243,96.3029872 1121.243,98.853 Z M1116.398,98.241 C1116.398,96.438991 1116.007,94.8665067 1115.225,93.5235 C1114.443,92.1804933 1113.38051,91.1520036 1112.0375,90.438 C1110.69449,89.7239964 1109.20701,89.367 1107.575,89.367 C1105.16099,89.367 1103.13801,90.1574921 1101.506,91.7385 C1099.87399,93.3195079 1098.973,95.4869862 1098.803,98.241 L1116.398,98.241 Z M1130.117,90.744 C1131.78301,87.2759827 1134.62198,85.542 1138.634,85.542 L1138.634,90.387 L1137.41,90.387 C1135.02999,90.387 1133.21951,91.0074938 1131.9785,92.2485 C1130.73749,93.4895062 1130.117,95.6399847 1130.117,98.7 L1130.117,114 L1125.476,114 L1125.476,86.001 L1130.117,86.001 L1130.117,90.744 Z" id="Login" fill="#000000"></path>
        <g id="Flow-Node/Action" transform="translate(1622.000000, 50.000000)">
            <g id="Rectangle">
                <use fill="black" fill-opacity="1" filter="url(#filter-6)" xlink:href="#path-5"></use>
                <use fill="#D9FFB3" fill-rule="evenodd" xlink:href="#path-5"></use>
                <rect stroke="#BDFF7A" stroke-width="1" x="0.5" y="0.5" width="308" height="159" rx="10"></rect>
            </g>
        </g>
        <path d="M1655.372,95.844 C1657.65001,96.2180019 1659.48599,97.2379917 1660.88,98.904 C1662.27401,100.570008 1662.971,102.490989 1662.971,104.667 C1662.971,106.401009 1662.5035,107.981993 1661.5685,109.41 C1660.6335,110.838007 1659.29051,111.959996 1657.5395,112.776 C1655.78849,113.592004 1653.75701,114 1651.445,114 L1638.185,114 L1638.185,78.657 L1650.833,78.657 C1653.24701,78.657 1655.30399,79.0649959 1657.004,79.881 C1658.70401,80.6970041 1659.9875,81.8104929 1660.8545,83.2215 C1661.7215,84.6325071 1662.155,86.238991 1662.155,88.041 C1662.155,90.0130099 1661.56001,91.6534935 1660.37,92.9625 C1659.17999,94.2715065 1657.51401,95.2319969 1655.372,95.844 Z M1642.826,94.008 L1650.629,94.008 C1652.77101,94.008 1654.44549,93.4895052 1655.6525,92.4525 C1656.85951,91.4154948 1657.463,90.0130088 1657.463,88.245 C1657.463,86.442991 1656.85951,85.0150053 1655.6525,83.961 C1654.44549,82.9069947 1652.77101,82.38 1650.629,82.38 L1642.826,82.38 L1642.826,94.008 Z M1651.19,110.328 C1653.43401,110.328 1655.19349,109.767006 1656.4685,108.645 C1657.74351,107.522994 1658.381,105.97601 1658.381,104.004 C1658.381,102.06599 1657.69251,100.536006 1656.3155,99.414 C1654.93849,98.2919944 1653.11101,97.731 1650.833,97.731 L1642.826,97.731 L1642.826,110.328 L1651.19,110.328 Z M1692.245,86.001 L1692.245,114 L1687.604,114 L1687.604,109.512 C1686.686,111.144008 1685.42801,112.376496 1683.83,113.2095 C1682.23199,114.042504 1680.44701,114.459 1678.475,114.459 C1676.46899,114.459 1674.64151,114.008505 1672.9925,113.1075 C1671.34349,112.206495 1670.0345,110.872009 1669.0655,109.104 C1668.0965,107.335991 1667.612,105.177013 1667.612,102.627 L1667.612,86.001 L1672.202,86.001 L1672.202,101.862 C1672.202,104.650014 1672.89049,106.783493 1674.2675,108.2625 C1675.64451,109.741507 1677.52299,110.481 1679.903,110.481 C1682.28301,110.481 1684.16149,109.741507 1685.5385,108.2625 C1686.91551,106.783493 1687.604,104.650014 1687.604,101.862 L1687.604,86.001 L1692.245,86.001 Z M1700.252,86.001 L1708.82,108.645 L1717.541,86.001 L1722.335,86.001 L1705.454,127.107 L1700.66,127.107 L1706.219,113.541 L1695.152,86.001 L1700.252,86.001 Z" id="Login" fill="#000000"></path>
        <path d="M1293,50 L1582,50 C1587.52285,50 1592,54.4771525 1592,60 L1592,138 L1283,138 L1283,60 C1283,54.4771525 1287.47715,50 1293,50 Z" id="Rectangle" fill="#D9FFB3"></path>
        <g id="Rectangle">
            <use fill="black" fill-opacity="1" filter="url(#filter-8)" xlink:href="#path-7"></use>
            <rect stroke="#BDFF7A" stroke-width="3" x="1284.5" y="51.5" width="306" height="539" rx="10"></rect>
        </g>
        <path d="M1335.882,74.1823999 L1335.882,109.5254 L1331.19,109.5254 L1331.19,83.7703999 L1319.358,109.5254 L1316.349,109.5254 L1304.466,83.7703999 L1304.466,109.5254 L1299.825,109.5254 L1299.825,74.1823999 L1304.568,74.1823999 L1317.879,103.1504 L1331.139,74.1823999 L1335.882,74.1823999 Z M1354.293,81.0673999 C1356.94501,81.0673999 1359.34199,81.6623939 1361.484,82.8523999 C1363.62601,84.0424058 1365.31749,85.7423888 1366.5585,87.9523999 C1367.79951,90.1624109 1368.42,92.6953856 1368.42,95.5513999 C1368.42,98.373414 1367.77401,100.880889 1366.482,103.0739 C1365.18999,105.266911 1363.43901,106.966894 1361.229,108.1739 C1359.01899,109.380906 1356.57101,109.9844 1353.885,109.9844 C1351.26699,109.9844 1348.91251,109.389406 1346.8215,108.1994 C1344.73049,107.009394 1343.09851,105.317911 1341.9255,103.1249 C1340.75249,100.931889 1340.166,98.4074141 1340.166,95.5513999 C1340.166,92.6613854 1340.78649,90.1199108 1342.0275,87.9268999 C1343.26851,85.7338889 1344.95999,84.0424058 1347.102,82.8523999 C1349.24401,81.6623939 1351.64099,81.0673999 1354.293,81.0673999 Z M1354.14,84.8923999 C1352.43999,84.8923999 1350.89301,85.3003958 1349.499,86.1163999 C1348.10499,86.9324039 1346.9915,88.1393919 1346.1585,89.7373999 C1345.3255,91.3354079 1344.909,93.2733885 1344.909,95.5513999 C1344.909,97.7954111 1345.3085,99.7163919 1346.1075,101.3144 C1346.9065,102.912408 1347.98599,104.119396 1349.346,104.9354 C1350.70601,105.751404 1352.21899,106.1594 1353.885,106.1594 C1355.58501,106.1594 1357.17449,105.742904 1358.6535,104.9099 C1360.13251,104.076896 1361.331,102.861408 1362.249,101.2634 C1363.167,99.6653919 1363.626,97.7614109 1363.626,95.5513999 C1363.626,93.3073886 1363.1925,91.3779079 1362.3255,89.7628999 C1361.4585,88.1478918 1360.30251,86.9324039 1358.8575,86.1163999 C1357.41249,85.3003958 1355.84001,84.8923999 1354.14,84.8923999 Z M1383.006,105.1904 L1391.625,81.5263999 L1396.623,81.5263999 L1385.658,109.5254 L1380.405,109.5254 L1369.491,81.5263999 L1374.438,81.5263999 L1383.006,105.1904 Z M1398.765,73.8763999 C1398.765,72.9923954 1399.071,72.2444029 1399.683,71.6323999 C1400.295,71.0203968 1401.026,70.7143999 1401.876,70.7143999 C1402.76,70.7143999 1403.508,71.0203968 1404.12,71.6323999 C1404.732,72.2444029 1405.038,72.9923954 1405.038,73.8763999 C1405.038,74.7604043 1404.732,75.5083968 1404.12,76.1203999 C1403.508,76.7324029 1402.76,77.0383999 1401.876,77.0383999 C1400.992,77.0383999 1400.2525,76.7324029 1399.6575,76.1203999 C1399.0625,75.5083968 1398.765,74.7604043 1398.765,73.8763999 Z M1404.171,81.5263999 L1404.171,109.5254 L1399.53,109.5254 L1399.53,81.5263999 L1404.171,81.5263999 Z M1435.689,94.3783999 C1435.689,95.3644048 1435.621,96.2823956 1435.485,97.1323999 L1413.198,97.1323999 C1413.334,99.9204138 1414.20949,102.121892 1415.8245,103.7369 C1417.43951,105.351908 1419.50499,106.1594 1422.021,106.1594 C1423.92501,106.1594 1425.53149,105.734404 1426.8405,104.8844 C1428.14951,104.034396 1429.11,102.912407 1429.722,101.5184 L1434.72,101.5184 C1433.836,103.966412 1432.31451,105.989392 1430.1555,107.5874 C1427.99649,109.185408 1425.28502,109.9844 1422.021,109.9844 C1419.40299,109.9844 1417.06551,109.389406 1415.0085,108.1994 C1412.95149,107.009394 1411.34501,105.317911 1410.189,103.1249 C1409.03299,100.931889 1408.455,98.4074141 1408.455,95.5513999 C1408.455,92.6613854 1409.03299,90.1199108 1410.189,87.9268999 C1411.34501,85.7338889 1412.97699,84.0424058 1415.085,82.8523999 C1417.19301,81.6623939 1419.62399,81.0673999 1422.378,81.0673999 C1424.99601,81.0673999 1427.30799,81.6453941 1429.314,82.8013999 C1431.32001,83.9574056 1432.88399,85.5383898 1434.006,87.5443999 C1435.12801,89.5504099 1435.689,91.8283871 1435.689,94.3783999 Z M1430.844,93.7663999 C1430.844,91.9643909 1430.453,90.3919066 1429.671,89.0488999 C1428.889,87.7058931 1427.82651,86.6774034 1426.4835,85.9633999 C1425.14049,85.2493963 1423.65301,84.8923999 1422.021,84.8923999 C1419.60699,84.8923999 1417.58401,85.682892 1415.952,87.2638999 C1414.31999,88.8449078 1413.419,91.0123861 1413.249,93.7663999 L1430.844,93.7663999 Z" id="Movie" fill="#000000"></path>
        <g id="Rectangle">
            <use fill="black" fill-opacity="1" filter="url(#filter-10)" xlink:href="#path-9"></use>
            <use fill="#FFB7B3" fill-rule="evenodd" xlink:href="#path-9"></use>
            <rect stroke="#FF9F7A" stroke-width="1" x="1293.5" y="314.5" width="288" height="125" rx="10"></rect>
        </g>
        <g id="Rectangle-Copy-3">
            <use fill="black" fill-opacity="1" filter="url(#filter-12)" xlink:href="#path-11"></use>
            <use fill="#FFB7B3" fill-rule="evenodd" xlink:href="#path-11"></use>
            <rect stroke="#FF9F7A" stroke-width="1" x="1293.5" y="453.5" width="288" height="125" rx="10"></rect>
        </g>
        <g id="Rectangle-Copy">
            <use fill="black" fill-opacity="1" filter="url(#filter-14)" xlink:href="#path-13"></use>
            <use fill="#FFB7B3" fill-rule="evenodd" xlink:href="#path-13"></use>
            <rect stroke="#FF9F7A" stroke-width="1" x="1293.5" y="148.5" width="288" height="69" rx="10"></rect>
        </g>
        <g id="Rectangle-Copy-2">
            <use fill="black" fill-opacity="1" filter="url(#filter-16)" xlink:href="#path-15"></use>
            <use fill="#FFB7B3" fill-rule="evenodd" xlink:href="#path-15"></use>
            <rect stroke="#FF9F7A" stroke-width="1" x="1293.5" y="231.5" width="288" height="69" rx="10"></rect>
        </g>
        <path d="M1330.28,165.28 L1330.28,193 L1326.6,193 L1326.6,172.8 L1317.32,193 L1314.96,193 L1305.64,172.8 L1305.64,193 L1302,193 L1302,165.28 L1305.72,165.28 L1316.16,188 L1326.56,165.28 L1330.28,165.28 Z M1344.72,170.68 C1346.80001,170.68 1348.67999,171.146662 1350.36,172.08 C1352.04001,173.013338 1353.36666,174.346658 1354.34,176.08 C1355.31334,177.813342 1355.8,179.799989 1355.8,182.04 C1355.8,184.253344 1355.29334,186.219991 1354.28,187.94 C1353.26666,189.660009 1351.89334,190.993329 1350.16,191.94 C1348.42666,192.886671 1346.50668,193.36 1344.4,193.36 C1342.34666,193.36 1340.50001,192.893338 1338.86,191.96 C1337.21999,191.026662 1335.94,189.700009 1335.02,187.98 C1334.1,186.259991 1333.64,184.280011 1333.64,182.04 C1333.64,179.773322 1334.12666,177.780009 1335.1,176.06 C1336.07334,174.339991 1337.39999,173.013338 1339.08,172.08 C1340.76001,171.146662 1342.63999,170.68 1344.72,170.68 Z M1344.6,173.68 C1343.26666,173.68 1342.05334,173.999997 1340.96,174.64 C1339.86666,175.280003 1338.99334,176.22666 1338.34,177.48 C1337.68666,178.73334 1337.36,180.253324 1337.36,182.04 C1337.36,183.800009 1337.67333,185.30666 1338.3,186.56 C1338.92667,187.81334 1339.77333,188.759997 1340.84,189.4 C1341.90667,190.040003 1343.09333,190.36 1344.4,190.36 C1345.73334,190.36 1346.97999,190.033337 1348.14,189.38 C1349.30001,188.726663 1350.24,187.77334 1350.96,186.52 C1351.68,185.26666 1352.04,183.773342 1352.04,182.04 C1352.04,180.279991 1351.7,178.766673 1351.02,177.5 C1350.34,176.233327 1349.43334,175.280003 1348.3,174.64 C1347.16666,173.999997 1345.93334,173.68 1344.6,173.68 Z M1367.24,189.6 L1374,171.04 L1377.92,171.04 L1369.32,193 L1365.2,193 L1356.64,171.04 L1360.52,171.04 L1367.24,189.6 Z M1379.6,165.04 C1379.6,164.346663 1379.84,163.760002 1380.32,163.28 C1380.8,162.799998 1381.37333,162.56 1382.04,162.56 C1382.73334,162.56 1383.32,162.799998 1383.8,163.28 C1384.28,163.760002 1384.52,164.346663 1384.52,165.04 C1384.52,165.733337 1384.28,166.319998 1383.8,166.8 C1383.32,167.280002 1382.73334,167.52 1382.04,167.52 C1381.34666,167.52 1380.76667,167.280002 1380.3,166.8 C1379.83333,166.319998 1379.6,165.733337 1379.6,165.04 Z M1383.84,171.04 L1383.84,193 L1380.2,193 L1380.2,171.04 L1383.84,171.04 Z M1408.56,181.12 C1408.56,181.893337 1408.50667,182.61333 1408.4,183.28 L1390.92,183.28 C1391.02667,185.466678 1391.71333,187.193327 1392.98,188.46 C1394.24667,189.726673 1395.86666,190.36 1397.84,190.36 C1399.33334,190.36 1400.59333,190.02667 1401.62,189.36 C1402.64667,188.69333 1403.4,187.813339 1403.88,186.72 L1407.8,186.72 C1407.10666,188.64001 1405.91334,190.22666 1404.22,191.48 C1402.52666,192.73334 1400.40001,193.36 1397.84,193.36 C1395.78666,193.36 1393.95334,192.893338 1392.34,191.96 C1390.72666,191.026662 1389.46667,189.700009 1388.56,187.98 C1387.65333,186.259991 1387.2,184.280011 1387.2,182.04 C1387.2,179.773322 1387.65333,177.780009 1388.56,176.06 C1389.46667,174.339991 1390.74666,173.013338 1392.4,172.08 C1394.05334,171.146662 1395.95999,170.68 1398.12,170.68 C1400.17334,170.68 1401.98666,171.133329 1403.56,172.04 C1405.13334,172.946671 1406.36,174.186659 1407.24,175.76 C1408.12,177.333341 1408.56,179.11999 1408.56,181.12 Z M1404.76,180.64 C1404.76,179.22666 1404.45334,177.993339 1403.84,176.94 C1403.22666,175.886661 1402.39334,175.080003 1401.34,174.52 C1400.28666,173.959997 1399.12001,173.68 1397.84,173.68 C1395.94666,173.68 1394.36001,174.299994 1393.08,175.54 C1391.79999,176.780006 1391.09333,178.479989 1390.96,180.64 L1404.76,180.64 Z M1439.72,165.28 L1439.72,168.2 L1432.4,168.2 L1432.4,193 L1428.76,193 L1428.76,168.2 L1421.44,168.2 L1421.44,165.28 L1439.72,165.28 Z M1442.72,165.04 C1442.72,164.346663 1442.96,163.760002 1443.44,163.28 C1443.92,162.799998 1444.49333,162.56 1445.16,162.56 C1445.85334,162.56 1446.44,162.799998 1446.92,163.28 C1447.4,163.760002 1447.64,164.346663 1447.64,165.04 C1447.64,165.733337 1447.4,166.319998 1446.92,166.8 C1446.44,167.280002 1445.85334,167.52 1445.16,167.52 C1444.46666,167.52 1443.88667,167.280002 1443.42,166.8 C1442.95333,166.319998 1442.72,165.733337 1442.72,165.04 Z M1446.96,171.04 L1446.96,193 L1443.32,193 L1443.32,171.04 L1446.96,171.04 Z M1478.16,170.68 C1479.76001,170.68 1481.21333,171.03333 1482.52,171.74 C1483.82667,172.44667 1484.86,173.499993 1485.62,174.9 C1486.38,176.300007 1486.76,177.99999 1486.76,180 L1486.76,193 L1483.16,193 L1483.16,180.6 C1483.16,178.386656 1482.62001,176.706672 1481.54,175.56 C1480.46,174.413328 1478.98668,173.84 1477.12,173.84 C1475.25332,173.84 1473.78001,174.413328 1472.7,175.56 C1471.62,176.706672 1471.08,178.386656 1471.08,180.6 L1471.08,193 L1467.48,193 L1467.48,180.6 C1467.48,178.386656 1466.94667,176.706672 1465.88,175.56 C1464.81333,174.413328 1463.33334,173.84 1461.44,173.84 C1459.57332,173.84 1458.10001,174.413328 1457.02,175.56 C1455.94,176.706672 1455.4,178.386656 1455.4,180.6 L1455.4,193 L1451.76,193 L1451.76,171.04 L1455.4,171.04 L1455.4,174.6 C1456.12,173.319994 1457.10666,172.34667 1458.36,171.68 C1459.61334,171.01333 1461.01333,170.68 1462.56,170.68 C1464.24001,170.68 1465.75999,171.086663 1467.12,171.9 C1468.48001,172.713337 1469.50666,173.893326 1470.2,175.44 C1471,173.946659 1472.08666,172.780004 1473.46,171.94 C1474.83334,171.099996 1476.39999,170.68 1478.16,170.68 Z M1511.28,181.12 C1511.28,181.893337 1511.22667,182.61333 1511.12,183.28 L1493.64,183.28 C1493.74667,185.466678 1494.43333,187.193327 1495.7,188.46 C1496.96667,189.726673 1498.58666,190.36 1500.56,190.36 C1502.05334,190.36 1503.31333,190.02667 1504.34,189.36 C1505.36667,188.69333 1506.12,187.813339 1506.6,186.72 L1510.52,186.72 C1509.82666,188.64001 1508.63334,190.22666 1506.94,191.48 C1505.24666,192.73334 1503.12001,193.36 1500.56,193.36 C1498.50666,193.36 1496.67334,192.893338 1495.06,191.96 C1493.44666,191.026662 1492.18667,189.700009 1491.28,187.98 C1490.37333,186.259991 1489.92,184.280011 1489.92,182.04 C1489.92,179.773322 1490.37333,177.780009 1491.28,176.06 C1492.18667,174.339991 1493.46666,173.013338 1495.12,172.08 C1496.77334,171.146662 1498.67999,170.68 1500.84,170.68 C1502.89334,170.68 1504.70666,171.133329 1506.28,172.04 C1507.85334,172.946671 1509.08,174.186659 1509.96,175.76 C1510.84001,177.333341 1511.28,179.11999 1511.28,181.12 Z M1507.48,180.64 C1507.48,179.22666 1507.17334,177.993339 1506.56,176.94 C1505.94666,175.886661 1505.11334,175.080003 1504.06,174.52 C1503.00666,173.959997 1501.84001,173.68 1500.56,173.68 C1498.66666,173.68 1497.08001,174.299994 1495.8,175.54 C1494.51999,176.780006 1493.81333,178.479989 1493.68,180.64 L1507.48,180.64 Z" id="Movie-Time" fill="#000000"></path>
        <path d="M1330.28,248.28 L1330.28,276 L1326.6,276 L1326.6,255.8 L1317.32,276 L1314.96,276 L1305.64,255.8 L1305.64,276 L1302,276 L1302,248.28 L1305.72,248.28 L1316.16,271 L1326.56,248.28 L1330.28,248.28 Z M1344.72,253.68 C1346.80001,253.68 1348.67999,254.146662 1350.36,255.08 C1352.04001,256.013338 1353.36666,257.346658 1354.34,259.08 C1355.31334,260.813342 1355.8,262.799989 1355.8,265.04 C1355.8,267.253344 1355.29334,269.219991 1354.28,270.94 C1353.26666,272.660009 1351.89334,273.993329 1350.16,274.94 C1348.42666,275.886671 1346.50668,276.36 1344.4,276.36 C1342.34666,276.36 1340.50001,275.893338 1338.86,274.96 C1337.21999,274.026662 1335.94,272.700009 1335.02,270.98 C1334.1,269.259991 1333.64,267.280011 1333.64,265.04 C1333.64,262.773322 1334.12666,260.780009 1335.1,259.06 C1336.07334,257.339991 1337.39999,256.013338 1339.08,255.08 C1340.76001,254.146662 1342.63999,253.68 1344.72,253.68 Z M1344.6,256.68 C1343.26666,256.68 1342.05334,256.999997 1340.96,257.64 C1339.86666,258.280003 1338.99334,259.22666 1338.34,260.48 C1337.68666,261.73334 1337.36,263.253324 1337.36,265.04 C1337.36,266.800009 1337.67333,268.30666 1338.3,269.56 C1338.92667,270.81334 1339.77333,271.759997 1340.84,272.4 C1341.90667,273.040003 1343.09333,273.36 1344.4,273.36 C1345.73334,273.36 1346.97999,273.033337 1348.14,272.38 C1349.30001,271.726663 1350.24,270.77334 1350.96,269.52 C1351.68,268.26666 1352.04,266.773342 1352.04,265.04 C1352.04,263.279991 1351.7,261.766673 1351.02,260.5 C1350.34,259.233327 1349.43334,258.280003 1348.3,257.64 C1347.16666,256.999997 1345.93334,256.68 1344.6,256.68 Z M1367.24,272.6 L1374,254.04 L1377.92,254.04 L1369.32,276 L1365.2,276 L1356.64,254.04 L1360.52,254.04 L1367.24,272.6 Z M1379.6,248.04 C1379.6,247.346663 1379.84,246.760002 1380.32,246.28 C1380.8,245.799998 1381.37333,245.56 1382.04,245.56 C1382.73334,245.56 1383.32,245.799998 1383.8,246.28 C1384.28,246.760002 1384.52,247.346663 1384.52,248.04 C1384.52,248.733337 1384.28,249.319998 1383.8,249.8 C1383.32,250.280002 1382.73334,250.52 1382.04,250.52 C1381.34666,250.52 1380.76667,250.280002 1380.3,249.8 C1379.83333,249.319998 1379.6,248.733337 1379.6,248.04 Z M1383.84,254.04 L1383.84,276 L1380.2,276 L1380.2,254.04 L1383.84,254.04 Z M1408.56,264.12 C1408.56,264.893337 1408.50667,265.61333 1408.4,266.28 L1390.92,266.28 C1391.02667,268.466678 1391.71333,270.193327 1392.98,271.46 C1394.24667,272.726673 1395.86666,273.36 1397.84,273.36 C1399.33334,273.36 1400.59333,273.02667 1401.62,272.36 C1402.64667,271.69333 1403.4,270.813339 1403.88,269.72 L1407.8,269.72 C1407.10666,271.64001 1405.91334,273.22666 1404.22,274.48 C1402.52666,275.73334 1400.40001,276.36 1397.84,276.36 C1395.78666,276.36 1393.95334,275.893338 1392.34,274.96 C1390.72666,274.026662 1389.46667,272.700009 1388.56,270.98 C1387.65333,269.259991 1387.2,267.280011 1387.2,265.04 C1387.2,262.773322 1387.65333,260.780009 1388.56,259.06 C1389.46667,257.339991 1390.74666,256.013338 1392.4,255.08 C1394.05334,254.146662 1395.95999,253.68 1398.12,253.68 C1400.17334,253.68 1401.98666,254.133329 1403.56,255.04 C1405.13334,255.946671 1406.36,257.186659 1407.24,258.76 C1408.12,260.333341 1408.56,262.11999 1408.56,264.12 Z M1404.76,263.64 C1404.76,262.22666 1404.45334,260.993339 1403.84,259.94 C1403.22666,258.886661 1402.39334,258.080003 1401.34,257.52 C1400.28666,256.959997 1399.12001,256.68 1397.84,256.68 C1395.94666,256.68 1394.36001,257.299994 1393.08,258.54 C1391.79999,259.780006 1391.09333,261.479989 1390.96,263.64 L1404.76,263.64 Z M1439.72,248.28 L1439.72,251.2 L1432.4,251.2 L1432.4,276 L1428.76,276 L1428.76,251.2 L1421.44,251.2 L1421.44,248.28 L1439.72,248.28 Z M1444.8,254.04 L1451.52,271.8 L1458.36,254.04 L1462.12,254.04 L1448.88,286.28 L1445.12,286.28 L1449.48,275.64 L1440.8,254.04 L1444.8,254.04 Z M1476.16,253.68 C1478.13334,253.68 1479.91333,254.146662 1481.5,255.08 C1483.08668,256.013338 1484.34,257.326658 1485.26,259.02 C1486.18001,260.713342 1486.64,262.666656 1486.64,264.88 C1486.64,267.093344 1486.18001,269.073325 1485.26,270.82 C1484.34,272.566675 1483.08668,273.926662 1481.5,274.9 C1479.91333,275.873338 1478.13334,276.36 1476.16,276.36 C1474.29332,276.36 1472.66001,275.913338 1471.26,275.02 C1469.85999,274.126662 1468.78667,272.960007 1468.04,271.52 L1468.04,286.4 L1464.4,286.4 L1464.4,254.04 L1468.04,254.04 L1468.04,258.44 C1468.78667,257.02666 1469.85999,255.880004 1471.26,255 C1472.66001,254.119996 1474.29332,253.68 1476.16,253.68 Z M1475.44,256.84 C1474.13333,256.84 1472.91334,257.17333 1471.78,257.84 C1470.64666,258.50667 1469.74,259.459994 1469.06,260.7 C1468.38,261.940006 1468.04,263.386658 1468.04,265.04 C1468.04,266.693342 1468.38,268.139994 1469.06,269.38 C1469.74,270.620006 1470.64666,271.57333 1471.78,272.24 C1472.91334,272.90667 1474.13333,273.24 1475.44,273.24 C1476.74667,273.24 1477.97333,272.900003 1479.12,272.22 C1480.26667,271.539997 1481.18,270.560006 1481.86,269.28 C1482.54,267.999994 1482.88,266.533342 1482.88,264.88 C1482.88,263.226658 1482.54,261.793339 1481.86,260.58 C1481.18,259.366661 1480.27334,258.440003 1479.14,257.8 C1478.00666,257.159997 1476.77334,256.84 1475.44,256.84 Z M1509.92,264.12 C1509.92,264.893337 1509.86667,265.61333 1509.76,266.28 L1492.28,266.28 C1492.38667,268.466678 1493.07333,270.193327 1494.34,271.46 C1495.60667,272.726673 1497.22666,273.36 1499.2,273.36 C1500.69334,273.36 1501.95333,273.02667 1502.98,272.36 C1504.00667,271.69333 1504.76,270.813339 1505.24,269.72 L1509.16,269.72 C1508.46666,271.64001 1507.27334,273.22666 1505.58,274.48 C1503.88666,275.73334 1501.76001,276.36 1499.2,276.36 C1497.14666,276.36 1495.31334,275.893338 1493.7,274.96 C1492.08666,274.026662 1490.82667,272.700009 1489.92,270.98 C1489.01333,269.259991 1488.56,267.280011 1488.56,265.04 C1488.56,262.773322 1489.01333,260.780009 1489.92,259.06 C1490.82667,257.339991 1492.10666,256.013338 1493.76,255.08 C1495.41334,254.146662 1497.31999,253.68 1499.48,253.68 C1501.53334,253.68 1503.34666,254.133329 1504.92,255.04 C1506.49334,255.946671 1507.72,257.186659 1508.6,258.76 C1509.48001,260.333341 1509.92,262.11999 1509.92,264.12 Z M1506.12,263.64 C1506.12,262.22666 1505.81334,260.993339 1505.2,259.94 C1504.58666,258.886661 1503.75334,258.080003 1502.7,257.52 C1501.64666,256.959997 1500.48001,256.68 1499.2,256.68 C1497.30666,256.68 1495.72001,257.299994 1494.44,258.54 C1493.15999,259.780006 1492.45333,261.479989 1492.32,263.64 L1506.12,263.64 Z" id="Movie-Type" fill="#000000"></path>
        <path d="M1327.92,362 L1324.28,362 L1309.64,340 L1309.64,362 L1306,362 L1306,334.28 L1309.64,334.28 L1324.28,356.28 L1324.28,334.28 L1327.92,334.28 L1327.92,362 Z M1351.84,340.04 L1351.84,362 L1348.2,362 L1348.2,358.48 C1347.48,359.760006 1346.49334,360.726663 1345.24,361.38 C1343.98666,362.033337 1342.58667,362.36 1341.04,362.36 C1339.46666,362.36 1338.03334,362.00667 1336.74,361.3 C1335.44666,360.59333 1334.42,359.546674 1333.66,358.16 C1332.9,356.773326 1332.52,355.08001 1332.52,353.08 L1332.52,340.04 L1336.12,340.04 L1336.12,352.48 C1336.12,354.666678 1336.65999,356.339994 1337.74,357.5 C1338.82001,358.660006 1340.29332,359.24 1342.16,359.24 C1344.02668,359.24 1345.49999,358.660006 1346.58,357.5 C1347.66001,356.339994 1348.2,354.666678 1348.2,352.48 L1348.2,340.04 L1351.84,340.04 Z M1383.04,339.68 C1384.64001,339.68 1386.09333,340.03333 1387.4,340.74 C1388.70667,341.44667 1389.74,342.499993 1390.5,343.9 C1391.26,345.300007 1391.64,346.99999 1391.64,349 L1391.64,362 L1388.04,362 L1388.04,349.6 C1388.04,347.386656 1387.50001,345.706672 1386.42,344.56 C1385.33999,343.413328 1383.86668,342.84 1382,342.84 C1380.13332,342.84 1378.66001,343.413328 1377.58,344.56 C1376.49999,345.706672 1375.96,347.386656 1375.96,349.6 L1375.96,362 L1372.36,362 L1372.36,349.6 C1372.36,347.386656 1371.82667,345.706672 1370.76,344.56 C1369.69333,343.413328 1368.21334,342.84 1366.32,342.84 C1364.45332,342.84 1362.98001,343.413328 1361.9,344.56 C1360.81999,345.706672 1360.28,347.386656 1360.28,349.6 L1360.28,362 L1356.64,362 L1356.64,340.04 L1360.28,340.04 L1360.28,343.6 C1361,342.319994 1361.98666,341.34667 1363.24,340.68 C1364.49334,340.01333 1365.89333,339.68 1367.44,339.68 C1369.12001,339.68 1370.63999,340.086663 1372,340.9 C1373.36001,341.713337 1374.38666,342.893326 1375.08,344.44 C1375.88,342.946659 1376.96666,341.780004 1378.34,340.94 C1379.71334,340.099996 1381.27999,339.68 1383.04,339.68 Z M1408,339.68 C1409.97334,339.68 1411.75333,340.146662 1413.34,341.08 C1414.92667,342.013338 1416.18,343.326658 1417.1,345.02 C1418.02,346.713342 1418.48,348.666656 1418.48,350.88 C1418.48,353.093344 1418.02,355.073325 1417.1,356.82 C1416.18,358.566675 1414.92667,359.926662 1413.34,360.9 C1411.75333,361.873338 1409.97334,362.36 1408,362.36 C1406.13332,362.36 1404.50001,361.913338 1403.1,361.02 C1401.69999,360.126662 1400.62667,358.960007 1399.88,357.52 L1399.88,362 L1396.24,362 L1396.24,332.4 L1399.88,332.4 L1399.88,344.44 C1400.62667,343.02666 1401.69999,341.880004 1403.1,341 C1404.50001,340.119996 1406.13332,339.68 1408,339.68 Z M1407.28,342.84 C1405.97333,342.84 1404.75334,343.17333 1403.62,343.84 C1402.48666,344.50667 1401.58,345.459994 1400.9,346.7 C1400.22,347.940006 1399.88,349.386658 1399.88,351.04 C1399.88,352.693342 1400.22,354.139994 1400.9,355.38 C1401.58,356.620006 1402.48666,357.57333 1403.62,358.24 C1404.75334,358.90667 1405.97333,359.24 1407.28,359.24 C1408.58667,359.24 1409.81333,358.900003 1410.96,358.22 C1412.10667,357.539997 1413.02,356.560006 1413.7,355.28 C1414.38,353.999994 1414.72,352.533342 1414.72,350.88 C1414.72,349.226658 1414.38,347.793339 1413.7,346.58 C1413.02,345.366661 1412.11334,344.440003 1410.98,343.8 C1409.84666,343.159997 1408.61334,342.84 1407.28,342.84 Z M1441.76,350.12 C1441.76,350.893337 1441.70667,351.61333 1441.6,352.28 L1424.12,352.28 C1424.22667,354.466678 1424.91333,356.193327 1426.18,357.46 C1427.44667,358.726673 1429.06666,359.36 1431.04,359.36 C1432.53334,359.36 1433.79333,359.02667 1434.82,358.36 C1435.84667,357.69333 1436.6,356.813339 1437.08,355.72 L1441,355.72 C1440.30666,357.64001 1439.11334,359.22666 1437.42,360.48 C1435.72666,361.73334 1433.60001,362.36 1431.04,362.36 C1428.98666,362.36 1427.15334,361.893338 1425.54,360.96 C1423.92666,360.026662 1422.66667,358.700009 1421.76,356.98 C1420.85333,355.259991 1420.4,353.280011 1420.4,351.04 C1420.4,348.773322 1420.85333,346.780009 1421.76,345.06 C1422.66667,343.339991 1423.94666,342.013338 1425.6,341.08 C1427.25334,340.146662 1429.15999,339.68 1431.32,339.68 C1433.37334,339.68 1435.18666,340.133329 1436.76,341.04 C1438.33334,341.946671 1439.56,343.186659 1440.44,344.76 C1441.32,346.333341 1441.76,348.11999 1441.76,350.12 Z M1437.96,349.64 C1437.96,348.22666 1437.65334,346.993339 1437.04,345.94 C1436.42666,344.886661 1435.59334,344.080003 1434.54,343.52 C1433.48666,342.959997 1432.32001,342.68 1431.04,342.68 C1429.14666,342.68 1427.56001,343.299994 1426.28,344.54 C1424.99999,345.780006 1424.29333,347.479989 1424.16,349.64 L1437.96,349.64 Z M1448.72,343.76 C1450.02667,341.039986 1452.25332,339.68 1455.4,339.68 L1455.4,343.48 L1454.44,343.48 C1452.57332,343.48 1451.15334,343.966662 1450.18,344.94 C1449.20666,345.913338 1448.72,347.599988 1448.72,350 L1448.72,362 L1445.08,362 L1445.08,340.04 L1448.72,340.04 L1448.72,343.76 Z M1479.04,339.68 C1481.12001,339.68 1482.99999,340.146662 1484.68,341.08 C1486.36001,342.013338 1487.68666,343.346658 1488.66,345.08 C1489.63334,346.813342 1490.12,348.799989 1490.12,351.04 C1490.12,353.253344 1489.61334,355.219991 1488.6,356.94 C1487.58666,358.660009 1486.21334,359.993329 1484.48,360.94 C1482.74666,361.886671 1480.82668,362.36 1478.72,362.36 C1476.66666,362.36 1474.82001,361.893338 1473.18,360.96 C1471.53999,360.026662 1470.26001,358.700009 1469.34,356.98 C1468.42,355.259991 1467.96,353.280011 1467.96,351.04 C1467.96,348.773322 1468.44666,346.780009 1469.42,345.06 C1470.39334,343.339991 1471.71999,342.013338 1473.4,341.08 C1475.08001,340.146662 1476.95999,339.68 1479.04,339.68 Z M1478.92,342.68 C1477.58666,342.68 1476.37334,342.999997 1475.28,343.64 C1474.18666,344.280003 1473.31334,345.22666 1472.66,346.48 C1472.00666,347.73334 1471.68,349.253324 1471.68,351.04 C1471.68,352.800009 1471.99333,354.30666 1472.62,355.56 C1473.24667,356.81334 1474.09333,357.759997 1475.16,358.4 C1476.22667,359.040003 1477.41333,359.36 1478.72,359.36 C1480.05334,359.36 1481.29999,359.033337 1482.46,358.38 C1483.62001,357.726663 1484.56,356.77334 1485.28,355.52 C1486,354.26666 1486.36,352.773342 1486.36,351.04 C1486.36,349.279991 1486.02,347.766673 1485.34,346.5 C1484.66,345.233327 1483.75334,344.280003 1482.62,343.64 C1481.48666,342.999997 1480.25334,342.68 1478.92,342.68 Z M1502.52,343 L1497.92,343 L1497.92,362 L1494.24,362 L1494.24,343 L1491.4,343 L1491.4,340.04 L1494.24,340.04 L1494.24,338.2 C1494.24,335.799988 1494.87999,334.053339 1496.16,332.96 C1497.44001,331.866661 1499.45332,331.32 1502.2,331.32 L1502.2,334.28 C1500.59999,334.28 1499.48667,334.579997 1498.86,335.18 C1498.23333,335.780003 1497.92,336.78666 1497.92,338.2 L1497.92,340.04 L1502.52,340.04 L1502.52,343 Z M1323.04,390.28 L1323.04,393.2 L1315.72,393.2 L1315.72,418 L1312.08,418 L1312.08,393.2 L1304.76,393.2 L1304.76,390.28 L1323.04,390.28 Z M1326.04,390.04 C1326.04,389.346663 1326.28,388.760002 1326.76,388.28 C1327.24,387.799998 1327.81333,387.56 1328.48,387.56 C1329.17334,387.56 1329.76,387.799998 1330.24,388.28 C1330.72,388.760002 1330.96,389.346663 1330.96,390.04 C1330.96,390.733337 1330.72,391.319998 1330.24,391.8 C1329.76,392.280002 1329.17334,392.52 1328.48,392.52 C1327.78666,392.52 1327.20667,392.280002 1326.74,391.8 C1326.27333,391.319998 1326.04,390.733337 1326.04,390.04 Z M1330.28,396.04 L1330.28,418 L1326.64,418 L1326.64,396.04 L1330.28,396.04 Z M1344.28,395.68 C1346.92001,395.68 1349.07333,396.293327 1350.74,397.52 C1352.40668,398.746673 1353.57333,400.493322 1354.24,402.76 L1350.32,402.76 C1349.89333,401.479994 1349.16001,400.480004 1348.12,399.76 C1347.07999,399.039996 1345.80001,398.68 1344.28,398.68 C1342.19999,398.68 1340.52667,399.406659 1339.26,400.86 C1337.99333,402.313341 1337.36,404.37332 1337.36,407.04 C1337.36,409.680013 1337.99333,411.726659 1339.26,413.18 C1340.52667,414.633341 1342.19999,415.36 1344.28,415.36 C1345.82667,415.36 1347.10666,415.013337 1348.12,414.32 C1349.13334,413.626663 1349.86666,412.61334 1350.32,411.28 L1354.24,411.28 C1353.57333,413.440011 1352.39334,415.159994 1350.7,416.44 C1349.00666,417.720006 1346.86668,418.36 1344.28,418.36 C1342.22666,418.36 1340.39334,417.893338 1338.78,416.96 C1337.16666,416.026662 1335.90667,414.700009 1335,412.98 C1334.09333,411.259991 1333.64,409.280011 1333.64,407.04 C1333.64,404.773322 1334.09333,402.780009 1335,401.06 C1335.90667,399.339991 1337.15999,398.013338 1338.76,397.08 C1340.36001,396.146662 1342.19999,395.68 1344.28,395.68 Z M1364.68,406.96 L1375.04,418 L1370.12,418 L1361.52,408.36 L1361.52,418 L1357.88,418 L1357.88,388.4 L1361.52,388.4 L1361.52,405.76 L1369.92,396.04 L1375.04,396.04 L1364.68,406.96 Z M1397.12,406.12 C1397.12,406.893337 1397.06667,407.61333 1396.96,408.28 L1379.48,408.28 C1379.58667,410.466678 1380.27333,412.193327 1381.54,413.46 C1382.80667,414.726673 1384.42666,415.36 1386.4,415.36 C1387.89334,415.36 1389.15333,415.02667 1390.18,414.36 C1391.20667,413.69333 1391.96,412.813339 1392.44,411.72 L1396.36,411.72 C1395.66666,413.64001 1394.47334,415.22666 1392.78,416.48 C1391.08666,417.73334 1388.96001,418.36 1386.4,418.36 C1384.34666,418.36 1382.51334,417.893338 1380.9,416.96 C1379.28666,416.026662 1378.02667,414.700009 1377.12,412.98 C1376.21333,411.259991 1375.76,409.280011 1375.76,407.04 C1375.76,404.773322 1376.21333,402.780009 1377.12,401.06 C1378.02667,399.339991 1379.30666,398.013338 1380.96,397.08 C1382.61334,396.146662 1384.51999,395.68 1386.68,395.68 C1388.73334,395.68 1390.54666,396.133329 1392.12,397.04 C1393.69334,397.946671 1394.92,399.186659 1395.8,400.76 C1396.68,402.333341 1397.12,404.11999 1397.12,406.12 Z M1393.32,405.64 C1393.32,404.22666 1393.01334,402.993339 1392.4,401.94 C1391.78666,400.886661 1390.95334,400.080003 1389.9,399.52 C1388.84666,398.959997 1387.68001,398.68 1386.4,398.68 C1384.50666,398.68 1382.92001,399.299994 1381.64,400.54 C1380.35999,401.780006 1379.65333,403.479989 1379.52,405.64 L1393.32,405.64 Z M1410.64,415.04 L1410.64,418 L1406.96,418 C1405.09332,418 1403.67334,417.546671 1402.7,416.64 C1401.72666,415.733329 1401.24,414.306676 1401.24,412.36 L1401.24,399 L1398.4,399 L1398.4,396.04 L1401.24,396.04 L1401.24,390.6 L1404.92,390.6 L1404.92,396.04 L1410.6,396.04 L1410.6,399 L1404.92,399 L1404.92,412.36 C1404.92,413.346672 1405.12,414.039998 1405.52,414.44 C1405.92,414.840002 1406.62666,415.04 1407.64,415.04 L1410.64,415.04 Z M1421,395.68 C1423.37335,395.68 1425.25333,396.299994 1426.64,397.54 C1428.02667,398.780006 1428.78667,400.479989 1428.92,402.64 L1425.16,402.64 C1425.10667,401.413327 1424.69334,400.42667 1423.92,399.68 C1423.14666,398.93333 1422.08001,398.56 1420.72,398.56 C1419.33333,398.56 1418.24667,398.886663 1417.46,399.54 C1416.67333,400.193337 1416.28,401.013328 1416.28,402 C1416.28,402.826671 1416.52666,403.486664 1417.02,403.98 C1417.51334,404.473336 1418.12666,404.839999 1418.86,405.08 C1419.59334,405.320001 1420.58666,405.573332 1421.84,405.84 C1423.44001,406.213335 1424.72666,406.579998 1425.7,406.94 C1426.67334,407.300002 1427.50666,407.899996 1428.2,408.74 C1428.89334,409.580004 1429.24,410.719993 1429.24,412.16 C1429.24,413.360006 1428.89334,414.433329 1428.2,415.38 C1427.50666,416.326671 1426.53334,417.059997 1425.28,417.58 C1424.02666,418.100003 1422.58668,418.36 1420.96,418.36 C1418.50665,418.36 1416.54001,417.746673 1415.06,416.52 C1413.57999,415.293327 1412.77333,413.600011 1412.64,411.44 L1416.4,411.44 C1416.45333,412.666673 1416.88666,413.646663 1417.7,414.38 C1418.51334,415.113337 1419.59999,415.48 1420.96,415.48 C1422.45334,415.48 1423.60666,415.173336 1424.42,414.56 C1425.23334,413.946664 1425.64,413.133338 1425.64,412.12 C1425.64,411.293329 1425.39334,410.633336 1424.9,410.14 C1424.40666,409.646664 1423.78667,409.273335 1423.04,409.02 C1422.29333,408.766665 1421.26667,408.493335 1419.96,408.2 C1418.38666,407.853332 1417.11334,407.500002 1416.14,407.14 C1415.16666,406.779998 1414.34,406.213337 1413.66,405.44 C1412.98,404.666663 1412.64,403.600007 1412.64,402.24 C1412.64,401.039994 1412.98,399.940005 1413.66,398.94 C1414.34,397.939995 1415.31333,397.14667 1416.58,396.56 C1417.84667,395.97333 1419.31999,395.68 1421,395.68 Z" id="Number-of-Tickets" fill="#000000"></path>
        <path d="M1323.04,473.28 L1323.04,476.2 L1315.72,476.2 L1315.72,501 L1312.08,501 L1312.08,476.2 L1304.76,476.2 L1304.76,473.28 L1323.04,473.28 Z M1328.12,479.04 L1334.84,496.8 L1341.68,479.04 L1345.44,479.04 L1332.2,511.28 L1328.44,511.28 L1332.8,500.64 L1324.12,479.04 L1328.12,479.04 Z M1359.48,478.68 C1361.45334,478.68 1363.23333,479.146662 1364.82,480.08 C1366.40667,481.013338 1367.66,482.326658 1368.58,484.02 C1369.5,485.713342 1369.96,487.666656 1369.96,489.88 C1369.96,492.093344 1369.5,494.073325 1368.58,495.82 C1367.66,497.566675 1366.40667,498.926662 1364.82,499.9 C1363.23333,500.873338 1361.45334,501.36 1359.48,501.36 C1357.61332,501.36 1355.98001,500.913338 1354.58,500.02 C1353.17999,499.126662 1352.10667,497.960007 1351.36,496.52 L1351.36,511.4 L1347.72,511.4 L1347.72,479.04 L1351.36,479.04 L1351.36,483.44 C1352.10667,482.02666 1353.17999,480.880004 1354.58,480 C1355.98001,479.119996 1357.61332,478.68 1359.48,478.68 Z M1358.76,481.84 C1357.45333,481.84 1356.23334,482.17333 1355.1,482.84 C1353.96666,483.50667 1353.06,484.459994 1352.38,485.7 C1351.7,486.940006 1351.36,488.386658 1351.36,490.04 C1351.36,491.693342 1351.7,493.139994 1352.38,494.38 C1353.06,495.620006 1353.96666,496.57333 1355.1,497.24 C1356.23334,497.90667 1357.45333,498.24 1358.76,498.24 C1360.06667,498.24 1361.29333,497.900003 1362.44,497.22 C1363.58667,496.539997 1364.5,495.560006 1365.18,494.28 C1365.86,492.999994 1366.2,491.533342 1366.2,489.88 C1366.2,488.226658 1365.86,486.793339 1365.18,485.58 C1364.5,484.366661 1363.59334,483.440003 1362.46,482.8 C1361.32666,482.159997 1360.09334,481.84 1358.76,481.84 Z M1393.24,489.12 C1393.24,489.893337 1393.18667,490.61333 1393.08,491.28 L1375.6,491.28 C1375.70667,493.466678 1376.39333,495.193327 1377.66,496.46 C1378.92667,497.726673 1380.54666,498.36 1382.52,498.36 C1384.01334,498.36 1385.27333,498.02667 1386.3,497.36 C1387.32667,496.69333 1388.08,495.813339 1388.56,494.72 L1392.48,494.72 C1391.78666,496.64001 1390.59334,498.22666 1388.9,499.48 C1387.20666,500.73334 1385.08001,501.36 1382.52,501.36 C1380.46666,501.36 1378.63334,500.893338 1377.02,499.96 C1375.40666,499.026662 1374.14667,497.700009 1373.24,495.98 C1372.33333,494.259991 1371.88,492.280011 1371.88,490.04 C1371.88,487.773322 1372.33333,485.780009 1373.24,484.06 C1374.14667,482.339991 1375.42666,481.013338 1377.08,480.08 C1378.73334,479.146662 1380.63999,478.68 1382.8,478.68 C1384.85334,478.68 1386.66666,479.133329 1388.24,480.04 C1389.81334,480.946671 1391.04,482.186659 1391.92,483.76 C1392.8,485.333341 1393.24,487.11999 1393.24,489.12 Z M1389.44,488.64 C1389.44,487.22666 1389.13334,485.993339 1388.52,484.94 C1387.90666,483.886661 1387.07334,483.080003 1386.02,482.52 C1384.96666,481.959997 1383.80001,481.68 1382.52,481.68 C1380.62666,481.68 1379.04001,482.299994 1377.76,483.54 C1376.47999,484.780006 1375.77333,486.479989 1375.64,488.64 L1389.44,488.64 Z M1404.12,478.68 C1406.49335,478.68 1408.37333,479.299994 1409.76,480.54 C1411.14667,481.780006 1411.90667,483.479989 1412.04,485.64 L1408.28,485.64 C1408.22667,484.413327 1407.81334,483.42667 1407.04,482.68 C1406.26666,481.93333 1405.20001,481.56 1403.84,481.56 C1402.45333,481.56 1401.36667,481.886663 1400.58,482.54 C1399.79333,483.193337 1399.4,484.013328 1399.4,485 C1399.4,485.826671 1399.64666,486.486664 1400.14,486.98 C1400.63334,487.473336 1401.24666,487.839999 1401.98,488.08 C1402.71334,488.320001 1403.70666,488.573332 1404.96,488.84 C1406.56001,489.213335 1407.84666,489.579998 1408.82,489.94 C1409.79334,490.300002 1410.62666,490.899996 1411.32,491.74 C1412.01334,492.580004 1412.36,493.719993 1412.36,495.16 C1412.36,496.360006 1412.01334,497.433329 1411.32,498.38 C1410.62666,499.326671 1409.65334,500.059997 1408.4,500.58 C1407.14666,501.100003 1405.70668,501.36 1404.08,501.36 C1401.62665,501.36 1399.66001,500.746673 1398.18,499.52 C1396.69999,498.293327 1395.89333,496.600011 1395.76,494.44 L1399.52,494.44 C1399.57333,495.666673 1400.00666,496.646663 1400.82,497.38 C1401.63334,498.113337 1402.71999,498.48 1404.08,498.48 C1405.57334,498.48 1406.72666,498.173336 1407.54,497.56 C1408.35334,496.946664 1408.76,496.133338 1408.76,495.12 C1408.76,494.293329 1408.51334,493.633336 1408.02,493.14 C1407.52666,492.646664 1406.90667,492.273335 1406.16,492.02 C1405.41333,491.766665 1404.38667,491.493335 1403.08,491.2 C1401.50666,490.853332 1400.23334,490.500002 1399.26,490.14 C1398.28666,489.779998 1397.46,489.213337 1396.78,488.44 C1396.1,487.666663 1395.76,486.600007 1395.76,485.24 C1395.76,484.039994 1396.1,482.940005 1396.78,481.94 C1397.46,480.939995 1398.43333,480.14667 1399.7,479.56 C1400.96667,478.97333 1402.43999,478.68 1404.12,478.68 Z M1436.84,478.68 C1438.92001,478.68 1440.79999,479.146662 1442.48,480.08 C1444.16001,481.013338 1445.48666,482.346658 1446.46,484.08 C1447.43334,485.813342 1447.92,487.799989 1447.92,490.04 C1447.92,492.253344 1447.41334,494.219991 1446.4,495.94 C1445.38666,497.660009 1444.01334,498.993329 1442.28,499.94 C1440.54666,500.886671 1438.62668,501.36 1436.52,501.36 C1434.46666,501.36 1432.62001,500.893338 1430.98,499.96 C1429.33999,499.026662 1428.06001,497.700009 1427.14,495.98 C1426.22,494.259991 1425.76,492.280011 1425.76,490.04 C1425.76,487.773322 1426.24666,485.780009 1427.22,484.06 C1428.19334,482.339991 1429.51999,481.013338 1431.2,480.08 C1432.88001,479.146662 1434.75999,478.68 1436.84,478.68 Z M1436.72,481.68 C1435.38666,481.68 1434.17334,481.999997 1433.08,482.64 C1431.98666,483.280003 1431.11334,484.22666 1430.46,485.48 C1429.80666,486.73334 1429.48,488.253324 1429.48,490.04 C1429.48,491.800009 1429.79333,493.30666 1430.42,494.56 C1431.04667,495.81334 1431.89333,496.759997 1432.96,497.4 C1434.02667,498.040003 1435.21333,498.36 1436.52,498.36 C1437.85334,498.36 1439.09999,498.033337 1440.26,497.38 C1441.42001,496.726663 1442.36,495.77334 1443.08,494.52 C1443.8,493.26666 1444.16,491.773342 1444.16,490.04 C1444.16,488.279991 1443.82,486.766673 1443.14,485.5 C1442.46,484.233327 1441.55334,483.280003 1440.42,482.64 C1439.28666,481.999997 1438.05334,481.68 1436.72,481.68 Z M1460.32,482 L1455.72,482 L1455.72,501 L1452.04,501 L1452.04,482 L1449.2,482 L1449.2,479.04 L1452.04,479.04 L1452.04,477.2 C1452.04,474.799988 1452.67999,473.053339 1453.96,471.96 C1455.24001,470.866661 1457.25332,470.32 1460,470.32 L1460,473.28 C1458.39999,473.28 1457.28667,473.579997 1456.66,474.18 C1456.03333,474.780003 1455.72,475.78666 1455.72,477.2 L1455.72,479.04 L1460.32,479.04 L1460.32,482 Z M1323.04,529.28 L1323.04,532.2 L1315.72,532.2 L1315.72,557 L1312.08,557 L1312.08,532.2 L1304.76,532.2 L1304.76,529.28 L1323.04,529.28 Z M1326.04,529.04 C1326.04,528.346663 1326.28,527.760002 1326.76,527.28 C1327.24,526.799998 1327.81333,526.56 1328.48,526.56 C1329.17334,526.56 1329.76,526.799998 1330.24,527.28 C1330.72,527.760002 1330.96,528.346663 1330.96,529.04 C1330.96,529.733337 1330.72,530.319998 1330.24,530.8 C1329.76,531.280002 1329.17334,531.52 1328.48,531.52 C1327.78666,531.52 1327.20667,531.280002 1326.74,530.8 C1326.27333,530.319998 1326.04,529.733337 1326.04,529.04 Z M1330.28,535.04 L1330.28,557 L1326.64,557 L1326.64,535.04 L1330.28,535.04 Z M1344.28,534.68 C1346.92001,534.68 1349.07333,535.293327 1350.74,536.52 C1352.40668,537.746673 1353.57333,539.493322 1354.24,541.76 L1350.32,541.76 C1349.89333,540.479994 1349.16001,539.480004 1348.12,538.76 C1347.07999,538.039996 1345.80001,537.68 1344.28,537.68 C1342.19999,537.68 1340.52667,538.406659 1339.26,539.86 C1337.99333,541.313341 1337.36,543.37332 1337.36,546.04 C1337.36,548.680013 1337.99333,550.726659 1339.26,552.18 C1340.52667,553.633341 1342.19999,554.36 1344.28,554.36 C1345.82667,554.36 1347.10666,554.013337 1348.12,553.32 C1349.13334,552.626663 1349.86666,551.61334 1350.32,550.28 L1354.24,550.28 C1353.57333,552.440011 1352.39334,554.159994 1350.7,555.44 C1349.00666,556.720006 1346.86668,557.36 1344.28,557.36 C1342.22666,557.36 1340.39334,556.893338 1338.78,555.96 C1337.16666,555.026662 1335.90667,553.700009 1335,551.98 C1334.09333,550.259991 1333.64,548.280011 1333.64,546.04 C1333.64,543.773322 1334.09333,541.780009 1335,540.06 C1335.90667,538.339991 1337.15999,537.013338 1338.76,536.08 C1340.36001,535.146662 1342.19999,534.68 1344.28,534.68 Z M1364.68,545.96 L1375.04,557 L1370.12,557 L1361.52,547.36 L1361.52,557 L1357.88,557 L1357.88,527.4 L1361.52,527.4 L1361.52,544.76 L1369.92,535.04 L1375.04,535.04 L1364.68,545.96 Z M1397.12,545.12 C1397.12,545.893337 1397.06667,546.61333 1396.96,547.28 L1379.48,547.28 C1379.58667,549.466678 1380.27333,551.193327 1381.54,552.46 C1382.80667,553.726673 1384.42666,554.36 1386.4,554.36 C1387.89334,554.36 1389.15333,554.02667 1390.18,553.36 C1391.20667,552.69333 1391.96,551.813339 1392.44,550.72 L1396.36,550.72 C1395.66666,552.64001 1394.47334,554.22666 1392.78,555.48 C1391.08666,556.73334 1388.96001,557.36 1386.4,557.36 C1384.34666,557.36 1382.51334,556.893338 1380.9,555.96 C1379.28666,555.026662 1378.02667,553.700009 1377.12,551.98 C1376.21333,550.259991 1375.76,548.280011 1375.76,546.04 C1375.76,543.773322 1376.21333,541.780009 1377.12,540.06 C1378.02667,538.339991 1379.30666,537.013338 1380.96,536.08 C1382.61334,535.146662 1384.51999,534.68 1386.68,534.68 C1388.73334,534.68 1390.54666,535.133329 1392.12,536.04 C1393.69334,536.946671 1394.92,538.186659 1395.8,539.76 C1396.68,541.333341 1397.12,543.11999 1397.12,545.12 Z M1393.32,544.64 C1393.32,543.22666 1393.01334,541.993339 1392.4,540.94 C1391.78666,539.886661 1390.95334,539.080003 1389.9,538.52 C1388.84666,537.959997 1387.68001,537.68 1386.4,537.68 C1384.50666,537.68 1382.92001,538.299994 1381.64,539.54 C1380.35999,540.780006 1379.65333,542.479989 1379.52,544.64 L1393.32,544.64 Z M1410.64,554.04 L1410.64,557 L1406.96,557 C1405.09332,557 1403.67334,556.546671 1402.7,555.64 C1401.72666,554.733329 1401.24,553.306676 1401.24,551.36 L1401.24,538 L1398.4,538 L1398.4,535.04 L1401.24,535.04 L1401.24,529.6 L1404.92,529.6 L1404.92,535.04 L1410.6,535.04 L1410.6,538 L1404.92,538 L1404.92,551.36 C1404.92,552.346672 1405.12,553.039998 1405.52,553.44 C1405.92,553.840002 1406.62666,554.04 1407.64,554.04 L1410.64,554.04 Z M1421,534.68 C1423.37335,534.68 1425.25333,535.299994 1426.64,536.54 C1428.02667,537.780006 1428.78667,539.479989 1428.92,541.64 L1425.16,541.64 C1425.10667,540.413327 1424.69334,539.42667 1423.92,538.68 C1423.14666,537.93333 1422.08001,537.56 1420.72,537.56 C1419.33333,537.56 1418.24667,537.886663 1417.46,538.54 C1416.67333,539.193337 1416.28,540.013328 1416.28,541 C1416.28,541.826671 1416.52666,542.486664 1417.02,542.98 C1417.51334,543.473336 1418.12666,543.839999 1418.86,544.08 C1419.59334,544.320001 1420.58666,544.573332 1421.84,544.84 C1423.44001,545.213335 1424.72666,545.579998 1425.7,545.94 C1426.67334,546.300002 1427.50666,546.899996 1428.2,547.74 C1428.89334,548.580004 1429.24,549.719993 1429.24,551.16 C1429.24,552.360006 1428.89334,553.433329 1428.2,554.38 C1427.50666,555.326671 1426.53334,556.059997 1425.28,556.58 C1424.02666,557.100003 1422.58668,557.36 1420.96,557.36 C1418.50665,557.36 1416.54001,556.746673 1415.06,555.52 C1413.57999,554.293327 1412.77333,552.600011 1412.64,550.44 L1416.4,550.44 C1416.45333,551.666673 1416.88666,552.646663 1417.7,553.38 C1418.51334,554.113337 1419.59999,554.48 1420.96,554.48 C1422.45334,554.48 1423.60666,554.173336 1424.42,553.56 C1425.23334,552.946664 1425.64,552.133338 1425.64,551.12 C1425.64,550.293329 1425.39334,549.633336 1424.9,549.14 C1424.40666,548.646664 1423.78667,548.273335 1423.04,548.02 C1422.29333,547.766665 1421.26667,547.493335 1419.96,547.2 C1418.38666,546.853332 1417.11334,546.500002 1416.14,546.14 C1415.16666,545.779998 1414.34,545.213337 1413.66,544.44 C1412.98,543.666663 1412.64,542.600007 1412.64,541.24 C1412.64,540.039994 1412.98,538.940005 1413.66,537.94 C1414.34,536.939995 1415.31333,536.14667 1416.58,535.56 C1417.84667,534.97333 1419.31999,534.68 1421,534.68 Z" id="Types-of-Tickets" fill="#000000"></path>
    </g>
</svg>