<?xml version="1.0" encoding="UTF-8" standalone="no"?>
<svg width="124px" height="133px" viewBox="0 0 124 133" version="1.1" xmlns="http://www.w3.org/2000/svg" xmlns:xlink="http://www.w3.org/1999/xlink">
    <!-- Generator: Sketch 49.3 (51167) - http://www.bohemiancoding.com/sketch -->
    <title>Group Copy 2</title>
    <desc>Created with Sketch.</desc>
    <defs></defs>
    <g id="Page-1" stroke="none" stroke-width="1" fill="none" fill-rule="nonzero">
        <g id="Desktop-HD-Copy-7" transform="translate(-620.000000, -39090.000000)">
            <g fill-rule="evenodd" id="Group-Copy-2" transform="translate(681.764173, 39152.895901) rotate(-15.000000) translate(-681.764173, -39152.895901) translate(633.764173, 39093.395901)">
                <polygon id="Shape" class="page-border" fill="#666666" fill-rule="nonzero" points="68.2936461 0 0 0 0 119 96 119 96 25.8418847"></polygon>
                <path d="M69.2369286,11.7834909 L82.7369286,25.2744 L69.2369286,25.2744 L69.2369286,11.7834909 Z M7,113 L7,7 L62.613714,7 L62.613714,31.0915267 L88,31.0915267 L88,113 L7,113 Z" id="Combined-Shape" fill="#FFFFFF"></path>
                <path class="page-border" d="M17,45.4194707 L78,45.4194707 L78,51.1506406 L17,51.1506406 L17,45.4194707 Z M17,22 L51.3125,22 L51.3125,27.7311699 L17,27.7311699 L17,22 Z M17,68.3441504 L78,68.3441504 L78,74.0753203 L17,74.0753203 L17,68.3441504 Z M17,91.2688301 L78,91.2688301 L78,97 L17,97 L17,91.2688301 Z" id="Combined-Shape" fill="#666666" fill-rule="nonzero"></path>
            </g>
        </g>
    </g>
</svg>