<?xml version="1.0" encoding="UTF-8"?>
<svg width="749px" height="308px" viewBox="0 0 749 308" version="1.1" xmlns="http://www.w3.org/2000/svg" xmlns:xlink="http://www.w3.org/1999/xlink">
    <!-- Generator: Sketch 49.3 (51167) - http://www.bohemiancoding.com/sketch -->
    <title>Desktop HD Copy 7</title>
    <desc>Created with Sketch.</desc>
    <defs></defs>
    <g id="Page-1" stroke="none" stroke-width="1" fill="none" fill-rule="evenodd">
        <g id="Desktop-HD-Copy-7" transform="translate(-346.000000, -11120.000000)" fill="#000000">
            <path d="M922,11319.1377 C933.392003,11319.1379 944.313847,11314.7438 952.345962,11306.9289 C960.378077,11299.114 964.857369,11288.5234 964.791519,11277.5034 L964.791519,11207.395 C964.791519,11184.5332 945.633104,11166 922,11166 C898.366896,11166 879.208481,11184.5332 879.208481,11207.395 L879.208481,11277.5034 C879.142631,11288.5234 883.621923,11299.114 891.654038,11306.9289 C899.686153,11314.7438 910.607997,11319.1379 922,11319.1377 Z M894.04947,11207.395 C894.04947,11192.4622 906.563349,11180.3567 922,11180.3567 C937.436651,11180.3567 949.95053,11192.4622 949.95053,11207.395 L949.95053,11277.5034 C949.95053,11292.4363 937.436651,11304.5418 922,11304.5418 C906.563349,11304.5418 894.04947,11292.4363 894.04947,11277.5034 L894.04947,11207.395 Z M852,11242.3296 L866.840989,11242.3296 L866.840989,11277.7427 C866.84099,11307.212 891.53652,11331.1016 922,11331.1016 C952.46348,11331.1016 977.15901,11307.212 977.159011,11277.7427 L977.159011,11242.3296 L992,11242.3296 L992,11277.7427 C991.948785,11312.3252 964.968266,11341.3137 929.420495,11344.9797 L929.420495,11363.6433 L952.671378,11363.6433 L952.671378,11378 L891.328622,11378 L891.328622,11363.6433 L914.579505,11363.6433 L914.579505,11344.9797 C879.031734,11341.3137 852.051215,11312.3252 852,11277.7427 L852,11242.3296 Z" id="Combined-Shape" fill-rule="nonzero"></path>
            <path d="M724.5,11268.5 L752,11268.5 L752,11276.5 L724.5,11276.5 L724.5,11304 L716.5,11304 L716.5,11276.5 L689,11276.5 L689,11268.5 L716.5,11268.5 L716.5,11241 L724.5,11241 L724.5,11268.5 Z" id="Combined-Shape"></path>
            <path d="M481.8272,11159 L577.1728,11159 C583.704782,11159 589,11164.2952 589,11170.8272 L589,11371.1728 C589,11377.7048 583.704782,11383 577.1728,11383 L481.8272,11383 C475.295218,11383 470,11377.7048 470,11371.1728 L470,11170.8272 C470,11164.2952 475.295218,11159 481.8272,11159 Z M480.170326,11184.557 C479.353828,11184.557 478.691926,11185.2189 478.691926,11186.0354 L478.691926,11351.4545 C478.691926,11352.271 479.353828,11352.9329 480.170326,11352.9329 L578.829674,11352.9329 C579.646172,11352.9329 580.308074,11352.271 580.308074,11351.4545 L580.308074,11186.0354 C580.308074,11185.2189 579.646172,11184.557 578.829674,11184.557 L480.170326,11184.557 Z M520.299955,11171.1845 C519.14158,11171.1845 518.202532,11172.1235 518.202532,11173.2819 C518.202532,11174.4403 519.14158,11175.3793 520.299955,11175.3793 L538.700045,11175.3793 C539.85842,11175.3793 540.797468,11174.4403 540.797468,11173.2819 C540.797468,11172.1235 539.85842,11171.1845 538.700045,11171.1845 L520.299955,11171.1845 Z M529.5,11375.4832 C534.075574,11375.4832 537.78481,11371.7813 537.78481,11367.2148 C537.78481,11362.6482 534.075574,11358.9463 529.5,11358.9463 C524.924426,11358.9463 521.21519,11362.6482 521.21519,11367.2148 C521.21519,11371.7813 524.924426,11375.4832 529.5,11375.4832 Z" id="Combined-Shape-Copy-13"></path>
        </g>
    </g>
</svg>