<?xml version="1.0" encoding="UTF-8"?>
<svg width="60px" height="60px" viewBox="0 0 60 60" version="1.1" xmlns="http://www.w3.org/2000/svg" xmlns:xlink="http://www.w3.org/1999/xlink">
    <!-- Generator: Sketch 49.3 (51167) - http://www.bohemiancoding.com/sketch -->
    <title>Combined Shape</title>
    <desc>Created with Sketch.</desc>
    <defs></defs>
    <g id="Page-1" stroke="none" stroke-width="1" fill="none" fill-rule="evenodd">
        <g id="Desktop-HD-Copy-7" transform="translate(-878.000000, -34159.000000)" fill="#7B28D7">
            <g id="Group-8-Copy" transform="translate(750.000000, 33669.000000)">
                <path d="M135,490 L181,490 C184.865993,490 188,493.134007 188,497 L188,543 C188,546.865993 184.865993,550 181,550 L135,550 C131.134007,550 128,546.865993 128,543 L128,497 C128,493.134007 131.134007,490 135,490 Z M158,518.111111 C162.161401,518.111111 165.534884,514.728374 165.534884,510.555556 C165.534884,506.382737 162.161401,503 158,503 C153.838599,503 150.465116,506.382737 150.465116,510.555556 C150.465116,514.728374 153.838599,518.111111 158,518.111111 Z M147.534884,537 C151.696285,537 155.069767,533.617263 155.069767,529.444444 C155.069767,525.271626 151.696285,521.888889 147.534884,521.888889 C143.373482,521.888889 140,525.271626 140,529.444444 C140,533.617263 143.373482,537 147.534884,537 Z M168.465116,537 C172.626518,537 176,533.617263 176,529.444444 C176,525.271626 172.626518,521.888889 168.465116,521.888889 C164.303715,521.888889 160.930233,525.271626 160.930233,529.444444 C160.930233,533.617263 164.303715,537 168.465116,537 Z" id="Combined-Shape"></path>
            </g>
        </g>
    </g>
</svg>