<?xml version="1.0" encoding="UTF-8"?>
<svg width="130px" height="130px" viewBox="0 0 130 130" version="1.1" xmlns="http://www.w3.org/2000/svg" xmlns:xlink="http://www.w3.org/1999/xlink">
    <!-- Generator: Sketch 49.3 (51167) - http://www.bohemiancoding.com/sketch -->
    <title>sayspring.svg</title>
    <desc>Created with Sketch.</desc>
    <defs></defs>
    <g id="Page-1" stroke="none" stroke-width="1" fill="none" fill-rule="evenodd">
        <g id="Desktop-HD-Copy-7" transform="translate(-846.000000, -5262.000000)" fill="#FF7000">
            <path d="M886.858824,5296.16471 C888.262277,5296.16471 889.4,5297.30243 889.4,5298.70588 L889.4,5355.24706 C889.4,5356.65051 888.262277,5357.78824 886.858824,5357.78824 C885.455371,5357.78824 884.317647,5356.65051 884.317647,5355.24706 L884.317647,5298.70588 C884.317647,5297.30243 885.455371,5296.16471 886.858824,5296.16471 Z M877.329412,5317.12941 C878.732865,5317.12941 879.870588,5318.26714 879.870588,5319.67059 L879.870588,5334.91765 C879.870588,5336.3211 878.732865,5337.45882 877.329412,5337.45882 C875.925959,5337.45882 874.788235,5336.3211 874.788235,5334.91765 L874.788235,5319.67059 C874.788235,5318.26714 875.925959,5317.12941 877.329412,5317.12941 Z M897.023529,5306.96471 C898.426982,5306.96471 899.564706,5308.10243 899.564706,5309.50588 L899.564706,5345.08235 C899.564706,5346.48581 898.426982,5347.62353 897.023529,5347.62353 C895.620076,5347.62353 894.482353,5346.48581 894.482353,5345.08235 L894.482353,5309.50588 C894.482353,5308.10243 895.620076,5306.96471 897.023529,5306.96471 Z M906.552941,5286 C907.956394,5286 909.094118,5287.13772 909.094118,5288.54118 L909.094118,5365.41176 C909.094118,5366.81522 907.956394,5367.95294 906.552941,5367.95294 C905.149488,5367.95294 904.011765,5366.81522 904.011765,5365.41176 L904.011765,5288.54118 C904.011765,5287.13772 905.149488,5286 906.552941,5286 Z M916.082353,5296.8 C917.485806,5296.8 918.623529,5297.93772 918.623529,5299.34118 L918.623529,5354.61176 C918.623529,5356.01522 917.485806,5357.15294 916.082353,5357.15294 C914.6789,5357.15294 913.541176,5356.01522 913.541176,5354.61176 L913.541176,5299.34118 C913.541176,5297.93772 914.6789,5296.8 916.082353,5296.8 Z M925.611765,5292.35294 C927.015218,5292.35294 928.152941,5293.49066 928.152941,5294.89412 L928.152941,5359.05882 C928.152941,5360.46228 927.015218,5361.6 925.611765,5361.6 C924.208312,5361.6 923.070588,5360.46228 923.070588,5359.05882 L923.070588,5294.89412 C923.070588,5293.49066 924.208312,5292.35294 925.611765,5292.35294 Z M935.141176,5306.32941 C936.544629,5306.32941 937.682353,5307.46714 937.682353,5308.87059 L937.682353,5345.71765 C937.682353,5347.1211 936.544629,5348.25882 935.141176,5348.25882 C933.737723,5348.25882 932.6,5347.1211 932.6,5345.71765 L932.6,5308.87059 C932.6,5307.46714 933.737723,5306.32941 935.141176,5306.32941 Z M944.670588,5317.76471 C946.074041,5317.76471 947.211765,5318.90243 947.211765,5320.30588 L947.211765,5333.64706 C947.211765,5335.05051 946.074041,5336.18824 944.670588,5336.18824 C943.267135,5336.18824 942.129412,5335.05051 942.129412,5333.64706 L942.129412,5320.30588 C942.129412,5318.90243 943.267135,5317.76471 944.670588,5317.76471 Z M965,5327.29412 C965,5328.69757 963.862277,5329.83529 962.458824,5329.83529 L956.105882,5329.83529 C954.702429,5329.83529 953.564706,5328.69757 953.564706,5327.29412 C953.564706,5325.89066 954.702429,5324.75294 956.105882,5324.75294 L962.458824,5324.75294 C963.862277,5324.75294 965,5325.89066 965,5327.29412 Z M868.435294,5327.29412 C868.435294,5328.69757 867.297571,5329.83529 865.894118,5329.83529 L859.541176,5329.83529 C858.137723,5329.83529 857,5328.69757 857,5327.29412 C857,5325.89066 858.137723,5324.75294 859.541176,5324.75294 L865.894118,5324.75294 C867.297571,5324.75294 868.435294,5325.89066 868.435294,5327.29412 Z" id="Combined-Shape"></path>
        </g>
    </g>
</svg>