<?xml version="1.0" encoding="UTF-8" standalone="no"?>
<svg
   xmlns:dc="http://purl.org/dc/elements/1.1/"
   xmlns:cc="http://creativecommons.org/ns#"
   xmlns:rdf="http://www.w3.org/1999/02/22-rdf-syntax-ns#"
   xmlns:svg="http://www.w3.org/2000/svg"
   xmlns="http://www.w3.org/2000/svg"
   xmlns:sodipodi="http://sodipodi.sourceforge.net/DTD/sodipodi-0.dtd"
   xmlns:inkscape="http://www.inkscape.org/namespaces/inkscape"
   width="87px"
   height="72px"
   viewBox="0 0 87 72"
   version="1.1"
   id="svg2"
   inkscape:version="0.91 r13725"
   sodipodi:docname="sent-message-hook-left.svg">
  <metadata
     id="metadata16">
    <rdf:RDF>
      <cc:Work
         rdf:about="">
        <dc:format>image/svg+xml</dc:format>
        <dc:type
           rdf:resource="http://purl.org/dc/dcmitype/StillImage" />
      </cc:Work>
    </rdf:RDF>
  </metadata>
  <sodipodi:namedview
     pagecolor="#ffffff"
     bordercolor="#666666"
     borderopacity="1"
     objecttolerance="10"
     gridtolerance="10"
     guidetolerance="10"
     inkscape:pageopacity="0"
     inkscape:pageshadow="2"
     inkscape:window-width="1072"
     inkscape:window-height="631"
     id="namedview14"
     showgrid="false"
     inkscape:zoom="3.2777778"
     inkscape:cx="-0.73728784"
     inkscape:cy="36"
     inkscape:window-x="225"
     inkscape:window-y="66"
     inkscape:window-maximized="0"
     inkscape:current-layer="svg2" />
  <!-- Generator: Sketch 49.3 (51167) - http://www.bohemiancoding.com/sketch -->
  <title
     id="title4">Sent Message Background</title>
  <desc
     id="desc6">Created with Sketch.</desc>
  <defs
     id="defs8" />
  <g
     style="fill:#047cfe;fill-rule:evenodd;stroke:none;stroke-width:1"
     id="Sent-Message-Copy-4"
     transform="matrix(-1,0,0,1,559.8383,-46)">
    <path
       d="M 29.898438 5.9121094 C 20.007386 11.909163 13.494141 22.3409 13.494141 35.125 C 13.494141 35.855125 13.5625 51.982422 13.5625 51.982422 C 13.5625 60.829259 8.3500106 68.443472 0.83789062 71.982422 C 10.649101 71.801212 19.802426 68.943165 27.603516 64.109375 C 33.840282 69.013005 41.690098 71.954499 50.232422 71.994141 C 62.061398 71.948603 72.571402 66.343948 79.294922 57.660156 L 29.898438 57.660156 L 29.898438 5.9121094 z M 50.232422 71.994141 C 50.184012 71.994327 50.136344 71.998047 50.087891 71.998047 L 50.40625 71.998047 C 50.347984 71.998047 50.290624 71.994411 50.232422 71.994141 z "
       transform="matrix(-1,0,0,1,559.8383,46)"
       id="Sent-Message-Background" />
  </g>
</svg>
