<?xml version="1.0" encoding="UTF-8"?>
<svg width="140px" height="140px" viewBox="0 0 140 140" version="1.1" xmlns="http://www.w3.org/2000/svg" xmlns:xlink="http://www.w3.org/1999/xlink">
    <!-- Generator: Sketch 49.3 (51167) - http://www.bohemiancoding.com/sketch -->
    <title>workshop6</title>
    <desc>Created with Sketch.</desc>
    <defs></defs>
    <g id="Page-1" stroke="none" stroke-width="1" fill="none" fill-rule="evenodd">
        <g id="Desktop-HD-Copy-7" transform="translate(-540.000000, -16212.000000)">
            <g id="Group-28" transform="translate(305.000000, 15911.000000)">
                <g id="Group-23" transform="translate(15.000000, 15.000000)"></g>
                <g id="Page-1" transform="translate(244.000000, 314.000000)" fill="#FFFFFF">
                    <path d="M82.4992095,39 C76.7112851,39 72,43.7084776 72,49.4984189 C72,55.2899413 76.7112851,60 82.4992095,60 C88.2887149,60 93,55.2899413 93,49.4984189 C93,43.7084776 88.2887149,39 82.4992095,39" id="Fill-1"></path>
                    <path d="M62.9991982,4 C58.0361693,4 54,8.03777283 54,13.0008018 C54,17.9622272 58.0361693,22 62.9991982,22 C67.9622272,22 72,17.9622272 72,13.0008018 C72,8.03777283 67.9622272,4 62.9991982,4" id="Fill-3"></path>
                    <path d="M106,12 C106,5.3824 100.6176,0 94,0 C87.3824,0 82,5.3824 82,12 C82,18.6176 87.3824,24 94,24 C100.6176,24 106,18.6176 106,12" id="Fill-5"></path>
                    <path d="M103,41.5007906 C103,47.2911678 107.711285,52 113.50079,52 C119.288715,52 124,47.2911678 124,41.5007906 C124,35.7104134 119.288715,31 113.50079,31 C107.711285,31 103,35.7104134 103,41.5007906" id="Fill-7"></path>
                    <path d="M107.999206,60 C100.831612,60 95,65.8319687 95,73 C95,80.1680313 100.831612,86 107.999206,86 C115.168388,86 121,80.1680313 121,73 C121,65.8319687 115.168388,60 107.999206,60" id="Fill-10"></path>
                    <path d="M48.3556859,56.2368672 L26.7254695,56.2368672 L43.401395,27.2967786 L59.6164562,36.6944106 L48.3556859,56.2368672 Z M66.8014582,35.2978336 L40.956254,20.3235145 C39.8104942,19.6580961 38.3398891,20.0525368 37.6773967,21.200584 C37.0133041,22.3502346 37.4053588,23.8221722 38.5527188,24.4875906 L39.2472156,24.8900485 L1.89640696,89.7114214 C-2.01133799,96.4890686 0.31538648,105.18761 7.08112998,109.101553 C9.3070404,110.387494 11.7377794,111 14.1397143,111 C19.0395976,111 23.8114631,108.453772 26.4326286,103.904876 L63.7722357,39.1011407 L64.397923,39.4635132 C64.7771759,39.6831814 65.1900335,39.7858002 65.5964901,39.7858002 C66.427006,39.7858002 67.2335184,39.3560842 67.6767802,38.5848402 C68.3408729,37.4351896 67.9488182,35.963252 66.8014582,35.2978336 L66.8014582,35.2978336 Z" id="Fill-12"></path>
                </g>
            </g>
        </g>
    </g>
</svg>