<?xml version="1.0" encoding="UTF-8"?>
<svg width="140px" height="140px" viewBox="0 0 140 140" version="1.1" xmlns="http://www.w3.org/2000/svg" xmlns:xlink="http://www.w3.org/1999/xlink">
    <!-- Generator: Sketch 49.3 (51167) - http://www.bohemiancoding.com/sketch -->
    <title>workshop3</title>
    <desc>Created with Sketch.</desc>
    <defs></defs>
    <g id="Page-1" stroke="none" stroke-width="1" fill="none" fill-rule="evenodd">
        <g id="Desktop-HD-Copy-7" transform="translate(-760.000000, -15926.000000)">
            <g id="Group-28" transform="translate(305.000000, 15911.000000)">
                <g id="Group-23" transform="translate(15.000000, 15.000000)"></g>
                <path d="M563,44 L489,44 L489,118 L476,118 C474.895431,118 474,117.104569 474,116 L474,30 C474,28.8954305 474.895431,28 476,28 L561,28 C562.104569,28 563,28.8954305 563,30 L563,44 Z M497,48 L580,48 C581.656854,48 583,49.3431458 583,51 L583,135 C583,136.656854 581.656854,138 580,138 L497,138 C495.343146,138 494,136.656854 494,135 L494,51 C494,49.3431458 495.343146,48 497,48 Z M539,106.055556 C542.224595,106.055609 545.316108,104.791494 547.589661,102.543256 C549.863214,100.295019 551.131113,97.2482629 551.112473,94.0779514 L551.112473,73.9087674 C551.112473,67.3317368 545.689534,62 539,62 C532.310466,62 526.887527,67.3317368 526.887527,73.9087674 L526.887527,94.0779514 C526.868887,97.2482629 528.136786,100.295019 530.410339,102.543256 C532.683892,104.791494 535.775405,106.055609 539,106.055556 Z M519,84.0277778 L519,94.2004213 C519.014633,104.134472 526.723353,112.461627 536.879859,113.514697 L536.879859,118.875955 L530.236749,118.875955 L530.236749,123 L547.763251,123 L547.763251,118.875955 L541.120141,118.875955 L541.120141,113.514697 C551.276647,112.461627 558.985367,104.134472 559,94.2004213 L559,84.0277778 L554.759717,84.0277778 L554.759717,94.2004213 C554.759717,102.665676 547.703851,109.52812 539,109.52812 C530.296149,109.52812 523.240283,102.665676 523.240283,94.2004213 L523.240283,84.0277778 L519,84.0277778 Z" id="Combined-Shape" fill="#FFFFFF"></path>
            </g>
        </g>
    </g>
</svg>