<?xml version="1.0" encoding="UTF-8"?>
<svg width="140px" height="140px" viewBox="0 0 140 140" version="1.1" xmlns="http://www.w3.org/2000/svg" xmlns:xlink="http://www.w3.org/1999/xlink">
    <!-- Generator: Sketch 49.3 (51167) - http://www.bohemiancoding.com/sketch -->
    <title>workshop2</title>
    <desc>Created with Sketch.</desc>
    <defs></defs>
    <g id="Page-1" stroke="none" stroke-width="1" fill="none" fill-rule="evenodd">
        <g id="Desktop-HD-Copy-7" transform="translate(-540.000000, -15926.000000)">
            <g id="Group-28" transform="translate(305.000000, 15911.000000)">
                <g id="Group-23" transform="translate(15.000000, 15.000000)"></g>
                <path d="M340,44 L266,44 L266,118 L253,118 C251.895431,118 251,117.104569 251,116 L251,30 C251,28.8954305 251.895431,28 253,28 L338,28 C339.104569,28 340,28.8954305 340,30 L340,44 Z M274,48 L357,48 C358.656854,48 360,49.3431458 360,51 L360,135 C360,136.656854 358.656854,138 357,138 L274,138 C272.343146,138 271,136.656854 271,135 L271,51 C271,49.3431458 272.343146,48 274,48 Z M302.48,58 C300.005764,58 298,60.0057643 298,62.48 L298,123.52 C298,125.994236 300.005764,128 302.48,128 L330.52,128 C332.994236,128 335,125.994236 335,123.52 L335,62.48 C335,60.0057643 332.994236,58 330.52,58 L302.48,58 Z M301.262532,65.9865772 L331.737468,65.9865772 C332.046748,65.9865772 332.297468,66.2372977 332.297468,66.5465772 L332.297468,118.044027 C332.297468,118.353306 332.046748,118.604027 331.737468,118.604027 L301.262532,118.604027 C300.953252,118.604027 300.702532,118.353306 300.702532,118.044027 L300.702532,66.5465772 C300.702532,66.2372977 300.953252,65.9865772 301.262532,65.9865772 Z M313.642787,61.8076423 L319.357213,61.8076423 C319.719206,61.8076423 320.012658,62.101095 320.012658,62.4630872 C320.012658,62.8250795 319.719206,63.1185321 319.357213,63.1185321 L313.642787,63.1185321 C313.280794,63.1185321 312.987342,62.8250795 312.987342,62.4630872 C312.987342,62.101095 313.280794,61.8076423 313.642787,61.8076423 Z M316.5,125.651007 C315.077342,125.651007 313.924051,124.494159 313.924051,123.067114 C313.924051,121.64007 315.077342,120.483221 316.5,120.483221 C317.922658,120.483221 319.075949,121.64007 319.075949,123.067114 C319.075949,124.494159 317.922658,125.651007 316.5,125.651007 Z" id="Combined-Shape" fill="#FFFFFF"></path>
            </g>
        </g>
    </g>
</svg>