<?xml version="1.0" encoding="UTF-8"?>
<svg width="140px" height="140px" viewBox="0 0 140 140" version="1.1" xmlns="http://www.w3.org/2000/svg" xmlns:xlink="http://www.w3.org/1999/xlink">
    <!-- Generator: Sketch 49.3 (51167) - http://www.bohemiancoding.com/sketch -->
    <title>workshop8</title>
    <desc>Created with Sketch.</desc>
    <defs></defs>
    <g id="Page-1" stroke="none" stroke-width="1" fill="none" fill-rule="evenodd">
        <g id="Desktop-HD-Copy-7" transform="translate(-980.000000, -16212.000000)">
            <g id="Group-28" transform="translate(305.000000, 15911.000000)">
                <g id="Group-23" transform="translate(15.000000, 15.000000)"></g>
                <path d="M765.263733,325 C757.267245,325 749.271818,327.730526 741.477894,333.190526 C730.713391,340.731579 720.761264,340.731579 709.997822,333.190526 L699,325.485263 L699,415 L792,415 L792,335.258947 L789.048511,333.190526 C781.255648,327.730526 773.25916,325 765.263733,325 Z M748.898021,348.720289 C757.154517,343.00568 764.846542,342.48034 773,347.141634 L773,396 L718,396 L718,353.603841 C721.583937,354.904892 725.192962,355.555857 728.803779,355.555857 C735.55771,355.554978 742.314328,353.277041 748.898021,348.720289 Z" id="Fill-1-Copy-2" fill="#FFFFFF"></path>
            </g>
        </g>
    </g>
</svg>