<?xml version="1.0" encoding="UTF-8"?>
<svg width="620px" height="150px" viewBox="0 0 620 150" version="1.1" xmlns="http://www.w3.org/2000/svg" xmlns:xlink="http://www.w3.org/1999/xlink">
    <!-- Generator: Sketch 49.3 (51167) - http://www.bohemiancoding.com/sketch -->
    <title>Desktop HD Copy 7</title>
    <desc>Created with Sketch.</desc>
    <defs></defs>
    <g id="Page-1" stroke="none" stroke-width="1" fill="none" fill-rule="evenodd">
        <g id="Desktop-HD-Copy-7" transform="translate(-410.000000, -19515.000000)">
            <g id="Group-5-Copy" transform="translate(902.000000, 19534.000000)" fill="#F4E62E">
                <path d="M24.4953935,32.6242016 L19.5588042,44.2356004 C19.3007136,44.8426579 19.428985,45.5450977 19.8849718,46.0217587 C20.5148984,46.6802457 21.559364,46.7033986 22.2178511,46.073472 L38.5712223,30.4293939 C38.6772988,30.3279183 38.7693591,30.2127405 38.8449654,30.0869104 C39.3143041,29.3057997 39.0615629,28.2921102 38.2804522,27.8227715 L29.5046065,22.5497115 L34.4411958,10.9383126 C34.6992864,10.3312552 34.571015,9.62881531 34.1150282,9.15215437 C33.4851016,8.4936673 32.440636,8.47051444 31.7821489,9.10044102 L15.4287777,24.7445191 C15.3227012,24.8459948 15.2306409,24.9611725 15.1550346,25.0870026 C14.6856959,25.8681133 14.9384371,26.8818028 15.7195478,27.3511415 L24.4953935,32.6242016 Z M7,0 L47,0 C50.8659932,-7.10171439e-16 54,3.13400675 54,7 L54,47 C54,50.8659932 50.8659932,54 47,54 L7,54 C3.13400675,54 4.73447626e-16,50.8659932 0,47 L0,7 C-4.73447626e-16,3.13400675 3.13400675,7.10171439e-16 7,0 Z" id="Combined-Shape"></path>
                <path d="M24.4953935,90.6242016 L19.5588042,102.2356 C19.3007136,102.842658 19.428985,103.545098 19.8849718,104.021759 C20.5148984,104.680246 21.559364,104.703399 22.2178511,104.073472 L38.5712223,88.4293939 C38.6772988,88.3279183 38.7693591,88.2127405 38.8449654,88.0869104 C39.3143041,87.3057997 39.0615629,86.2921102 38.2804522,85.8227715 L29.5046065,80.5497115 L34.4411958,68.9383126 C34.6992864,68.3312552 34.571015,67.6288153 34.1150282,67.1521544 C33.4851016,66.4936673 32.440636,66.4705144 31.7821489,67.100441 L15.4287777,82.7445191 C15.3227012,82.8459948 15.2306409,82.9611725 15.1550346,83.0870026 C14.6856959,83.8681133 14.9384371,84.8818028 15.7195478,85.3511415 L24.4953935,90.6242016 Z M7,58 L47,58 C50.8659932,58 54,61.1340068 54,65 L54,105 C54,108.865993 50.8659932,112 47,112 L7,112 C3.13400675,112 4.73447626e-16,108.865993 0,105 L0,65 C-4.73447626e-16,61.1340068 3.13400675,58 7,58 Z" id="Combined-Shape-Copy-4"></path>
                <path d="M82.4953935,32.6242016 L77.5588042,44.2356004 C77.3007136,44.8426579 77.428985,45.5450977 77.8849718,46.0217587 C78.5148984,46.6802457 79.559364,46.7033986 80.2178511,46.073472 L96.5712223,30.4293939 C96.6772988,30.3279183 96.7693591,30.2127405 96.8449654,30.0869104 C97.3143041,29.3057997 97.0615629,28.2921102 96.2804522,27.8227715 L87.5046065,22.5497115 L92.4411958,10.9383126 C92.6992864,10.3312552 92.571015,9.62881531 92.1150282,9.15215437 C91.4851016,8.4936673 90.440636,8.47051444 89.7821489,9.10044102 L73.4287777,24.7445191 C73.3227012,24.8459948 73.2306409,24.9611725 73.1550346,25.0870026 C72.6856959,25.8681133 72.9384371,26.8818028 73.7195478,27.3511415 L82.4953935,32.6242016 Z M65,0 L105,0 C108.865993,-7.10171439e-16 112,3.13400675 112,7 L112,47 C112,50.8659932 108.865993,54 105,54 L65,54 C61.1340068,54 58,50.8659932 58,47 L58,7 C58,3.13400675 61.1340068,7.10171439e-16 65,0 Z" id="Combined-Shape-Copy-3"></path>
                <path d="M82.4953935,90.6242016 L77.5588042,102.2356 C77.3007136,102.842658 77.428985,103.545098 77.8849718,104.021759 C78.5148984,104.680246 79.559364,104.703399 80.2178511,104.073472 L96.5712223,88.4293939 C96.6772988,88.3279183 96.7693591,88.2127405 96.8449654,88.0869104 C97.3143041,87.3057997 97.0615629,86.2921102 96.2804522,85.8227715 L87.5046065,80.5497115 L92.4411958,68.9383126 C92.6992864,68.3312552 92.571015,67.6288153 92.1150282,67.1521544 C91.4851016,66.4936673 90.440636,66.4705144 89.7821489,67.100441 L73.4287777,82.7445191 C73.3227012,82.8459948 73.2306409,82.9611725 73.1550346,83.0870026 C72.6856959,83.8681133 72.9384371,84.8818028 73.7195478,85.3511415 L82.4953935,90.6242016 Z M65,58 L105,58 C108.865993,58 112,61.1340068 112,65 L112,105 C112,108.865993 108.865993,112 105,112 L65,112 C61.1340068,112 58,108.865993 58,105 L58,65 C58,61.1340068 61.1340068,58 65,58 Z" id="Combined-Shape-Copy-5"></path>
            </g>
            <path d="M476.805261,19601.665 L463.193991,19633.6802 C462.9359,19634.2873 463.064172,19634.9897 463.520159,19635.4664 C464.150085,19636.1249 465.194551,19636.148 465.853038,19635.5181 L507.676665,19595.5085 C507.782742,19595.407 507.874802,19595.2918 507.950408,19595.166 C508.419747,19594.3849 508.167006,19593.3712 507.385895,19592.9018 L487.194739,19580.7698 L500.806009,19548.7546 C501.0641,19548.1475 500.935828,19547.4451 500.479841,19546.9684 C499.849915,19546.3099 498.805449,19546.2868 498.146962,19546.9167 L456.323335,19586.9263 C456.217258,19587.0278 456.125198,19587.143 456.049592,19587.2688 C455.580253,19588.0499 455.832994,19589.0636 456.614105,19589.5329 L476.805261,19601.665 Z M433,19534 L531,19534 C534.865993,19534 538,19537.134 538,19541 L538,19639 C538,19642.866 534.865993,19646 531,19646 L433,19646 C429.134007,19646 426,19642.866 426,19639 L426,19541 C426,19537.134 429.134007,19534 433,19534 Z" id="Combined-Shape-Copy-6" fill="#F4E62E"></path>
            <path d="M714.805261,19601.665 L701.193991,19633.6802 C700.9359,19634.2873 701.064172,19634.9897 701.520159,19635.4664 C702.150085,19636.1249 703.194551,19636.148 703.853038,19635.5181 L745.676665,19595.5085 C745.782742,19595.407 745.874802,19595.2918 745.950408,19595.166 C746.419747,19594.3849 746.167006,19593.3712 745.385895,19592.9018 L725.194739,19580.7698 L738.806009,19548.7546 C739.0641,19548.1475 738.935828,19547.4451 738.479841,19546.9684 C737.849915,19546.3099 736.805449,19546.2868 736.146962,19546.9167 L694.323335,19586.9263 C694.217258,19587.0278 694.125198,19587.143 694.049592,19587.2688 C693.580253,19588.0499 693.832994,19589.0636 694.614105,19589.5329 L714.805261,19601.665 Z M671,19534 L769,19534 C772.865993,19534 776,19537.134 776,19541 L776,19639 C776,19642.866 772.865993,19646 769,19646 L671,19646 C667.134007,19646 664,19642.866 664,19639 L664,19541 C664,19537.134 667.134007,19534 671,19534 Z" id="Combined-Shape-Copy-7" fill="#F4E62E"></path>
            <path d="M806,19570 L872,19570 L872,19585 L806,19585 L806,19570 Z M806,19595 L872,19595 L872,19610 L806,19610 L806,19595 Z" id="Combined-Shape" fill="#666666"></path>
            <path d="M608.5,19582.5 L634,19582.5 L634,19597.5 L608.5,19597.5 L608.5,19623 L593.5,19623 L593.5,19597.5 L568,19597.5 L568,19582.5 L593.5,19582.5 L593.5,19557 L608.5,19557 L608.5,19582.5 Z" id="Combined-Shape" fill="#666666"></path>
        </g>
    </g>
</svg>