<?xml version="1.0" encoding="UTF-8"?>
<svg width="324px" height="612px" viewBox="0 0 324 612" version="1.1" xmlns="http://www.w3.org/2000/svg" xmlns:xlink="http://www.w3.org/1999/xlink">
    <!-- Generator: Sketch 49.3 (51167) - http://www.bohemiancoding.com/sketch -->
    <title>Group 31</title>
    <desc>Created with Sketch.</desc>
    <defs>
        <rect id="path-1" x="0" y="0" width="300" height="588" rx="12"></rect>
        <filter x="-6.0%" y="-3.1%" width="112.0%" height="106.1%" filterUnits="objectBoundingBox" id="filter-2">
            <feOffset dx="0" dy="0" in="SourceAlpha" result="shadowOffsetOuter1"></feOffset>
            <feGaussianBlur stdDeviation="6" in="shadowOffsetOuter1" result="shadowBlurOuter1"></feGaussianBlur>
            <feColorMatrix values="0 0 0 0 0.543925383   0 0 0 0 0.543925383   0 0 0 0 0.543925383  0 0 0 0.5 0" type="matrix" in="shadowBlurOuter1"></feColorMatrix>
        </filter>
        <path d="M7,0 L58,0 C61.8659932,-7.10171439e-16 65,3.13400675 65,7 L65,58 C65,61.8659932 61.8659932,65 58,65 L7,65 C3.13400675,65 4.73447626e-16,61.8659932 0,58 L0,7 C-4.73447626e-16,3.13400675 3.13400675,7.10171439e-16 7,0 Z M20.2919922,24.3417969 L29.3740234,24.3417969 C29.3984375,22.3398438 30.765625,20.9482422 32.6943359,20.9482422 C34.5986328,20.9482422 35.9902344,22.0712891 35.9902344,23.7070312 C35.9902344,25.7089844 35.1845703,26.5878906 31.7177734,28.5898438 C28.3242188,30.5429688 27.2011719,32.7402344 27.8115234,37.2080078 L27.8847656,37.7939453 L36.5517578,37.7939453 L36.5517578,36.7685547 C36.5517578,34.5712891 37.4794922,33.5458984 40.8974609,31.5927734 C44.6328125,29.4443359 46.2197266,27.0273438 46.2197266,23.4873047 C46.2197266,17.359375 41.1904297,13.4287109 33.3779297,13.4287109 C25.2724609,13.4287109 20.2919922,17.6035156 20.2919922,24.3417969 Z M32.4013672,49.9765625 C35.2578125,49.9765625 37.6015625,47.828125 37.6015625,45.09375 C37.6015625,42.3837891 35.2578125,40.2353516 32.4013672,40.2353516 C29.5449219,40.2353516 27.2255859,42.3837891 27.2255859,45.09375 C27.2255859,47.828125 29.5449219,49.9765625 32.4013672,49.9765625 Z" id="path-3"></path>
        <rect id="path-4" x="0" y="0" width="183" height="34" rx="5"></rect>
    </defs>
    <g id="Page-1" stroke="none" stroke-width="1" fill="none" fill-rule="evenodd">
        <g id="Group-31" transform="translate(12.000000, 12.000000)">
            <g id="Rectangle-Copy">
                <use fill="black" fill-opacity="1" filter="url(#filter-2)" xlink:href="#path-1"></use>
                <use fill="#FFFFFF" fill-rule="evenodd" xlink:href="#path-1"></use>
            </g>
            <path d="M162.613256,27 C167.513679,27 172.414752,28.6777114 177.191023,32.0324876 L179,33.3033831 L179,82.2985075 L122,82.2985075 L122,27.2981592 L128.740601,32.0324876 C135.337549,36.6659204 141.43724,36.6659204 148.034838,32.0324876 C152.811759,28.6777114 157.712183,27 162.613256,27 Z M150.925373,55.9253731 C154.684207,55.9253731 157.731343,52.8782365 157.731343,49.119403 C157.731343,45.3605695 154.684207,42.3134328 150.925373,42.3134328 C147.16654,42.3134328 144.119403,45.3605695 144.119403,49.119403 C144.119403,52.8782365 147.16654,55.9253731 150.925373,55.9253731 Z M141.567164,72.9402985 C145.325998,72.9402985 148.373134,69.8931619 148.373134,66.1343284 C148.373134,62.3754948 145.325998,59.3283582 141.567164,59.3283582 C137.808331,59.3283582 134.761194,62.3754948 134.761194,66.1343284 C134.761194,69.8931619 137.808331,72.9402985 141.567164,72.9402985 Z M160.283582,72.9402985 C164.042416,72.9402985 167.089552,69.8931619 167.089552,66.1343284 C167.089552,62.3754948 164.042416,59.3283582 160.283582,59.3283582 C156.524749,59.3283582 153.477612,62.3754948 153.477612,66.1343284 C153.477612,69.8931619 156.524749,72.9402985 160.283582,72.9402985 Z" id="Combined-Shape-Copy-14" fill="#7B28D7"></path>
            <path d="M61.19,118.95 L53.63,118.95 L52.46,122.49 L47,122.49 L54.32,101.37 L60.56,101.37 L67.85,122.49 L62.36,122.49 L61.19,118.95 Z M59.9,115.05 L57.41,107.55 L54.92,115.05 L59.9,115.05 Z M76.76,105.57 C78.9000107,105.57 80.5399943,106.359992 81.68,107.94 L81.68,100.29 L86.81,100.29 L86.81,122.49 L81.68,122.49 L81.68,120.06 C80.4399938,121.820009 78.8000102,122.7 76.76,122.7 C75.3799931,122.7 74.1050059,122.340004 72.935,121.62 C71.7649941,120.899996 70.8400034,119.890006 70.16,118.59 C69.4799966,117.289993 69.14,115.810008 69.14,114.15 C69.14,112.489992 69.4799966,111.010006 70.16,109.71 C70.8400034,108.409993 71.7649941,107.395004 72.935,106.665 C74.1050059,105.934996 75.3799931,105.57 76.76,105.57 Z M78.02,110.01 C77.419997,110.01 76.8350029,110.164998 76.265,110.475 C75.6949971,110.785002 75.2350017,111.249997 74.885,111.87 C74.5349983,112.490003 74.36,113.249995 74.36,114.15 C74.36,115.050005 74.5349983,115.804997 74.885,116.415 C75.2350017,117.025003 75.6899972,117.484998 76.25,117.795 C76.8100028,118.105002 77.3999969,118.26 78.02,118.26 C78.620003,118.26 79.2049972,118.105002 79.775,117.795 C80.3450029,117.484998 80.8049982,117.020003 81.155,116.4 C81.5050018,115.779997 81.68,115.020004 81.68,114.12 C81.68,113.219995 81.5050018,112.465003 81.155,111.855 C80.8049982,111.244997 80.3500028,110.785002 79.79,110.475 C79.2299972,110.164998 78.6400031,110.01 78.02,110.01 Z M97.7,105.57 C99.8400107,105.57 101.479994,106.359992 102.62,107.94 L102.62,100.29 L107.75,100.29 L107.75,122.49 L102.62,122.49 L102.62,120.06 C101.379994,121.820009 99.7400102,122.7 97.7,122.7 C96.3199931,122.7 95.0450058,122.340004 93.875,121.62 C92.7049941,120.899996 91.7800034,119.890006 91.1,118.59 C90.4199966,117.289993 90.08,115.810008 90.08,114.15 C90.08,112.489992 90.4199966,111.010006 91.1,109.71 C91.7800034,108.409993 92.7049941,107.395004 93.875,106.665 C95.0450058,105.934996 96.3199931,105.57 97.7,105.57 Z M98.96,110.01 C98.359997,110.01 97.7750029,110.164998 97.205,110.475 C96.6349971,110.785002 96.1750018,111.249997 95.825,111.87 C95.4749982,112.490003 95.3,113.249995 95.3,114.15 C95.3,115.050005 95.4749982,115.804997 95.825,116.415 C96.1750018,117.025003 96.6299972,117.484998 97.19,117.795 C97.7500028,118.105002 98.3399969,118.26 98.96,118.26 C99.560003,118.26 100.144997,118.105002 100.715,117.795 C101.285003,117.484998 101.744998,117.020003 102.095,116.4 C102.445002,115.779997 102.62,115.020004 102.62,114.12 C102.62,113.219995 102.445002,112.465003 102.095,111.855 C101.744998,111.244997 101.290003,110.785002 100.73,110.475 C100.169997,110.164998 99.5800031,110.01 98.96,110.01 Z M126.38,114.3 L126.38,122.49 L121.25,122.49 L121.25,101.43 L129.56,101.43 C131.200008,101.43 132.604994,101.729997 133.775,102.33 C134.945006,102.930003 135.824997,103.719995 136.415,104.7 C137.005003,105.680005 137.3,106.739994 137.3,107.88 C137.3,108.840005 137.065002,109.804995 136.595,110.775 C136.124998,111.745005 135.310006,112.574997 134.15,113.265 C132.989994,113.955003 131.46001,114.3 129.56,114.3 L126.38,114.3 Z M129.56,110.4 C130.340004,110.4 130.954998,110.170002 131.405,109.71 C131.855002,109.249998 132.08,108.640004 132.08,107.88 C132.08,107.139996 131.850002,106.530002 131.39,106.05 C130.929998,105.569998 130.320004,105.33 129.56,105.33 L126.38,105.33 L126.38,110.4 L129.56,110.4 Z M145.52,100.29 L145.52,122.49 L140.39,122.49 L140.39,100.29 L145.52,100.29 Z M156.41,105.57 C158.550011,105.57 160.189994,106.359992 161.33,107.94 L161.33,105.75 L166.46,105.75 L166.46,122.49 L161.33,122.49 L161.33,120.06 C160.089994,121.820009 158.45001,122.7 156.41,122.7 C155.029993,122.7 153.755006,122.340004 152.585,121.62 C151.414994,120.899996 150.490003,119.890007 149.81,118.59 C149.129997,117.289993 148.79,115.810008 148.79,114.15 C148.79,112.489992 149.129997,111.010006 149.81,109.71 C150.490003,108.409993 151.414994,107.395004 152.585,106.665 C153.755006,105.934996 155.029993,105.57 156.41,105.57 Z M157.67,110.01 C157.069997,110.01 156.485003,110.164998 155.915,110.475 C155.344997,110.785002 154.885002,111.249997 154.535,111.87 C154.184998,112.490003 154.01,113.249995 154.01,114.15 C154.01,115.050005 154.184998,115.804997 154.535,116.415 C154.885002,117.025003 155.339997,117.484998 155.9,117.795 C156.460003,118.105002 157.049997,118.26 157.67,118.26 C158.270003,118.26 158.854997,118.105002 159.425,117.795 C159.995003,117.484998 160.454998,117.020003 160.805,116.4 C161.155002,115.779997 161.33,115.020004 161.33,114.12 C161.33,113.219995 161.155002,112.465003 160.805,111.855 C160.454998,111.244997 160.000003,110.785002 159.44,110.475 C158.879997,110.164998 158.290003,110.01 157.67,110.01 Z M179.9,118.14 L179.9,122.49 L177.29,122.49 C175.409991,122.49 173.955005,122.075004 172.925,121.245 C171.894995,120.414996 171.38,118.99001 171.38,116.97 L171.38,110.01 L169.82,110.01 L169.82,105.75 L171.38,105.75 L171.38,101.67 L176.51,101.67 L176.51,105.75 L179.87,105.75 L179.87,110.01 L176.51,110.01 L176.51,116.97 C176.51,117.370002 176.629999,117.664999 176.87,117.855 C177.110001,118.045001 177.509997,118.14 178.07,118.14 L179.9,118.14 Z M190.73,110.01 L188.6,110.01 L188.6,122.49 L183.47,122.49 L183.47,110.01 L181.91,110.01 L181.91,105.75 L183.47,105.75 L183.47,105.12 C183.47,102.999989 184.034994,101.450005 185.165,100.47 C186.295006,99.4899951 188.069988,99 190.49,99 L190.49,103.35 C189.809997,103.35 189.325001,103.479999 189.035,103.74 C188.744999,104.000001 188.6,104.459997 188.6,105.12 L188.6,105.75 L190.73,105.75 L190.73,110.01 Z M201.05,105.57 C202.650008,105.57 204.114993,105.914997 205.445,106.605 C206.775007,107.295003 207.829996,108.284994 208.61,109.575 C209.390004,110.865006 209.78,112.369991 209.78,114.09 C209.78,115.810009 209.395004,117.319993 208.625,118.62 C207.854996,119.920007 206.810007,120.924996 205.49,121.635 C204.169993,122.345004 202.700008,122.7 201.08,122.7 C199.459992,122.7 197.980007,122.345004 196.64,121.635 C195.299993,120.924996 194.240004,119.920007 193.46,118.62 C192.679996,117.319993 192.29,115.810009 192.29,114.09 C192.29,112.369991 192.679996,110.865006 193.46,109.575 C194.240004,108.284994 195.294993,107.295003 196.625,106.605 C197.955007,105.914997 199.429992,105.57 201.05,105.57 Z M201.05,109.95 C200.069995,109.95 199.235003,110.304996 198.545,111.015 C197.854997,111.725004 197.51,112.759993 197.51,114.12 C197.51,115.480007 197.864996,116.519996 198.575,117.24 C199.285004,117.960004 200.119995,118.32 201.08,118.32 C202.040005,118.32 202.859997,117.960004 203.54,117.24 C204.220003,116.519996 204.56,115.480007 204.56,114.12 C204.56,112.759993 204.210003,111.725004 203.51,111.015 C202.809997,110.304996 201.990005,109.95 201.05,109.95 Z M218.21,108.87 C218.770003,107.849995 219.459996,107.045003 220.28,106.455 C221.100004,105.864997 222.009995,105.57 223.01,105.57 L223.01,110.79 L221.75,110.79 C220.569994,110.79 219.685003,111.069997 219.095,111.63 C218.504997,112.190003 218.21,113.169993 218.21,114.57 L218.21,122.49 L213.08,122.49 L213.08,105.75 L218.21,105.75 L218.21,108.87 Z M247.31,105.57 C249.35001,105.57 250.969994,106.199994 252.17,107.46 C253.370006,108.720006 253.97,110.469989 253.97,112.71 L253.97,122.49 L248.87,122.49 L248.87,113.4 C248.87,112.319995 248.585003,111.485003 248.015,110.895 C247.444997,110.304997 246.660005,110.01 245.66,110.01 C244.659995,110.01 243.875003,110.304997 243.305,110.895 C242.734997,111.485003 242.45,112.319995 242.45,113.4 L242.45,122.49 L237.35,122.49 L237.35,113.4 C237.35,112.319995 237.065003,111.485003 236.495,110.895 C235.924997,110.304997 235.140005,110.01 234.14,110.01 C233.139995,110.01 232.355003,110.304997 231.785,110.895 C231.214997,111.485003 230.93,112.319995 230.93,113.4 L230.93,122.49 L225.8,122.49 L225.8,105.75 L230.93,105.75 L230.93,108.21 C231.430003,107.389996 232.114996,106.745002 232.985,106.275 C233.855004,105.804998 234.859994,105.57 236,105.57 C237.240006,105.57 238.344995,105.849997 239.315,106.41 C240.285005,106.970003 241.039997,107.769995 241.58,108.81 C242.200003,107.829995 243.004995,107.045003 243.995,106.455 C244.985005,105.864997 246.089994,105.57 247.31,105.57 Z" id="Add-Platform" fill="#444444"></path>
            <g id="Group-26" transform="translate(113.000000, 166.000000)" fill="#444444">
                <path d="M18,69.7919922 L19.1489258,69.7919922 C19.2568359,70.7822266 20.1962891,71.4360352 21.5039062,71.4360352 C22.7416992,71.4360352 23.6430664,70.7822266 23.6430664,69.8808594 C23.6430664,69.1064453 23.1035156,68.6303711 21.8720703,68.3129883 L20.6977539,68.0083008 C19.0092773,67.5766602 18.2602539,66.8339844 18.2602539,65.5898438 C18.2602539,64.0664062 19.5932617,63 21.4975586,63 C23.3193359,63 24.6396484,64.0791016 24.6904297,65.6152344 L23.5478516,65.6152344 C23.4462891,64.6313477 22.652832,64.0283203 21.4594727,64.0283203 C20.2724609,64.0283203 19.4472656,64.644043 19.4472656,65.5390625 C19.4472656,66.230957 19.9550781,66.6435547 21.1992188,66.9672852 L22.1577148,67.2211914 C24.0556641,67.6972656 24.8237305,68.4272461 24.8237305,69.7412109 C24.8237305,71.4169922 23.503418,72.4643555 21.3959961,72.4643555 C19.4536133,72.4643555 18.1079102,71.4106445 18,69.7919922 Z M31.6728516,67.6972656 L30.5874023,67.6972656 C30.4477539,66.9672852 29.8383789,66.3896484 28.8100586,66.3896484 C27.6166992,66.3896484 26.8041992,67.3798828 26.8041992,68.890625 C26.8041992,70.4458008 27.6293945,71.3916016 28.8227539,71.3916016 C29.7749023,71.3916016 30.409668,70.9472656 30.6000977,70.1220703 L31.6855469,70.1220703 C31.5014648,71.4550781 30.3779297,72.3754883 28.8164062,72.3754883 C26.9375,72.3754883 25.6806641,71.0424805 25.6806641,68.890625 C25.6806641,66.7895508 26.9311523,65.4057617 28.8037109,65.4057617 C30.4985352,65.4057617 31.5332031,66.4975586 31.6728516,67.6972656 Z M32.7456055,72.3120117 L32.7456055,65.4692383 L33.7866211,65.4692383 L33.7866211,66.5800781 L33.8120117,66.5800781 C34.0151367,65.862793 34.6689453,65.4057617 35.46875,65.4057617 C35.6020508,65.4057617 35.7988281,65.4248047 35.894043,65.4501953 L35.894043,66.5419922 C35.8051758,66.5039062 35.5131836,66.4658203 35.3227539,66.4658203 C34.434082,66.4658203 33.8500977,67.1132812 33.8500977,68.078125 L33.8500977,72.3120117 L32.7456055,72.3120117 Z M39.5947266,66.3769531 C38.5219727,66.3769531 37.7475586,67.1577148 37.6713867,68.3129883 L41.4355469,68.3129883 C41.4101562,67.1513672 40.6738281,66.3769531 39.5947266,66.3769531 Z M41.4101562,70.3569336 L42.5019531,70.3569336 C42.3115234,71.53125 41.1245117,72.3754883 39.6645508,72.3754883 C37.7412109,72.3754883 36.5288086,71.0361328 36.5288086,68.9160156 C36.5288086,66.7958984 37.7475586,65.4057617 39.6137695,65.4057617 C41.4418945,65.4057617 42.5844727,66.6943359 42.5844727,68.7636719 L42.5844727,69.1953125 L37.6713867,69.1953125 L37.6713867,69.2587891 C37.6713867,70.5600586 38.4711914,71.4042969 39.6899414,71.4042969 C40.546875,71.4042969 41.2133789,70.9980469 41.4101562,70.3569336 Z M46.4755859,66.3769531 C45.402832,66.3769531 44.628418,67.1577148 44.5522461,68.3129883 L48.3164062,68.3129883 C48.2910156,67.1513672 47.5546875,66.3769531 46.4755859,66.3769531 Z M48.2910156,70.3569336 L49.3828125,70.3569336 C49.1923828,71.53125 48.0053711,72.3754883 46.5454102,72.3754883 C44.6220703,72.3754883 43.409668,71.0361328 43.409668,68.9160156 C43.409668,66.7958984 44.628418,65.4057617 46.4946289,65.4057617 C48.3227539,65.4057617 49.465332,66.6943359 49.465332,68.7636719 L49.465332,69.1953125 L44.5522461,69.1953125 L44.5522461,69.2587891 C44.5522461,70.5600586 45.3520508,71.4042969 46.5708008,71.4042969 C47.4277344,71.4042969 48.0942383,70.9980469 48.2910156,70.3569336 Z M50.6269531,72.3120117 L50.6269531,65.4692383 L51.6679688,65.4692383 L51.6679688,66.5800781 L51.6933594,66.5800781 C52.125,65.8056641 52.8676758,65.4057617 53.9277344,65.4057617 C55.4321289,65.4057617 56.3652344,66.3706055 56.3652344,67.9257812 L56.3652344,72.3120117 L55.2607422,72.3120117 L55.2607422,68.1162109 C55.2607422,66.9990234 54.6767578,66.3896484 53.5976562,66.3896484 C52.4741211,66.3896484 51.7314453,67.1640625 51.7314453,68.3383789 L51.7314453,72.3120117 L50.6269531,72.3120117 Z" id="Screen"></path>
                <path d="M4.69268293,34.9126638 L4.69268293,3.6 C4.69268293,1.6117749 6.30445783,-1.85521502e-15 8.29268293,-2.22044605e-15 L65.7073171,-4.4408921e-16 C67.6955422,-4.34111749e-15 69.3073171,1.6117749 69.3073171,3.6 L69.3073171,34.9126638 L72.38,34.9126638 C73.2747013,34.9126638 74,35.6379625 74,36.5326638 L74,39.2 C74,40.1941125 73.1941125,41 72.2,41 L1.8,41 C0.80588745,41 -2.76483619e-15,40.1941125 -2.88657986e-15,39.2 L0,36.5326638 C-1.09569308e-16,35.6379625 0.725298705,34.9126638 1.62,34.9126638 L4.69268293,34.9126638 Z M30.8547236,36.8820961 C30.2614396,36.8820961 29.7804878,37.3630478 29.7804878,37.9563319 C29.7804878,38.5496159 30.2614396,39.0305677 30.8547236,39.0305677 L43.3257642,39.0305677 C43.9190482,39.0305677 44.4,38.5496159 44.4,37.9563319 C44.4,37.3630478 43.9190482,36.8820961 43.3257642,36.8820961 L30.8547236,36.8820961 Z M9.3804878,2.68558952 C8.38637526,2.68558952 7.5804878,3.49147697 7.5804878,4.48558952 L7.5804878,34.9126638 L66.6,34.9126638 L66.6,4.48558952 C66.6,3.49147697 65.7941125,2.68558952 64.8,2.68558952 L9.3804878,2.68558952 Z" id="Combined-Shape"></path>
            </g>
            <g id="Group-29" transform="translate(130.000000, 279.000000)" fill="#444444">
                <path d="M8.50683594,84.34375 L7.37695312,84.34375 L4,75.184082 L5.19970703,75.184082 L7.92285156,82.9536133 L7.9609375,82.9536133 L10.684082,75.184082 L11.8837891,75.184082 L8.50683594,84.34375 Z M15.6098633,84.4072266 C13.6865234,84.4072266 12.4550781,83.0424805 12.4550781,80.9223633 C12.4550781,78.7958984 13.6865234,77.4375 15.6098633,77.4375 C17.5332031,77.4375 18.7646484,78.7958984 18.7646484,80.9223633 C18.7646484,83.0424805 17.5332031,84.4072266 15.6098633,84.4072266 Z M15.6098633,83.4233398 C16.8857422,83.4233398 17.6411133,82.4902344 17.6411133,80.9223633 C17.6411133,79.3481445 16.8857422,78.4213867 15.6098633,78.4213867 C14.3339844,78.4213867 13.5786133,79.3544922 13.5786133,80.9223633 C13.5786133,82.4902344 14.340332,83.4233398 15.6098633,83.4233398 Z M19.9897461,84.34375 L19.9897461,77.5009766 L21.0942383,77.5009766 L21.0942383,84.34375 L19.9897461,84.34375 Z M20.5419922,76.3964844 C20.1611328,76.3964844 19.84375,76.0791016 19.84375,75.6982422 C19.84375,75.3110352 20.1611328,75 20.5419922,75 C20.9291992,75 21.2402344,75.3110352 21.2402344,75.6982422 C21.2402344,76.0791016 20.9291992,76.3964844 20.5419922,76.3964844 Z M28.3115234,79.7290039 L27.2260742,79.7290039 C27.0864258,78.9990234 26.4770508,78.4213867 25.4487305,78.4213867 C24.2553711,78.4213867 23.4428711,79.4116211 23.4428711,80.9223633 C23.4428711,82.4775391 24.2680664,83.4233398 25.4614258,83.4233398 C26.4135742,83.4233398 27.0483398,82.9790039 27.2387695,82.1538086 L28.3242188,82.1538086 C28.1401367,83.4868164 27.0166016,84.4072266 25.4550781,84.4072266 C23.5761719,84.4072266 22.3193359,83.0742188 22.3193359,80.9223633 C22.3193359,78.8212891 23.5698242,77.4375 25.4423828,77.4375 C27.137207,77.4375 28.171875,78.5292969 28.3115234,79.7290039 Z M32.1137695,78.4086914 C31.0410156,78.4086914 30.2666016,79.1894531 30.1904297,80.3447266 L33.9545898,80.3447266 C33.9291992,79.1831055 33.1928711,78.4086914 32.1137695,78.4086914 Z M33.9291992,82.3886719 L35.0209961,82.3886719 C34.8305664,83.5629883 33.6435547,84.4072266 32.1835938,84.4072266 C30.2602539,84.4072266 29.0478516,83.0678711 29.0478516,80.9477539 C29.0478516,78.8276367 30.2666016,77.4375 32.1328125,77.4375 C33.9609375,77.4375 35.1035156,78.7260742 35.1035156,80.7954102 L35.1035156,81.2270508 L30.1904297,81.2270508 L30.1904297,81.2905273 C30.1904297,82.5917969 30.9902344,83.4360352 32.2089844,83.4360352 C33.065918,83.4360352 33.7324219,83.0297852 33.9291992,82.3886719 Z" id="Voice"></path>
                <path d="M20.5,46.2302483 C17.1637706,46.2303039 13.9652305,44.903789 11.6129683,42.544573 C9.26070611,40.185357 7.94891332,36.9882056 7.96819788,33.6613995 L7.96819788,12.496614 C7.96819788,5.59492466 13.5788768,-6.41573576e-16 20.5,0 C27.4211232,6.41573576e-16 33.0318021,5.59492466 33.0318021,12.496614 L33.0318021,33.6613995 C33.0510867,36.9882056 31.7392939,40.185357 29.3870317,42.544573 C27.0347695,44.903789 23.8362294,46.2303039 20.5,46.2302483 Z M0,23.0428894 L4.34628975,23.0428894 L4.34628975,33.7336343 C4.34628989,42.6300315 11.5785523,49.8419862 20.5,49.8419862 C29.4214477,49.8419862 36.6537101,42.6300315 36.6537102,33.7336343 L36.6537102,23.0428894 L41,23.0428894 L41,33.7336343 C40.9850013,44.1736351 33.0835635,52.9248984 22.6731449,54.0316027 L22.6731449,59.6659142 L29.4823322,59.6659142 L29.4823322,64 L11.5176678,64 L11.5176678,59.6659142 L18.3268551,59.6659142 L18.3268551,54.0316027 C7.91643652,52.9248984 0.0149987216,44.1736351 0,33.7336343 L0,23.0428894 Z" id="Combined-Shape" fill-rule="nonzero"></path>
            </g>
            <g id="Group-30" transform="translate(118.000000, 404.000000)">
                <path d="M21.2211914,79.2475586 C23.8173828,79.2475586 25.4423828,81.0756836 25.4423828,83.9829102 C25.4423828,86.8901367 23.8173828,88.7119141 21.2211914,88.7119141 C18.625,88.7119141 17,86.8901367 17,83.9829102 C17,81.0756836 18.625,79.2475586 21.2211914,79.2475586 Z M21.2211914,80.3012695 C19.3486328,80.3012695 18.1743164,81.7231445 18.1743164,83.9829102 C18.1743164,86.2363281 19.3486328,87.6582031 21.2211914,87.6582031 C23.09375,87.6582031 24.2680664,86.2363281 24.2680664,83.9829102 C24.2680664,81.7231445 23.09375,80.3012695 21.2211914,80.3012695 Z M27.0864258,80.1743164 L28.190918,80.1743164 L28.190918,81.7167969 L29.5239258,81.7167969 L29.5239258,82.6308594 L28.190918,82.6308594 L28.190918,86.737793 C28.190918,87.3662109 28.4575195,87.6518555 29.0415039,87.6518555 C29.1748047,87.6518555 29.4414062,87.6328125 29.5175781,87.6201172 L29.5175781,88.5532227 C29.3842773,88.5849609 29.0668945,88.6103516 28.8066406,88.6103516 C27.5688477,88.6103516 27.0864258,88.0961914 27.0864258,86.7822266 L27.0864258,82.6308594 L26.1342773,82.6308594 L26.1342773,81.7167969 L27.0864258,81.7167969 L27.0864258,80.1743164 Z M30.8125,88.5595703 L30.8125,79 L31.9169922,79 L31.9169922,82.8276367 L31.9423828,82.8276367 C32.3676758,82.0532227 33.1293945,81.6533203 34.1767578,81.6533203 C35.6748047,81.6533203 36.684082,82.6689453 36.684082,84.1923828 L36.684082,88.5595703 L35.5795898,88.5595703 L35.5795898,84.3891602 C35.5795898,83.2973633 34.9321289,82.637207 33.8466797,82.637207 C32.6914062,82.637207 31.9169922,83.4243164 31.9169922,84.6240234 L31.9169922,88.5595703 L30.8125,88.5595703 Z M40.8798828,82.6245117 C39.8071289,82.6245117 39.0327148,83.4052734 38.956543,84.5605469 L42.7207031,84.5605469 C42.6953125,83.3989258 41.9589844,82.6245117 40.8798828,82.6245117 Z M42.6953125,86.6044922 L43.7871094,86.6044922 C43.5966797,87.7788086 42.409668,88.6230469 40.949707,88.6230469 C39.0263672,88.6230469 37.8139648,87.2836914 37.8139648,85.1635742 C37.8139648,83.043457 39.0327148,81.6533203 40.8989258,81.6533203 C42.7270508,81.6533203 43.8696289,82.9418945 43.8696289,85.0112305 L43.8696289,85.4428711 L38.956543,85.4428711 L38.956543,85.5063477 C38.956543,86.8076172 39.7563477,87.6518555 40.9750977,87.6518555 C41.8320312,87.6518555 42.4985352,87.2456055 42.6953125,86.6044922 Z M45.03125,88.5595703 L45.03125,81.7167969 L46.0722656,81.7167969 L46.0722656,82.8276367 L46.0976562,82.8276367 C46.3007812,82.1103516 46.9545898,81.6533203 47.7543945,81.6533203 C47.8876953,81.6533203 48.0844727,81.6723633 48.1796875,81.6977539 L48.1796875,82.7895508 C48.0908203,82.7514648 47.7988281,82.7133789 47.6083984,82.7133789 C46.7197266,82.7133789 46.1357422,83.3608398 46.1357422,84.3256836 L46.1357422,88.5595703 L45.03125,88.5595703 Z" id="Other" fill="#444444"></path>
                <g id="Combined-Shape">
                    <use fill="#444444" fill-rule="evenodd" xlink:href="#path-3"></use>
                    <path stroke-opacity="0.5" stroke="#979797" stroke-width="0.5" d="M7,0.25 C3.27207794,0.25 0.25,3.27207794 0.25,7 L0.25,58 C0.25,61.7279221 3.27207794,64.75 7,64.75 L58,64.75 C61.7279221,64.75 64.75,61.7279221 64.75,58 L64.75,7 C64.75,3.27207794 61.7279221,0.25 58,0.25 L7,0.25 Z M29.6209932,24.5917969 L20.0419922,24.5917969 L20.0419922,24.3417969 C20.0419922,17.4467558 25.152596,13.1787109 33.3779297,13.1787109 C41.3209037,13.1787109 46.4697266,17.209142 46.4697266,23.4873047 C46.4697266,27.1227845 44.8307521,29.6188905 41.0214957,31.8098342 C37.6190219,33.754105 36.8017578,34.715147 36.8017578,36.7685547 L36.8017578,38.0439453 L27.6640701,38.0439453 L27.6366962,37.824954 L27.5638241,37.2418465 C26.951483,32.7595095 28.0403624,30.4178903 31.5927548,28.3733481 C35.0215303,26.393351 35.7402344,25.5778984 35.7402344,23.7070312 C35.7402344,22.2355659 34.4876171,21.1982422 32.6943359,21.1982422 C30.9023755,21.1982422 29.6467465,22.4800301 29.6240048,24.3448454 L29.6209932,24.5917969 Z M32.4013672,50.2265625 C29.395714,50.2265625 26.9755859,47.9562144 26.9755859,45.09375 C26.9755859,42.2517144 29.3998834,39.9853516 32.4013672,39.9853516 C35.407239,39.9853516 37.8515625,42.2556455 37.8515625,45.09375 C37.8515625,47.952267 35.4114329,50.2265625 32.4013672,50.2265625 Z"></path>
                </g>
            </g>
            <g id="Group-25" transform="translate(59.000000, 537.000000)">
                <g id="Rectangle-8">
                    <use fill="#7B28D7" fill-rule="evenodd" xlink:href="#path-4"></use>
                    <rect stroke-opacity="0.3" stroke="#000000" stroke-width="1" x="0.5" y="0.5" width="182" height="33" rx="5"></rect>
                </g>
                <path d="M84.1484375,21.796875 L83.1875,18.8828125 L79.0390625,18.8828125 L78.078125,21.796875 L76,21.796875 L80,10.5234375 L82.2734375,10.5234375 L86.2734375,21.796875 L84.1484375,21.796875 Z M81.0859375,12.515625 L79.5078125,17.328125 L82.7109375,17.328125 L81.140625,12.515625 L81.0859375,12.515625 Z M90.5078125,21.890625 C88.375,21.890625 86.953125,20.1796875 86.953125,17.5234375 C86.953125,14.875 88.3828125,13.1640625 90.5,13.1640625 C91.734375,13.1640625 92.6953125,13.75 93.15625,14.6953125 L93.203125,14.6953125 L93.203125,10 L95.1484375,10 L95.1484375,21.796875 L93.2421875,21.796875 L93.2421875,20.34375 L93.203125,20.34375 C92.7421875,21.296875 91.7578125,21.890625 90.5078125,21.890625 Z M91.078125,14.78125 C89.7890625,14.78125 88.9453125,15.859375 88.9453125,17.53125 C88.9453125,19.2109375 89.7890625,20.2734375 91.078125,20.2734375 C92.3671875,20.2734375 93.2109375,19.1875 93.2109375,17.53125 C93.2109375,15.8828125 92.359375,14.78125 91.078125,14.78125 Z M100.046875,21.890625 C97.9140625,21.890625 96.4921875,20.1796875 96.4921875,17.5234375 C96.4921875,14.875 97.921875,13.1640625 100.039062,13.1640625 C101.273438,13.1640625 102.234375,13.75 102.695312,14.6953125 L102.742188,14.6953125 L102.742188,10 L104.6875,10 L104.6875,21.796875 L102.78125,21.796875 L102.78125,20.34375 L102.742188,20.34375 C102.28125,21.296875 101.296875,21.890625 100.046875,21.890625 Z M100.617188,14.78125 C99.328125,14.78125 98.484375,15.859375 98.484375,17.53125 C98.484375,19.2109375 99.328125,20.2734375 100.617188,20.2734375 C101.90625,20.2734375 102.75,19.1875 102.75,17.53125 C102.75,15.8828125 101.898438,14.78125 100.617188,14.78125 Z" id="Add" fill="#FFFFFF"></path>
                <path d="M84.1484375,21.796875 L83.1875,18.8828125 L79.0390625,18.8828125 L78.078125,21.796875 L76,21.796875 L80,10.5234375 L82.2734375,10.5234375 L86.2734375,21.796875 L84.1484375,21.796875 Z M81.0859375,12.515625 L79.5078125,17.328125 L82.7109375,17.328125 L81.140625,12.515625 L81.0859375,12.515625 Z M90.5078125,21.890625 C88.375,21.890625 86.953125,20.1796875 86.953125,17.5234375 C86.953125,14.875 88.3828125,13.1640625 90.5,13.1640625 C91.734375,13.1640625 92.6953125,13.75 93.15625,14.6953125 L93.203125,14.6953125 L93.203125,10 L95.1484375,10 L95.1484375,21.796875 L93.2421875,21.796875 L93.2421875,20.34375 L93.203125,20.34375 C92.7421875,21.296875 91.7578125,21.890625 90.5078125,21.890625 Z M91.078125,14.78125 C89.7890625,14.78125 88.9453125,15.859375 88.9453125,17.53125 C88.9453125,19.2109375 89.7890625,20.2734375 91.078125,20.2734375 C92.3671875,20.2734375 93.2109375,19.1875 93.2109375,17.53125 C93.2109375,15.8828125 92.359375,14.78125 91.078125,14.78125 Z M100.046875,21.890625 C97.9140625,21.890625 96.4921875,20.1796875 96.4921875,17.5234375 C96.4921875,14.875 97.921875,13.1640625 100.039062,13.1640625 C101.273438,13.1640625 102.234375,13.75 102.695312,14.6953125 L102.742188,14.6953125 L102.742188,10 L104.6875,10 L104.6875,21.796875 L102.78125,21.796875 L102.78125,20.34375 L102.742188,20.34375 C102.28125,21.296875 101.296875,21.890625 100.046875,21.890625 Z M100.617188,14.78125 C99.328125,14.78125 98.484375,15.859375 98.484375,17.53125 C98.484375,19.2109375 99.328125,20.2734375 100.617188,20.2734375 C101.90625,20.2734375 102.75,19.1875 102.75,17.53125 C102.75,15.8828125 101.898438,14.78125 100.617188,14.78125 Z" id="Add" fill="#FFFFFF"></path>
            </g>
        </g>
    </g>
</svg>