<?xml version="1.0" encoding="UTF-8"?>
<svg width="130px" height="130px" viewBox="0 0 130 130" version="1.1" xmlns="http://www.w3.org/2000/svg" xmlns:xlink="http://www.w3.org/1999/xlink">
    <!-- Generator: Sketch 49.3 (51167) - http://www.bohemiancoding.com/sketch -->
    <title>Desktop HD Copy 9</title>
    <desc>Created with Sketch.</desc>
    <defs></defs>
    <g id="Page-1" stroke="none" stroke-width="1" fill="none" fill-rule="evenodd">
        <g id="Desktop-HD-Copy-7" transform="translate(-539.000000, -3387.000000)">
            <text id="Adobe-XD" font-family="Poppins-Regular, Poppins" font-size="24" font-weight="normal" line-spacing="42" letter-spacing="-0.00260000001" fill="#666666">
                <tspan x="545.2224" y="3541">Adobe XD</tspan>
            </text>
            <g id="adobe-xd" transform="translate(556.000000, 3405.000000)" fill-rule="nonzero">
                <path d="M15.25,4 L80.75,4 C86.9632034,4 92,9.03679656 92,15.25 L92,78.75 C92,84.9632034 86.9632034,90 80.75,90 L15.25,90 C9.03679656,90 4,84.9632034 4,78.75 L4,15.25 C4,9.03679656 9.03679656,4 15.25,4 Z" id="Shape" fill="#2E001E"></path>
                <path d="M0,13.875 L0,80.125 C9.3844083e-16,87.7879509 6.2120491,94 13.875,94 L82.125,94 C89.7879509,94 96,87.7879509 96,80.125 L96,13.875 C96,6.2120491 89.7879509,-1.40766124e-15 82.125,0 L13.875,3.55271368e-15 C6.2120491,4.96037492e-15 -9.3844083e-16,6.2120491 0,13.875 Z M15.25,4.01709402 L80.75,4.01709402 C86.9632034,4.01709402 92,9.05389058 92,15.267094 L92,78.732906 C92,84.9461094 86.9632034,89.982906 80.75,89.982906 L15.25,89.982906 C9.03679656,89.982906 4,84.9461094 4,78.732906 L4,15.267094 C4,9.05389058 9.03679656,4.01709402 15.25,4.01709402 Z" id="Shape" fill="#FF2BC2"></path>
                <path d="M69.5697535,39.2770642 C68.97054,38.9944954 68.2115364,38.8733945 67.2527949,38.8733945 C62.2194021,38.8733945 58.8638068,42.7889908 58.8638068,49.2880734 C58.8638068,56.7155963 62.2992972,59.7027523 66.7734241,59.7027523 C67.7321656,59.7027523 68.7708022,59.5816514 69.5298059,59.2587156 L69.5298059,39.2770642 L69.5697535,39.2770642 Z M51.6732457,49.6110092 C51.6732457,40.2055046 57.66538,32.8587156 67.4924802,32.8587156 C68.331379,32.8587156 68.7708022,32.8587156 69.5697535,32.9394495 L69.5697535,22.4440367 C69.5697535,22.2018349 69.7694913,22.040367 69.9692291,22.040367 L76.4007866,22.040367 C76.7203671,22.040367 76.8002622,22.1614679 76.8002622,22.3633028 L76.8002622,59.2587156 C76.8002622,60.3486239 76.8002622,61.7211009 77,63.2146789 C77,63.4972477 77,63.5376147 76.7603146,63.6587156 C73.4047194,65.2733945 69.889334,66 66.5337388,66 C57.8651178,66 51.6732457,60.5908257 51.6732457,49.6110092 Z M38.051127,43.0715596 L49.2364444,64.9908257 C49.4361822,65.3137615 49.3163395,65.6366972 48.996759,65.6366972 L42.0458832,65.6366972 C41.6064601,65.6366972 41.4067222,65.5155963 41.2069844,65.1119266 C38.6503405,59.7834862 36.0537489,54.253211 33.3772623,48.5211009 L33.2973672,48.5211009 C30.9005134,53.9302752 28.2639743,59.8238532 25.7073304,65.1522936 C25.5075926,65.4752294 25.3078547,65.5963303 24.9882743,65.5963303 L18.356979,65.5963303 C17.9575033,65.5963303 17.9175558,65.2733945 18.1172936,65.0311927 L29.0629256,43.7577982 L18.4768216,22.6055046 C18.2371363,22.2825688 18.4768216,22 18.7564546,22 L25.6274352,22 C26.0269109,22 26.2266487,22.0807339 26.3464914,22.4440367 C28.8631878,27.812844 31.4198317,33.1009174 33.8166855,38.5100917 L33.8965806,38.5100917 C36.2135392,33.1816514 38.7701831,27.812844 41.2069844,22.5247706 C41.4067222,22.2018349 41.5265649,22 41.9260405,22 L48.357598,22 C48.6771785,22 48.7970212,22.2422018 48.5972834,22.6055046 L38.051127,43.0715596 Z" id="Shape" fill="#FFD9F2"></path>
            </g>
        </g>
    </g>
</svg>