<svg xmlns="http://www.w3.org/2000/svg" xmlns:xlink="http://www.w3.org/1999/xlink" width="730" height="246" viewBox="0 0 730 246">
    <defs>
        <path id="b" d="M513.354 379c13.074 0 26.15 4.49 38.892 13.469l4.826 3.401V527H405V379.798l17.983 12.67c17.6 12.402 33.874 12.402 51.476 0C487.204 383.49 500.278 379 513.354 379zm160.034 18.38v23.4h-51.505v27.18h38.539v23.4h-38.539v52.38H591.09V397.38h82.299zm52.045-6.84v133.2h-30.795v-133.2h30.795zm126.06 32.76v100.44h-30.795v-14.76c-3.001 4.92-7.113 8.79-12.336 11.61-5.222 2.82-11.255 4.23-18.099 4.23-7.563 0-14.256-1.71-20.08-5.13-5.822-3.42-10.384-8.37-13.686-14.85-3.301-6.48-4.952-14.1-4.952-22.86V423.3h30.615v54.54c0 6.48 1.71 11.49 5.132 15.03 3.422 3.54 8.134 5.31 14.137 5.31s10.715-1.77 14.137-5.31c3.421-3.54 5.132-8.55 5.132-15.03V423.3h30.795zm24.311-24.12c0-5.16 1.741-9.48 5.223-12.96 3.481-3.48 7.743-5.22 12.786-5.22 5.042 0 9.304 1.74 12.786 5.22 3.482 3.48 5.222 7.8 5.222 12.96 0 5.04-1.74 9.3-5.222 12.78-3.482 3.48-7.744 5.22-12.786 5.22-5.043 0-9.305-1.74-12.786-5.22-3.482-3.48-5.223-7.74-5.223-12.78zM909.3 423.3v100.44h-30.795V423.3H909.3zm65.371-1.08c12.846 0 22.691 4.74 29.534 14.22v-45.9H1035v133.2h-30.795v-14.58c-7.443 10.56-17.288 15.84-29.534 15.84-8.284 0-15.937-2.16-22.96-6.48-7.024-4.32-12.577-10.38-16.659-18.18-4.082-7.8-6.123-16.68-6.123-26.64s2.041-18.84 6.123-26.64c4.082-7.8 9.635-13.89 16.658-18.27 7.024-4.38 14.677-6.57 22.961-6.57zm7.564 26.64c-3.602 0-7.113.93-10.535 2.79-3.422 1.86-6.183 4.65-8.284 8.37-2.101 3.72-3.152 8.28-3.152 13.68s1.05 9.93 3.152 13.59c2.1 3.66 4.832 6.42 8.194 8.28 3.361 1.86 6.903 2.79 10.625 2.79 3.602 0 7.113-.93 10.535-2.79 3.422-1.86 6.183-4.65 8.284-8.37 2.1-3.72 3.151-8.28 3.151-13.68s-1.05-9.93-3.151-13.59-4.832-6.42-8.194-8.28c-3.362-1.86-6.903-2.79-10.625-2.79zm-496.236-31.053c-10.654 7.536-21.587 11.303-32.517 11.305-5.842 0-11.683-1.077-17.482-3.229V496h89v-80.804c-13.194-7.71-25.64-6.84-39.001 2.61z"/>
        <filter id="a" width="123.8%" height="201.4%" x="-11.9%" y="-50.7%" filterUnits="objectBoundingBox">
            <feOffset in="SourceAlpha" result="shadowOffsetOuter1"/>
            <feGaussianBlur in="shadowOffsetOuter1" result="shadowBlurOuter1" stdDeviation="25"/>
            <feColorMatrix in="shadowBlurOuter1" values="0 0 0 0 0.670838648 0 0 0 0 0.670838648 0 0 0 0 0.670838648 0 0 0 0.5 0"/>
        </filter>
    </defs>
    <g fill="none" fill-rule="evenodd" transform="translate(-355 -331)">
        <use fill="#000" filter="url(#a)" xlink:href="#b"/>
        <use fill="#FFF" xlink:href="#b"/>
    </g>
</svg>
