<?xml version="1.0" encoding="utf-8"?>
<!-- Generator: Adobe Illustrator 22.1.0, SVG Export Plug-In . SVG Version: 6.00 Build 0)  -->
<svg version="1.1" id="Layer_1" xmlns="http://www.w3.org/2000/svg" xmlns:xlink="http://www.w3.org/1999/xlink" x="0px" y="0px"
	 viewBox="0 0 730 246" style="enable-background:new 0 0 730 246;" xml:space="preserve">
<style type="text/css">
	.st0{filter:url(#a);}
	.st1{fill:#FFFFFF;}
</style>
<filter  filterUnits="objectBoundingBox" height="201.4%" id="a" width="123.8%" x="-11.9%" y="-50.7%">
	<feOffset  in="SourceAlpha" result="shadowOffsetOuter1"></feOffset>
	<feGaussianBlur  in="shadowOffsetOuter1" result="shadowBlurOuter1" stdDeviation="25"></feGaussianBlur>
	<feColorMatrix  in="shadowBlurOuter1" values="0 0 0 0 0.670838648 0 0 0 0 0.670838648 0 0 0 0 0.670838648 0 0 0 0.5 0">
		</feColorMatrix>
</filter>
<g transform="translate(-355 -331)">
	<g class="st0">
		<path id="b_2_" d="M513.4,379c13.1,0,26.2,4.5,38.9,13.5l4.8,3.4V527H405V379.8l18,12.7c17.6,12.4,33.9,12.4,51.5,0
			C487.2,383.5,500.3,379,513.4,379z M673.4,397.4v23.4h-51.5V448h38.5v23.4h-38.5v52.4h-30.8V397.4H673.4L673.4,397.4z
			 M725.4,390.5v133.2h-30.8V390.5L725.4,390.5L725.4,390.5z M851.5,423.3v100.4h-30.8V509c-3,4.9-7.1,8.8-12.3,11.6
			c-5.2,2.8-11.3,4.2-18.1,4.2c-7.6,0-14.3-1.7-20.1-5.1c-5.8-3.4-10.4-8.4-13.7-14.9c-3.3-6.5-5-14.1-5-22.9v-58.7h30.6v54.5
			c0,6.5,1.7,11.5,5.1,15s8.1,5.3,14.1,5.3s10.7-1.8,14.1-5.3c3.4-3.5,5.1-8.5,5.1-15v-54.5L851.5,423.3L851.5,423.3z M875.8,399.2
			c0-5.2,1.7-9.5,5.2-13c3.5-3.5,7.7-5.2,12.8-5.2c5,0,9.3,1.7,12.8,5.2s5.2,7.8,5.2,13c0,5-1.7,9.3-5.2,12.8s-7.7,5.2-12.8,5.2
			c-5,0-9.3-1.7-12.8-5.2C877.5,408.5,875.8,404.2,875.8,399.2z M909.3,423.3v100.4h-30.8V423.3H909.3z M974.7,422.2
			c12.8,0,22.7,4.7,29.5,14.2v-45.9h30.8v133.2h-30.8v-14.6c-7.4,10.6-17.3,15.8-29.5,15.8c-8.3,0-15.9-2.2-23-6.5
			c-7-4.3-12.6-10.4-16.7-18.2s-6.1-16.7-6.1-26.6s2-18.8,6.1-26.6c4.1-7.8,9.6-13.9,16.7-18.3C958.7,424.4,966.4,422.2,974.7,422.2
			z M982.2,448.9c-3.6,0-7.1,0.9-10.5,2.8c-3.4,1.9-6.2,4.6-8.3,8.4s-3.2,8.3-3.2,13.7s1,9.9,3.2,13.6c2.1,3.7,4.8,6.4,8.2,8.3
			c3.4,1.9,6.9,2.8,10.6,2.8c3.6,0,7.1-0.9,10.5-2.8c3.4-1.9,6.2-4.6,8.3-8.4c2.1-3.7,3.2-8.3,3.2-13.7s-1-9.9-3.2-13.6
			s-4.8-6.4-8.2-8.3S986,448.9,982.2,448.9L982.2,448.9z M486,417.8c-10.7,7.5-21.6,11.3-32.5,11.3c-5.8,0-11.7-1.1-17.5-3.2V496h89
			v-80.8C511.8,407.5,499.4,408.4,486,417.8L486,417.8z"/>
	</g>
	<g>
		<path id="b_1_" class="st1" d="M513.4,379c13.1,0,26.2,4.5,38.9,13.5l4.8,3.4V527H405V379.8l18,12.7c17.6,12.4,33.9,12.4,51.5,0
			C487.2,383.5,500.3,379,513.4,379z M673.4,397.4v23.4h-51.5V448h38.5v23.4h-38.5v52.4h-30.8V397.4H673.4L673.4,397.4z
			 M725.4,390.5v133.2h-30.8V390.5L725.4,390.5L725.4,390.5z M851.5,423.3v100.4h-30.8V509c-3,4.9-7.1,8.8-12.3,11.6
			c-5.2,2.8-11.3,4.2-18.1,4.2c-7.6,0-14.3-1.7-20.1-5.1c-5.8-3.4-10.4-8.4-13.7-14.9c-3.3-6.5-5-14.1-5-22.9v-58.7h30.6v54.5
			c0,6.5,1.7,11.5,5.1,15s8.1,5.3,14.1,5.3s10.7-1.8,14.1-5.3c3.4-3.5,5.1-8.5,5.1-15v-54.5L851.5,423.3L851.5,423.3z M875.8,399.2
			c0-5.2,1.7-9.5,5.2-13c3.5-3.5,7.7-5.2,12.8-5.2c5,0,9.3,1.7,12.8,5.2s5.2,7.8,5.2,13c0,5-1.7,9.3-5.2,12.8s-7.7,5.2-12.8,5.2
			c-5,0-9.3-1.7-12.8-5.2C877.5,408.5,875.8,404.2,875.8,399.2z M909.3,423.3v100.4h-30.8V423.3H909.3z M974.7,422.2
			c12.8,0,22.7,4.7,29.5,14.2v-45.9h30.8v133.2h-30.8v-14.6c-7.4,10.6-17.3,15.8-29.5,15.8c-8.3,0-15.9-2.2-23-6.5
			c-7-4.3-12.6-10.4-16.7-18.2s-6.1-16.7-6.1-26.6s2-18.8,6.1-26.6c4.1-7.8,9.6-13.9,16.7-18.3C958.7,424.4,966.4,422.2,974.7,422.2
			z M982.2,448.9c-3.6,0-7.1,0.9-10.5,2.8c-3.4,1.9-6.2,4.6-8.3,8.4s-3.2,8.3-3.2,13.7s1,9.9,3.2,13.6c2.1,3.7,4.8,6.4,8.2,8.3
			c3.4,1.9,6.9,2.8,10.6,2.8c3.6,0,7.1-0.9,10.5-2.8c3.4-1.9,6.2-4.6,8.3-8.4c2.1-3.7,3.2-8.3,3.2-13.7s-1-9.9-3.2-13.6
			s-4.8-6.4-8.2-8.3S986,448.9,982.2,448.9L982.2,448.9z M486,417.8c-10.7,7.5-21.6,11.3-32.5,11.3c-5.8,0-11.7-1.1-17.5-3.2V496h89
			v-80.8C511.8,407.5,499.4,408.4,486,417.8L486,417.8z"/>
	</g>
</g>
</svg>
