<?xml version="1.0" encoding="UTF-8"?>
<svg width="152px" height="148px" viewBox="0 0 152 148" version="1.1" xmlns="http://www.w3.org/2000/svg" xmlns:xlink="http://www.w3.org/1999/xlink">
    <!-- Generator: Sketch 49.3 (51167) - http://www.bohemiancoding.com/sketch -->
    <title>Combined Shape</title>
    <desc>Created with Sketch.</desc>
    <defs></defs>
    <g id="Page-1" stroke="none" stroke-width="1" fill="none" fill-rule="evenodd">
        <g id="Desktop-HD-Copy-7" transform="translate(-1044.000000, -42192.000000)" fill="#91DF3C">
            <path d="M1152.30202,42192 C1165.36981,42192 1178.43934,42196.4902 1191.17606,42205.4689 L1196,42208.8703 L1196,42340 L1044,42340 L1044,42192.798 L1061.97493,42205.4689 C1079.5668,42217.8697 1095.83264,42217.8697 1113.42624,42205.4689 C1126.16469,42196.4902 1139.23249,42192 1152.30202,42192 Z M1122,42277.3464 C1134.23349,42277.3464 1144.15068,42267.4191 1144.15068,42255.1732 C1144.15068,42242.9273 1134.23349,42233 1122,42233 C1109.76651,42233 1099.84932,42242.9273 1099.84932,42255.1732 C1099.84932,42267.4191 1109.76651,42277.3464 1122,42277.3464 Z M1155,42314 C1155,42295.7561 1140.2254,42280.9665 1122,42280.9665 C1103.7746,42280.9665 1089,42295.7561 1089,42314 C1110.56208,42314 1132.26315,42314 1155,42314 Z" id="Combined-Shape"></path>
        </g>
    </g>
</svg>