<?xml version="1.0" encoding="UTF-8"?>
<svg width="324px" height="324px" viewBox="0 0 324 324" version="1.1" xmlns="http://www.w3.org/2000/svg" xmlns:xlink="http://www.w3.org/1999/xlink">
    <!-- Generator: Sketch 49.3 (51167) - http://www.bohemiancoding.com/sketch -->
    <title>Group 37</title>
    <desc>Created with Sketch.</desc>
    <defs>
        <rect id="path-1" x="0" y="0" width="300" height="300" rx="12"></rect>
        <filter x="-6.0%" y="-6.0%" width="112.0%" height="112.0%" filterUnits="objectBoundingBox" id="filter-2">
            <feOffset dx="0" dy="0" in="SourceAlpha" result="shadowOffsetOuter1"></feOffset>
            <feGaussianBlur stdDeviation="6" in="shadowOffsetOuter1" result="shadowBlurOuter1"></feGaussianBlur>
            <feColorMatrix values="0 0 0 0 0.543925383   0 0 0 0 0.543925383   0 0 0 0 0.543925383  0 0 0 0.5 0" type="matrix" in="shadowBlurOuter1"></feColorMatrix>
        </filter>
    </defs>
    <g id="Page-1" stroke="none" stroke-width="1" fill="none" fill-rule="evenodd">
        <g id="Group-37" transform="translate(12.000000, 12.000000)">
            <g id="Rectangle-Copy-9">
                <use fill="black" fill-opacity="1" filter="url(#filter-2)" xlink:href="#path-1"></use>
                <use fill="#FFFFFF" fill-rule="evenodd" xlink:href="#path-1"></use>
            </g>
            <path d="M242.636364,136.941176 L220.818182,136.941176 C218.409455,136.941176 216.454545,138.886941 216.454545,141.294118 L216.454545,176.117647 C216.454545,178.524824 214.499636,180.470588 212.090909,180.470588 C209.682182,180.470588 207.727273,178.524824 207.727273,176.117647 L207.727273,89.0588235 C207.727273,81.846 201.866909,76 194.636364,76 C187.405818,76 181.545455,81.846 181.545455,89.0588235 L181.545455,210.941176 C181.545455,213.348353 179.590545,215.294118 177.181818,215.294118 C174.773091,215.294118 172.818182,213.348353 172.818182,210.941176 L172.818182,102.117647 C172.818182,94.9048235 166.957818,89.0588235 159.727273,89.0588235 C152.496727,89.0588235 146.636364,94.9048235 146.636364,102.117647 L146.636364,163.058824 C146.636364,165.466 144.681455,167.411765 142.272727,167.411765 C139.864,167.411765 137.909091,165.466 137.909091,163.058824 L137.909091,89.0588235 C137.909091,81.846 132.048727,76 124.818182,76 C117.587636,76 111.727273,81.846 111.727273,89.0588235 L111.727273,193.529412 C111.727273,195.936588 109.772364,197.882353 107.363636,197.882353 C104.954909,197.882353 103,195.936588 103,193.529412 L103,123.882353 C103,116.669529 97.1396364,110.823529 89.9090909,110.823529 C82.6785455,110.823529 76.8181818,116.669529 76.8181818,123.882353 L76.8181818,136.941176 L59.3636364,136.941176 C56.9549091,136.941176 55,138.886941 55,141.294118 C55,143.701294 56.9549091,145.647059 59.3636364,145.647059 L81.1818182,145.647059 C83.5905455,145.647059 85.5454545,143.701294 85.5454545,141.294118 L85.5454545,123.882353 C85.5454545,121.475176 87.5003636,119.529412 89.9090909,119.529412 C92.3178182,119.529412 94.2727273,121.475176 94.2727273,123.882353 L94.2727273,193.529412 C94.2727273,200.742235 100.133091,206.588235 107.363636,206.588235 C114.594182,206.588235 120.454545,200.742235 120.454545,193.529412 L120.454545,89.0588235 C120.454545,86.6516471 122.409455,84.7058824 124.818182,84.7058824 C127.226909,84.7058824 129.181818,86.6516471 129.181818,89.0588235 L129.181818,163.058824 C129.181818,170.271647 135.042182,176.117647 142.272727,176.117647 C149.503273,176.117647 155.363636,170.271647 155.363636,163.058824 L155.363636,102.117647 C155.363636,99.7104706 157.318545,97.7647059 159.727273,97.7647059 C162.136,97.7647059 164.090909,99.7104706 164.090909,102.117647 L164.090909,210.941176 C164.090909,218.154 169.951273,224 177.181818,224 C184.412364,224 190.272727,218.154 190.272727,210.941176 L190.272727,89.0588235 C190.272727,86.6516471 192.227636,84.7058824 194.636364,84.7058824 C197.045091,84.7058824 199,86.6516471 199,89.0588235 L199,176.117647 C199,183.330471 204.860364,189.176471 212.090909,189.176471 C219.321455,189.176471 225.181818,183.330471 225.181818,176.117647 L225.181818,145.647059 L242.636364,145.647059 C245.045091,145.647059 247,143.701294 247,141.294118 C247,138.886941 245.045091,136.941176 242.636364,136.941176 Z" id="Shape" fill="#F5B76F" fill-rule="nonzero"></path>
        </g>
    </g>
</svg>