<?xml version="1.0" encoding="UTF-8"?>
<svg width="324px" height="324px" viewBox="0 0 324 324" version="1.1" xmlns="http://www.w3.org/2000/svg" xmlns:xlink="http://www.w3.org/1999/xlink">
    <!-- Generator: Sketch 49.3 (51167) - http://www.bohemiancoding.com/sketch -->
    <title>Group 36</title>
    <desc>Created with Sketch.</desc>
    <defs>
        <rect id="path-1" x="0" y="0" width="300" height="300" rx="12"></rect>
        <filter x="-6.0%" y="-6.0%" width="112.0%" height="112.0%" filterUnits="objectBoundingBox" id="filter-2">
            <feOffset dx="0" dy="0" in="SourceAlpha" result="shadowOffsetOuter1"></feOffset>
            <feGaussianBlur stdDeviation="6" in="shadowOffsetOuter1" result="shadowBlurOuter1"></feGaussianBlur>
            <feColorMatrix values="0 0 0 0 0.543925383   0 0 0 0 0.543925383   0 0 0 0 0.543925383  0 0 0 0.5 0" type="matrix" in="shadowBlurOuter1"></feColorMatrix>
        </filter>
    </defs>
    <g id="Page-1" stroke="none" stroke-width="1" fill="none" fill-rule="evenodd">
        <g id="Group-36" transform="translate(12.000000, 12.000000)">
            <g id="Rectangle-Copy-8">
                <use fill="black" fill-opacity="1" filter="url(#filter-2)" xlink:href="#path-1"></use>
                <use fill="#FFFFFF" fill-rule="evenodd" xlink:href="#path-1"></use>
            </g>
            <g id="Group-34" transform="translate(37.000000, 75.000000)" fill="#F56F6F">
                <path d="M74.8570266,55.7804978 C73.8160563,56.2899088 72.6754357,56.6885724 71.4351307,56.9765003 C72.6754357,57.2644283 73.8160563,57.6630918 74.8570266,58.1725028 L86.9167183,64.3850712 C87.4261293,64.6287026 87.7915708,64.9387742 88.0130539,65.3152954 C88.2345369,65.6918165 88.3452768,66.101554 88.3452768,66.5445201 L88.3452768,72.3916434 L62,58.6376149 L62,55.3153858 L88.3452768,41.5945796 L88.3452768,47.4417028 C88.3452768,47.8846689 88.2345369,48.2888694 88.0130539,48.6543164 C87.7915708,49.0197634 87.4261293,49.335372 86.9167183,49.6011517 L74.8570266,55.7804978 Z M105.285766,79.4679913 C104.909245,80.4868134 104.305713,81.2509184 103.475151,81.7603294 C102.64459,82.2697404 101.79743,82.5244421 100.933646,82.5244421 L97.4453053,82.5244421 L116.847123,32.8903393 C117.201496,31.9601105 117.744121,31.2458384 118.475015,30.7475015 C119.20591,30.2491647 120.058606,30 121.033132,30 L124.554695,30 L105.285766,79.4679913 Z M160,55.3153858 L160,58.6376149 L133.654723,72.3916434 L133.654723,66.5445201 C133.654723,66.101554 133.765463,65.6918165 133.986946,65.3152954 C134.208429,64.9387742 134.573871,64.6287026 135.083282,64.3850712 L147.142973,58.1725028 C148.183944,57.6630918 149.324564,57.2644283 150.564869,56.9765003 C149.324564,56.6885724 148.183944,56.2899088 147.142973,55.7804978 L135.083282,49.6011517 C134.573871,49.335372 134.208429,49.0197634 133.986946,48.6543164 C133.765463,48.2888694 133.654723,47.8846689 133.654723,47.4417028 L133.654723,41.5945796 L160,55.3153858 Z" id="&lt;/&gt;"></path>
                <path d="M14.0780488,104.737991 L14.0780488,10.8 C14.0780488,4.8353247 18.9133735,-4.23337744e-15 24.8780488,-5.32907052e-15 L197.121951,0 C203.086627,-1.09569308e-15 207.921951,4.8353247 207.921951,10.8 L207.921951,104.737991 L217.14,104.737991 C219.824104,104.737991 222,106.913887 222,109.597991 L222,117.6 C222,120.582338 219.582338,123 216.6,123 L5.4,123 C2.41766235,123 -7.1921292e-15,120.582338 -8.8817842e-15,117.6 L0,109.597991 C-3.28707923e-16,106.913887 2.17589612,104.737991 4.86,104.737991 L14.0780488,104.737991 Z M92.5641708,110.646288 C90.7843187,110.646288 89.3414634,112.089143 89.3414634,113.868996 C89.3414634,115.648848 90.7843187,117.091703 92.5641708,117.091703 L129.977293,117.091703 C131.757145,117.091703 133.2,115.648848 133.2,113.868996 C133.2,112.089143 131.757145,110.646288 129.977293,110.646288 L92.5641708,110.646288 Z M28.1414634,8.05676856 C25.1591258,8.05676856 22.7414634,10.4744309 22.7414634,13.4567686 L22.7414634,104.737991 L199.8,104.737991 L199.8,13.4567686 C199.8,10.4744309 197.382338,8.05676856 194.4,8.05676856 L28.1414634,8.05676856 Z" id="Combined-Shape"></path>
            </g>
        </g>
    </g>
</svg>