<?xml version="1.0" encoding="UTF-8"?>
<svg width="130px" height="130px" viewBox="0 0 130 130" version="1.1" xmlns="http://www.w3.org/2000/svg" xmlns:xlink="http://www.w3.org/1999/xlink">
    <!-- Generator: Sketch 49.3 (51167) - http://www.bohemiancoding.com/sketch -->
    <title>googleassitant.svg</title>
    <desc>Created with Sketch.</desc>
    <defs></defs>
    <g id="Page-1" stroke="none" stroke-width="1" fill="none" fill-rule="evenodd">
        <g id="Desktop-HD-Copy-7" transform="translate(-1016.000000, -4991.000000)" fill-rule="nonzero">
            <g id="Google_Assistant_logo" transform="translate(1031.000000, 5008.000000)">
                <circle id="Oval" fill="#4285F4" cx="30.5210937" cy="30.6064453" r="30.5210937"></circle>
                <path d="M100,33.5839844 C100,37.0105469 97.221875,39.7875 93.7964844,39.7875 C90.3710938,39.7875 87.5929687,37.0105469 87.5929687,33.5839844 C87.5929687,30.1576172 90.3710938,27.3804687 93.7964844,27.3804687 C97.221875,27.3804687 100,30.1576172 100,33.5839844 Z" id="Shape" fill="#34A853"></path>
                <path d="M88.8337891,48.7205078 C88.8337891,55.5722656 83.2794922,61.1271484 76.4269531,61.1271484 C69.5738281,61.1271484 64.0199219,55.5722656 64.0199219,48.7205078 C64.0199219,41.8683594 69.5740234,36.3134766 76.4269531,36.3134766 C83.2796875,36.3134766 88.8337891,41.8685547 88.8337891,48.7205078 Z" id="Shape" fill="#EA4335"></path>
                <path d="M91.3150391,80.7302734 C91.3150391,88.9529297 84.6501953,95.6179687 76.4267578,95.6179687 C68.2033203,95.6179687 61.5382813,88.9529297 61.5382813,80.7302734 C61.5382813,72.5080078 68.203125,65.8421875 76.4267578,65.8421875 C84.6501953,65.8421875 91.3150391,72.5080078 91.3150391,80.7302734 Z" id="Shape" fill="#FBBC05"></path>
            </g>
        </g>
    </g>
</svg>