<?xml version="1.0" encoding="UTF-8"?>
<svg width="200px" height="200px" viewBox="0 0 200 200" version="1.1" xmlns="http://www.w3.org/2000/svg" xmlns:xlink="http://www.w3.org/1999/xlink">
    <!-- Generator: Sketch 49.3 (51167) - http://www.bohemiancoding.com/sketch -->
    <title>historygame</title>
    <desc>Created with Sketch.</desc>
    <defs></defs>
    <g id="Page-1" stroke="none" stroke-width="1" fill="none" fill-rule="evenodd">
        <g id="Desktop-HD-Copy-7" transform="translate(-714.000000, -2373.000000)" fill="#000000">
            <path d="M872.93905,2464.16161 C868.972645,2464.16161 865.909005,2460.91928 865.909005,2457.13018 C865.909005,2453.34971 869.155118,2450.10835 872.93905,2450.10835 C876.905455,2450.10835 879.968134,2453.34971 879.968134,2457.13018 C879.968134,2460.91928 876.905455,2464.16161 872.93905,2464.16161 M859.772122,2477.31315 C855.805717,2477.31315 852.742077,2474.07083 852.742077,2470.28173 C852.742077,2466.31996 855.988191,2463.25989 859.772122,2463.25989 C863.738527,2463.25989 866.81177,2466.50126 866.81177,2470.28173 C866.81177,2474.07083 863.738527,2477.31315 859.772122,2477.31315 M846.787668,2464.16161 C842.821263,2464.16161 839.757623,2460.91928 839.757623,2457.13018 C839.757623,2453.34971 843.003736,2450.10835 846.787668,2450.10835 C850.753112,2450.10835 853.827316,2453.34971 853.827316,2457.13018 C853.827316,2460.91928 850.753112,2464.16161 846.787668,2464.16161 M859.953635,2437.12947 C863.92004,2437.12947 866.98464,2440.37179 866.98464,2444.16089 C866.98464,2448.12267 863.738527,2451.18273 859.953635,2451.18273 C855.988191,2451.18273 852.924551,2447.9404 852.924551,2444.16089 C852.924551,2440.19912 856.170664,2437.12947 859.953635,2437.12947 M781.212332,2464.16161 C777.245927,2464.16161 774.172684,2460.91928 774.172684,2457.13018 C774.172684,2453.34971 777.245927,2450.10835 781.212332,2450.10835 C784.996264,2450.10835 788.242377,2453.34971 788.242377,2457.13018 C788.242377,2460.91928 785.178737,2464.16161 781.212332,2464.16161 M768.227878,2477.31315 C764.261473,2477.31315 761.18823,2474.07083 761.18823,2470.28173 C761.18823,2466.50126 764.261473,2463.25989 768.227878,2463.25989 C772.011809,2463.25989 775.257923,2466.31996 775.257923,2470.28173 C775.257923,2474.07083 772.194283,2477.31315 768.227878,2477.31315 M755.06095,2464.16161 C751.094545,2464.16161 748.030906,2460.91928 748.030906,2457.13018 C748.030906,2453.34971 751.094545,2450.10835 755.06095,2450.10835 C758.844882,2450.10835 762.090995,2453.34971 762.090995,2457.13018 C762.090995,2460.91928 759.027355,2464.16161 755.06095,2464.16161 M768.045404,2437.12947 C771.829336,2437.12947 775.075449,2440.19912 775.075449,2444.16089 C775.075449,2447.9404 772.011809,2451.18273 768.045404,2451.18273 C764.261473,2451.18273 761.01536,2448.12267 761.01536,2444.16089 C761.01536,2440.37179 764.078999,2437.12947 768.045404,2437.12947 M894.903137,2503.62584 C894.83591,2502.61861 894.729307,2501.5922 894.605417,2500.55523 C893.548989,2491.82686 892.377315,2483.10712 891.089434,2474.41521 C889.927364,2466.53099 889.697831,2458.21415 887.681015,2450.51124 C885.74103,2443.21122 881.813041,2436.85128 875.464872,2432.63051 L874.561146,2426.86531 C874.379633,2425.78134 873.659341,2424.70696 872.93905,2423.80525 C867.291965,2420.4766 858.369954,2417.49328 846.067376,2423.25847 C845.164611,2424.16018 844.626793,2425.24415 844.261845,2426.50079 L843.35908,2432.44825 C841.563153,2433.71448 840.112006,2434.97112 838.671423,2436.41002 L789.327616,2436.41002 C787.887033,2434.97112 786.436847,2433.71448 784.64092,2432.44825 L783.738155,2426.50079 C783.373207,2425.24415 782.835389,2424.16018 781.932624,2423.25847 C769.630046,2417.49328 760.708035,2420.4766 755.06095,2423.80525 C754.340659,2424.70696 753.620367,2425.78134 753.437894,2426.86531 L752.535128,2432.63051 C746.186959,2436.85128 742.25897,2443.21122 740.318985,2450.51124 C738.302169,2458.21415 738.071676,2466.53099 736.909605,2474.41521 C735.622685,2483.10712 734.451011,2491.82686 733.394583,2500.55523 C733.269733,2501.5922 733.16409,2502.61861 733.096863,2503.62584 C732.722311,2509.02651 733.317752,2514.05307 736.957625,2518.54148 C740.981653,2523.51144 746.638342,2526.3125 753.072946,2526.3125 C760.650412,2526.3125 767.507587,2522.16847 771.109044,2515.3193 L782.115098,2493.52476 C783.738155,2492.08586 793.293061,2483.61554 813.854981,2483.61554 L814.143098,2483.61554 C834.705018,2483.61554 844.261845,2492.08586 845.884902,2493.52476 L856.890956,2515.3193 C860.492413,2522.16847 867.349588,2526.3125 874.926094,2526.3125 C881.361658,2526.3125 887.018347,2523.51144 891.042375,2518.54148 C894.682248,2514.05307 895.277689,2509.02651 894.903137,2503.62584" id="Fill-1"></path>
        </g>
    </g>
</svg>