<?xml version="1.0" encoding="UTF-8"?>
<svg width="200px" height="200px" viewBox="0 0 200 200" version="1.1" xmlns="http://www.w3.org/2000/svg" xmlns:xlink="http://www.w3.org/1999/xlink">
    <!-- Generator: Sketch 49.3 (51167) - http://www.bohemiancoding.com/sketch -->
    <title>historysmartphone</title>
    <desc>Created with Sketch.</desc>
    <defs></defs>
    <g id="Page-1" stroke="none" stroke-width="1" fill="none" fill-rule="evenodd">
        <g id="Desktop-HD-Copy-7" transform="translate(-947.000000, -2373.000000)" fill="#000000">
            <path d="M1010.96,2388 L1083.04,2388 C1087.98847,2388 1092,2392.01153 1092,2396.96 L1092,2549.04 C1092,2553.98847 1087.98847,2558 1083.04,2558 L1010.96,2558 C1006.01153,2558 1002,2553.98847 1002,2549.04 L1002,2396.96 C1002,2392.01153 1006.01153,2388 1010.96,2388 Z M1009.69373,2407.39597 C1009.07517,2407.39597 1008.57373,2407.89741 1008.57373,2408.51597 L1008.57373,2534.06121 C1008.57373,2534.67977 1009.07517,2535.18121 1009.69373,2535.18121 L1084.30627,2535.18121 C1084.92483,2535.18121 1085.42627,2534.67977 1085.42627,2534.06121 L1085.42627,2408.51597 C1085.42627,2407.89741 1084.92483,2407.39597 1084.30627,2407.39597 L1009.69373,2407.39597 Z M1040.04749,2397.24713 C1039.16837,2397.24713 1038.4557,2397.9598 1038.4557,2398.83893 C1038.4557,2399.71805 1039.16837,2400.43072 1040.04749,2400.43072 L1053.95251,2400.43072 C1054.83163,2400.43072 1055.5443,2399.71805 1055.5443,2398.83893 C1055.5443,2397.9598 1054.83163,2397.24713 1053.95251,2397.24713 L1040.04749,2397.24713 Z M1047,2552.2953 C1050.46052,2552.2953 1053.26582,2549.48581 1053.26582,2546.02013 C1053.26582,2542.55445 1050.46052,2539.74497 1047,2539.74497 C1043.53948,2539.74497 1040.73418,2542.55445 1040.73418,2546.02013 C1040.73418,2549.48581 1043.53948,2552.2953 1047,2552.2953 Z" id="Combined-Shape"></path>
        </g>
    </g>
</svg>