<?xml version="1.0" encoding="utf-8"?>
<!-- Generator: Adobe Illustrator 22.1.0, SVG Export Plug-In . SVG Version: 6.00 Build 0)  -->
<svg version="1.1" id="Layer_1" xmlns="http://www.w3.org/2000/svg" xmlns:xlink="http://www.w3.org/1999/xlink" x="0px" y="0px"
	 viewBox="0 0 595.4 595.4" style="enable-background:new 0 0 595.4 595.4;" xml:space="preserve">
<style type="text/css">
	.st0{clip-path:url(#SVGID_2_);fill:#F79969;}
	.st1{opacity:0.3;clip-path:url(#SVGID_4_);fill:none;stroke:#010101;stroke-width:24.8075;stroke-miterlimit:10;}
</style>
<g>
	<g>
		<defs>
			<path id="SVGID_1_" d="M542.8,51.8L542.8,51.8C489.2-1,402.7-0.7,349.4,52.6L243.5,158.5c31-4.1,62.8,0.1,91.9,12.7l66.3-66.3
				c24.6-24.6,64.4-24.7,89.2-0.4c24.3,24.7,24.2,64.6-0.4,89.2L373.8,310.4c-24.6,24.6-64.4,24.7-89.1,0.4
				c-1.6-1.6-3.1-3.3-4.5-5.1c-10.6-6.1-24.4-4.6-33.4,4.4L215,341.9c4.8,7.4,10.5,14.3,16.9,20.8l0,0c0.1,0.1,0.3,0.2,0.4,0.4
				c0.1,0.1,0.2,0.3,0.4,0.4l0,0c53.6,52.8,140.1,52.5,193.4-0.7L542.8,246c53.3-53.3,53.5-139.8,0.7-193.4l0,0
				c-0.1-0.1-0.3-0.2-0.4-0.4C543.1,52.1,542.9,51.9,542.8,51.8z M351.9,436.9L246,542.8c-53.3,53.3-139.8,53.5-193.4,0.7l0,0
				c-0.1-0.1-0.2-0.3-0.4-0.4c-0.1-0.1-0.3-0.2-0.4-0.4l0,0l0,0C-1,489.2-0.7,402.7,52.6,349.4l116.7-116.7
				c53.3-53.3,139.8-53.5,193.4-0.7l0,0c0.1,0.1,0.2,0.3,0.4,0.4c0.1,0.1,0.3,0.2,0.4,0.4l0,0c6.4,6.5,12,13.5,16.9,20.8l-31.7,31.7
				c-9,9-22.8,10.5-33.4,4.4c-1.4-1.8-2.9-3.5-4.5-5.1c-24.7-24.3-64.6-24.2-89.1,0.4L104.9,401.7c-24.6,24.6-24.7,64.4-0.4,89.2
				c24.7,24.3,64.6,24.2,89.2-0.4l66.3-66.3C289.1,436.8,321,441,351.9,436.9z"/>
		</defs>
		<clipPath id="SVGID_2_">
			<use xlink:href="#SVGID_1_"  style="overflow:visible;"/>
		</clipPath>
		<path class="st0" d="M542.8,51.8L542.8,51.8C489.2-1,402.7-0.7,349.4,52.6L243.5,158.5c31-4.1,62.8,0.1,91.9,12.7l66.3-66.3
			c24.6-24.6,64.4-24.7,89.2-0.4c24.3,24.7,24.2,64.6-0.4,89.2L373.8,310.4c-24.6,24.6-64.4,24.7-89.1,0.4c-1.6-1.6-3.1-3.3-4.5-5.1
			c-10.6-6.1-24.4-4.6-33.4,4.4L215,341.9c4.8,7.4,10.5,14.3,16.9,20.8l0,0c0.1,0.1,0.3,0.2,0.4,0.4c0.1,0.1,0.2,0.3,0.4,0.4l0,0
			c53.6,52.8,140.1,52.5,193.4-0.7L542.8,246c53.3-53.3,53.5-139.8,0.7-193.4l0,0c-0.1-0.1-0.3-0.2-0.4-0.4
			C543.1,52.1,542.9,51.9,542.8,51.8z M351.9,436.9L246,542.8c-53.3,53.3-139.8,53.5-193.4,0.7l0,0c-0.1-0.1-0.2-0.3-0.4-0.4
			c-0.1-0.1-0.3-0.2-0.4-0.4l0,0l0,0C-1,489.2-0.7,402.7,52.6,349.4l116.7-116.7c53.3-53.3,139.8-53.5,193.4-0.7l0,0
			c0.1,0.1,0.2,0.3,0.4,0.4c0.1,0.1,0.3,0.2,0.4,0.4l0,0c6.4,6.5,12,13.5,16.9,20.8l-31.7,31.7c-9,9-22.8,10.5-33.4,4.4
			c-1.4-1.8-2.9-3.5-4.5-5.1c-24.7-24.3-64.6-24.2-89.1,0.4L104.9,401.7c-24.6,24.6-24.7,64.4-0.4,89.2
			c24.7,24.3,64.6,24.2,89.2-0.4l66.3-66.3C289.1,436.8,321,441,351.9,436.9z"/>
	</g>
	<g>
		<defs>
			<path id="SVGID_3_" d="M542.8,51.8L542.8,51.8C489.2-1,402.7-0.7,349.4,52.6L243.5,158.5c31-4.1,62.8,0.1,91.9,12.7l66.3-66.3
				c24.6-24.6,64.4-24.7,89.2-0.4c24.3,24.7,24.2,64.6-0.4,89.2L373.8,310.4c-24.6,24.6-64.4,24.7-89.1,0.4
				c-1.6-1.6-3.1-3.3-4.5-5.1c-10.6-6.1-24.4-4.6-33.4,4.4L215,341.9c4.8,7.4,10.5,14.3,16.9,20.8l0,0c0.1,0.1,0.3,0.2,0.4,0.4
				c0.1,0.1,0.2,0.3,0.4,0.4l0,0c53.6,52.8,140.1,52.5,193.4-0.7L542.8,246c53.3-53.3,53.5-139.8,0.7-193.4l0,0
				c-0.1-0.1-0.3-0.2-0.4-0.4C543.1,52.1,542.9,51.9,542.8,51.8z M351.9,436.9L246,542.8c-53.3,53.3-139.8,53.5-193.4,0.7l0,0
				c-0.1-0.1-0.2-0.3-0.4-0.4c-0.1-0.1-0.3-0.2-0.4-0.4l0,0l0,0C-1,489.2-0.7,402.7,52.6,349.4l116.7-116.7
				c53.3-53.3,139.8-53.5,193.4-0.7l0,0c0.1,0.1,0.2,0.3,0.4,0.4c0.1,0.1,0.3,0.2,0.4,0.4l0,0c6.4,6.5,12,13.5,16.9,20.8l-31.7,31.7
				c-9,9-22.8,10.5-33.4,4.4c-1.4-1.8-2.9-3.5-4.5-5.1c-24.7-24.3-64.6-24.2-89.1,0.4L104.9,401.7c-24.6,24.6-24.7,64.4-0.4,89.2
				c24.7,24.3,64.6,24.2,89.2-0.4l66.3-66.3C289.1,436.8,321,441,351.9,436.9z"/>
		</defs>
		<clipPath id="SVGID_4_">
			<use xlink:href="#SVGID_3_"  style="overflow:visible;"/>
		</clipPath>
		<path class="st1" d="M542.8,51.8L542.8,51.8C489.2-1,402.7-0.7,349.4,52.6L243.5,158.5c31-4.1,62.8,0.1,91.9,12.7l66.3-66.3
			c24.6-24.6,64.4-24.7,89.2-0.4c24.3,24.7,24.2,64.6-0.4,89.2L373.8,310.4c-24.6,24.6-64.4,24.7-89.1,0.4c-1.6-1.6-3.1-3.3-4.5-5.1
			c-10.6-6.1-24.4-4.6-33.4,4.4L215,341.9c4.8,7.4,10.5,14.3,16.9,20.8l0,0c0.1,0.1,0.3,0.2,0.4,0.4c0.1,0.1,0.2,0.3,0.4,0.4l0,0
			c53.6,52.8,140.1,52.5,193.4-0.7L542.8,246c53.3-53.3,53.5-139.8,0.7-193.4l0,0c-0.1-0.1-0.3-0.2-0.4-0.4
			C543.1,52.1,542.9,51.9,542.8,51.8z M351.9,436.9L246,542.8c-53.3,53.3-139.8,53.5-193.4,0.7l0,0c-0.1-0.1-0.2-0.3-0.4-0.4
			c-0.1-0.1-0.3-0.2-0.4-0.4l0,0l0,0C-1,489.2-0.7,402.7,52.6,349.4l116.7-116.7c53.3-53.3,139.8-53.5,193.4-0.7l0,0
			c0.1,0.1,0.2,0.3,0.4,0.4c0.1,0.1,0.3,0.2,0.4,0.4l0,0c6.4,6.5,12,13.5,16.9,20.8l-31.7,31.7c-9,9-22.8,10.5-33.4,4.4
			c-1.4-1.8-2.9-3.5-4.5-5.1c-24.7-24.3-64.6-24.2-89.1,0.4L104.9,401.7c-24.6,24.6-24.7,64.4-0.4,89.2
			c24.7,24.3,64.6,24.2,89.2-0.4l66.3-66.3C289.1,436.8,321,441,351.9,436.9z"/>
	</g>
</g>
</svg>
