<?xml version="1.0" encoding="UTF-8"?>
<svg width="140px" height="140px" viewBox="0 0 140 140" version="1.1" xmlns="http://www.w3.org/2000/svg" xmlns:xlink="http://www.w3.org/1999/xlink">
    <!-- Generator: Sketch 49.3 (51167) - http://www.bohemiancoding.com/sketch -->
    <title>movieicon</title>
    <desc>Created with Sketch.</desc>
    <defs></defs>
    <g id="Page-1" stroke="none" stroke-width="1" fill="none" fill-rule="evenodd">
        <g id="Desktop-HD-Copy-7" transform="translate(-655.000000, -20217.000000)" fill="#FFFFFF">
            <path d="M695.923077,20256 L695.923077,20319 L683.32,20319 C676.515852,20319 671,20313.4841 671,20306.68 L671,20297.79 C675.740038,20296.8171 679.307692,20292.5798 679.307692,20287.5 C679.307692,20282.4202 675.740038,20278.1829 671,20277.21 L671,20268.32 C671,20261.5159 676.515852,20256 683.32,20256 L695.923077,20256 Z M704.230769,20256 L766.68,20256 C773.484148,20256 779,20261.5159 779,20268.32 L779,20277.21 C774.259962,20278.1829 770.692308,20282.4202 770.692308,20287.5 C770.692308,20292.5798 774.259962,20296.8171 779,20297.79 L779,20306.68 C779,20313.4841 773.484148,20319 766.68,20319 L704.230769,20319 L704.230769,20256 Z" id="Combined-Shape" transform="translate(725.000000, 20287.500000) rotate(-45.000000) translate(-725.000000, -20287.500000) "></path>
        </g>
    </g>
</svg>