<?xml version="1.0" encoding="UTF-8"?>
<svg width="60px" height="60px" viewBox="0 0 60 60" version="1.1" xmlns="http://www.w3.org/2000/svg" xmlns:xlink="http://www.w3.org/1999/xlink">
    <!-- Generator: Sketch 49.3 (51167) - http://www.bohemiancoding.com/sketch -->
    <title>Combined Shape</title>
    <desc>Created with Sketch.</desc>
    <defs></defs>
    <g id="Page-1" stroke="none" stroke-width="1" fill="none" fill-rule="evenodd">
        <g id="Desktop-HD-Copy-7" transform="translate(-794.000000, -34159.000000)" fill="#7B28D7">
            <g id="Group-8-Copy" transform="translate(750.000000, 33669.000000)">
                <path d="M51,490 L97,490 C100.865993,490 104,493.134007 104,497 L104,543 C104,546.865993 100.865993,550 97,550 L51,550 C47.1340068,550 44,546.865993 44,543 L44,497 C44,493.134007 47.1340068,490 51,490 Z M65.8,498 C64.2536027,498 63,499.253603 63,500.8 L63,539.2 C63,540.746397 64.2536027,542 65.8,542 L83.2,542 C84.7463973,542 86,540.746397 86,539.2 L86,500.8 C86,499.253603 84.7463973,498 83.2,498 L65.8,498 Z M64.2234177,503.020134 L84.7765823,503.020134 C84.9698819,503.020134 85.1265823,503.176835 85.1265823,503.370134 L85.1265823,535.74396 C85.1265823,535.937259 84.9698819,536.09396 84.7765823,536.09396 L64.2234177,536.09396 C64.0301181,536.09396 63.8734177,535.937259 63.8734177,535.74396 L63.8734177,503.370134 C63.8734177,503.176835 64.0301181,503.020134 64.2234177,503.020134 Z M72.7284496,500.393375 L76.2715504,500.393375 C76.4990883,500.393375 76.6835443,500.577831 76.6835443,500.805369 C76.6835443,501.032907 76.4990883,501.217363 76.2715504,501.217363 L72.7284496,501.217363 C72.5009117,501.217363 72.3164557,501.032907 72.3164557,500.805369 C72.3164557,500.577831 72.5009117,500.393375 72.7284496,500.393375 Z M74.5,540.52349 C73.6156453,540.52349 72.8987342,539.796328 72.8987342,538.899329 C72.8987342,538.002329 73.6156453,537.275168 74.5,537.275168 C75.3843547,537.275168 76.1012658,538.002329 76.1012658,538.899329 C76.1012658,539.796328 75.3843547,540.52349 74.5,540.52349 Z" id="Combined-Shape"></path>
            </g>
        </g>
    </g>
</svg>