<?xml version="1.0" encoding="UTF-8"?>
<svg width="140px" height="140px" viewBox="0 0 140 140" version="1.1" xmlns="http://www.w3.org/2000/svg" xmlns:xlink="http://www.w3.org/1999/xlink">
    <!-- Generator: Sketch 49.3 (51167) - http://www.bohemiancoding.com/sketch -->
    <title>pizzaicon</title>
    <desc>Created with Sketch.</desc>
    <defs></defs>
    <g id="Page-1" stroke="none" stroke-width="1" fill="none" fill-rule="evenodd">
        <g id="Desktop-HD-Copy-7" transform="translate(-1003.000000, -20217.000000)" fill="#FFFFFF">
            <path d="M1039,20324.1886 L1039,20255.125 C1040.50062,20255.0547 1042.01034,20255.0191 1043.52836,20255.0191 C1069.84551,20255.0191 1093.66579,20265.7095 1110.88352,20282.9846 L1080.23951,20313.6286 C1079.07979,20312.1332 1077.26574,20311.1708 1075.22689,20311.1708 C1071.72557,20311.1708 1068.88719,20314.0092 1068.88719,20317.5105 C1068.88719,20319.5494 1069.84963,20321.3634 1071.34497,20322.5231 L1039,20354.8681 L1039,20338.9083 C1039.71586,20339.1283 1040.4762,20339.2466 1041.26418,20339.2466 C1045.51579,20339.2466 1048.9624,20335.8 1048.9624,20331.5484 C1048.9624,20327.2968 1045.51579,20323.8502 1041.26418,20323.8502 C1040.4762,20323.8502 1039.71586,20323.9686 1039,20324.1886 Z M1114.08556,20279.7825 C1096.04836,20261.688 1071.09599,20250.4908 1043.52836,20250.4908 C1042.01074,20250.4908 1040.50105,20250.5247 1039,20250.5918 L1039,20236.0717 C1040.35263,20236.024 1041.71127,20236 1043.07553,20236 C1074.74995,20236 1103.39829,20248.9562 1124.00998,20269.8581 L1114.08556,20279.7825 Z M1057.11345,20284.0006 C1061.61515,20284.0006 1065.2645,20280.3513 1065.2645,20275.8496 C1065.2645,20271.3479 1061.61515,20267.6985 1057.11345,20267.6985 C1052.61175,20267.6985 1048.9624,20271.3479 1048.9624,20275.8496 C1048.9624,20280.3513 1052.61175,20284.0006 1057.11345,20284.0006 Z M1057.11345,20306.6424 C1060.11458,20306.6424 1062.54748,20304.2095 1062.54748,20301.2084 C1062.54748,20298.2073 1060.11458,20295.7744 1057.11345,20295.7744 C1054.11231,20295.7744 1051.67941,20298.2073 1051.67941,20301.2084 C1051.67941,20304.2095 1054.11231,20306.6424 1057.11345,20306.6424 Z M1089.71765,20289.4347 C1092.71878,20289.4347 1095.15168,20287.0018 1095.15168,20284.0006 C1095.15168,20280.9995 1092.71878,20278.5666 1089.71765,20278.5666 C1086.71652,20278.5666 1084.28362,20280.9995 1084.28362,20284.0006 C1084.28362,20287.0018 1086.71652,20289.4347 1089.71765,20289.4347 Z" id="Combined-Shape" transform="translate(1081.504991, 20295.434050) rotate(-345.000000) translate(-1081.504991, -20295.434050) "></path>
        </g>
    </g>
</svg>