<?xml version="1.0" encoding="UTF-8"?>
<svg width="140px" height="140px" viewBox="0 0 140 140" version="1.1" xmlns="http://www.w3.org/2000/svg" xmlns:xlink="http://www.w3.org/1999/xlink">
    <!-- Generator: Sketch 49.3 (51167) - http://www.bohemiancoding.com/sketch -->
    <title>rideshareicon</title>
    <desc>Created with Sketch.</desc>
    <defs></defs>
    <g id="Page-1" stroke="none" stroke-width="1" fill="none" fill-rule="evenodd">
        <g id="Desktop-HD-Copy-7" transform="translate(-306.000000, -20218.000000)" fill="#FFFFFF" fill-rule="nonzero">
            <path d="M413.900439,20328 C410.40001,20340.1318 398.940577,20349 385.299618,20349 L365.700382,20349 C352.059423,20349 340.59999,20340.1318 337.099561,20328 L336,20328 C334.285714,20328 333,20326.5405 333,20324.9351 L333,20304.0649 C333,20302.3135 334.428571,20301 336,20301 L336,20281 C334.285714,20281 333,20279.5405 333,20277.9351 L333,20257.0649 C333,20255.3135 334.428571,20254 336,20254 L336.466834,20254 C339.186309,20238.1628 353.455706,20226 370.524809,20226 L380.475191,20226 C397.544294,20226 411.813691,20238.1628 414.533166,20254 L415,20254 C416.571429,20254 418,20255.3135 418,20257.0649 L418,20277.9351 C418,20279.5405 416.714286,20281 415,20281 L415,20301 C416.571429,20301 418,20302.3135 418,20304.0649 L418,20324.9351 C418,20326.5405 416.714286,20328 415,20328 L413.900439,20328 Z M393.625888,20277.3183 C394.836823,20277.612 396.047758,20277.0247 396.501859,20275.9969 L400.286031,20259.6986 C384.84661,20253.6785 368.801722,20253.9722 352.454101,20259.6986 L356.238272,20275.9969 C356.541006,20277.1715 357.751941,20277.7588 358.962876,20277.3183 C365.623018,20274.969 386.965746,20274.969 393.625888,20277.3183 Z M358.962876,20305.2162 C357.751941,20304.7757 356.541006,20305.5099 356.086905,20306.5377 L352.302734,20322.836 C367.742154,20328.8561 383.787042,20328.5624 400.134664,20322.836 L396.350492,20306.5377 C396.047758,20305.3631 394.836823,20304.7757 393.625888,20305.2162 C386.965746,20307.5655 365.623018,20307.5655 358.962876,20305.2162 Z M348.419766,20264.8843 L348.419766,20315.1407 C348.419766,20315.4355 348.872953,20315.5829 349.024015,20315.2881 L354.311196,20301.5818 C354.311196,20301.5818 354.311196,20301.4344 354.311196,20301.4344 L354.311196,20281.5382 C354.311196,20281.5382 354.311196,20281.3908 354.311196,20281.3908 L349.024015,20264.7369 C348.872953,20264.2948 348.419766,20264.4421 348.419766,20264.8843 Z M403.557508,20264.8843 C403.557508,20264.4421 403.104321,20264.2948 402.953259,20264.7369 L397.666078,20281.3908 C397.666078,20281.3908 397.666078,20281.5382 397.666078,20281.5382 L397.666078,20301.4344 C397.666078,20301.4344 397.666078,20301.5818 397.666078,20301.5818 L402.953259,20315.2881 C403.104321,20315.5829 403.557508,20315.4355 403.557508,20315.1407 L403.557508,20264.8843 Z" id="Car-Icon" transform="translate(375.500000, 20287.500000) rotate(-315.000000) translate(-375.500000, -20287.500000) "></path>
        </g>
    </g>
</svg>