<?xml version="1.0" encoding="UTF-8"?>
<svg width="2595px" height="508px" viewBox="0 0 2595 508" version="1.1" xmlns="http://www.w3.org/2000/svg" xmlns:xlink="http://www.w3.org/1999/xlink" style="background: #FFFFFF;">
    <!-- Generator: Sketch 49.3 (51167) - http://www.bohemiancoding.com/sketch -->
    <title>rideshareinteractionflow1</title>
    <desc>Created with Sketch.</desc>
    <defs>
        <rect id="path-1" x="0" y="0" width="250" height="160" rx="10"></rect>
        <filter x="-6.0%" y="-9.4%" width="112.0%" height="118.8%" filterUnits="objectBoundingBox" id="filter-2">
            <feOffset dx="0" dy="0" in="SourceAlpha" result="shadowOffsetOuter1"></feOffset>
            <feGaussianBlur stdDeviation="5" in="shadowOffsetOuter1" result="shadowBlurOuter1"></feGaussianBlur>
            <feComposite in="shadowBlurOuter1" in2="SourceAlpha" operator="out" result="shadowBlurOuter1"></feComposite>
            <feColorMatrix values="0 0 0 0 0.899845876   0 0 0 0 0.899845876   0 0 0 0 0.899845876  0 0 0 0.5 0" type="matrix" in="shadowBlurOuter1"></feColorMatrix>
        </filter>
        <rect id="path-3" x="605" y="50" width="309" height="400" rx="10"></rect>
        <filter x="-4.9%" y="-3.8%" width="109.7%" height="107.5%" filterUnits="objectBoundingBox" id="filter-4">
            <feOffset dx="0" dy="0" in="SourceAlpha" result="shadowOffsetOuter1"></feOffset>
            <feMorphology radius="3" operator="erode" in="SourceAlpha" result="shadowInner"></feMorphology>
            <feOffset dx="0" dy="0" in="shadowInner" result="shadowInner"></feOffset>
            <feComposite in="shadowOffsetOuter1" in2="shadowInner" operator="out" result="shadowOffsetOuter1"></feComposite>
            <feGaussianBlur stdDeviation="5" in="shadowOffsetOuter1" result="shadowBlurOuter1"></feGaussianBlur>
            <feColorMatrix values="0 0 0 0 0.899845876   0 0 0 0 0.899845876   0 0 0 0 0.899845876  0 0 0 0.5 0" type="matrix" in="shadowBlurOuter1"></feColorMatrix>
        </filter>
        <rect id="path-5" x="0" y="0" width="309" height="160" rx="10"></rect>
        <filter x="-4.9%" y="-9.4%" width="109.7%" height="118.8%" filterUnits="objectBoundingBox" id="filter-6">
            <feOffset dx="0" dy="0" in="SourceAlpha" result="shadowOffsetOuter1"></feOffset>
            <feGaussianBlur stdDeviation="5" in="shadowOffsetOuter1" result="shadowBlurOuter1"></feGaussianBlur>
            <feComposite in="shadowBlurOuter1" in2="SourceAlpha" operator="out" result="shadowBlurOuter1"></feComposite>
            <feColorMatrix values="0 0 0 0 0.899845876   0 0 0 0 0.899845876   0 0 0 0 0.899845876  0 0 0 0.5 0" type="matrix" in="shadowBlurOuter1"></feColorMatrix>
        </filter>
        <rect id="path-7" x="0" y="0" width="309" height="160" rx="10"></rect>
        <filter x="-4.9%" y="-9.4%" width="109.7%" height="118.8%" filterUnits="objectBoundingBox" id="filter-8">
            <feOffset dx="0" dy="0" in="SourceAlpha" result="shadowOffsetOuter1"></feOffset>
            <feGaussianBlur stdDeviation="5" in="shadowOffsetOuter1" result="shadowBlurOuter1"></feGaussianBlur>
            <feComposite in="shadowBlurOuter1" in2="SourceAlpha" operator="out" result="shadowBlurOuter1"></feComposite>
            <feColorMatrix values="0 0 0 0 0.899845876   0 0 0 0 0.899845876   0 0 0 0 0.899845876  0 0 0 0.5 0" type="matrix" in="shadowBlurOuter1"></feColorMatrix>
        </filter>
        <rect id="path-9" x="0" y="0" width="309" height="160" rx="10"></rect>
        <filter x="-4.9%" y="-9.4%" width="109.7%" height="118.8%" filterUnits="objectBoundingBox" id="filter-10">
            <feOffset dx="0" dy="0" in="SourceAlpha" result="shadowOffsetOuter1"></feOffset>
            <feGaussianBlur stdDeviation="5" in="shadowOffsetOuter1" result="shadowBlurOuter1"></feGaussianBlur>
            <feComposite in="shadowBlurOuter1" in2="SourceAlpha" operator="out" result="shadowBlurOuter1"></feComposite>
            <feColorMatrix values="0 0 0 0 0.899845876   0 0 0 0 0.899845876   0 0 0 0 0.899845876  0 0 0 0.5 0" type="matrix" in="shadowBlurOuter1"></feColorMatrix>
        </filter>
        <rect id="path-11" x="0" y="0" width="309" height="160" rx="10"></rect>
        <filter x="-4.9%" y="-9.4%" width="109.7%" height="118.8%" filterUnits="objectBoundingBox" id="filter-12">
            <feOffset dx="0" dy="0" in="SourceAlpha" result="shadowOffsetOuter1"></feOffset>
            <feGaussianBlur stdDeviation="5" in="shadowOffsetOuter1" result="shadowBlurOuter1"></feGaussianBlur>
            <feComposite in="shadowBlurOuter1" in2="SourceAlpha" operator="out" result="shadowBlurOuter1"></feComposite>
            <feColorMatrix values="0 0 0 0 0.899845876   0 0 0 0 0.899845876   0 0 0 0 0.899845876  0 0 0 0.5 0" type="matrix" in="shadowBlurOuter1"></feColorMatrix>
        </filter>
        <rect id="path-13" x="615" y="313" width="289" height="126" rx="10"></rect>
        <filter x="-5.2%" y="-11.9%" width="110.4%" height="123.8%" filterUnits="objectBoundingBox" id="filter-14">
            <feOffset dx="0" dy="0" in="SourceAlpha" result="shadowOffsetOuter1"></feOffset>
            <feGaussianBlur stdDeviation="5" in="shadowOffsetOuter1" result="shadowBlurOuter1"></feGaussianBlur>
            <feComposite in="shadowBlurOuter1" in2="SourceAlpha" operator="out" result="shadowBlurOuter1"></feComposite>
            <feColorMatrix values="0 0 0 0 0.899845876   0 0 0 0 0.899845876   0 0 0 0 0.899845876  0 0 0 0.5 0" type="matrix" in="shadowBlurOuter1"></feColorMatrix>
        </filter>
        <rect id="path-15" x="615" y="230" width="289" height="70" rx="10"></rect>
        <filter x="-5.2%" y="-21.4%" width="110.4%" height="142.9%" filterUnits="objectBoundingBox" id="filter-16">
            <feOffset dx="0" dy="0" in="SourceAlpha" result="shadowOffsetOuter1"></feOffset>
            <feGaussianBlur stdDeviation="5" in="shadowOffsetOuter1" result="shadowBlurOuter1"></feGaussianBlur>
            <feComposite in="shadowBlurOuter1" in2="SourceAlpha" operator="out" result="shadowBlurOuter1"></feComposite>
            <feColorMatrix values="0 0 0 0 0.899845876   0 0 0 0 0.899845876   0 0 0 0 0.899845876  0 0 0 0.5 0" type="matrix" in="shadowBlurOuter1"></feColorMatrix>
        </filter>
    </defs>
    <g id="rideshareinteractionflow1" stroke="none" stroke-width="1" fill="none" fill-rule="evenodd">
        <g id="Flow-Node/Action" transform="translate(325.000000, 50.000000)">
            <g id="Rectangle">
                <use fill="black" fill-opacity="1" filter="url(#filter-2)" xlink:href="#path-1"></use>
                <use fill="#D9FFB3" fill-rule="evenodd" xlink:href="#path-1"></use>
                <rect stroke="#BDFF7A" stroke-width="1" x="0.5" y="0.5" width="249" height="159" rx="10"></rect>
            </g>
        </g>
        <path d="M343.466,110.43 L355.859,110.43 L355.859,114 L338.825,114 L338.825,78.657 L343.466,78.657 L343.466,110.43 Z M371.465,85.542 C374.117013,85.542 376.513989,86.136994 378.656,87.327 C380.798011,88.5170059 382.489494,90.216989 383.7305,92.427 C384.971506,94.637011 385.592,97.1699857 385.592,100.026 C385.592,102.848014 384.946006,105.355489 383.654,107.5485 C382.361994,109.741511 380.611011,111.441494 378.401,112.6485 C376.190989,113.855506 373.743013,114.459 371.057,114.459 C368.438987,114.459 366.08451,113.864006 363.9935,112.674 C361.90249,111.483994 360.270506,109.792511 359.0975,107.5995 C357.924494,105.406489 357.338,102.882014 357.338,100.026 C357.338,97.1359856 357.958494,94.594511 359.1995,92.4015 C360.440506,90.208489 362.131989,88.5170059 364.274,87.327 C366.416011,86.136994 368.812987,85.542 371.465,85.542 Z M371.312,89.367 C369.611992,89.367 368.065007,89.7749959 366.671,90.591 C365.276993,91.4070041 364.163504,92.613992 363.3305,94.212 C362.497496,95.810008 362.081,97.7479886 362.081,100.026 C362.081,102.270011 362.480496,104.190992 363.2795,105.789 C364.078504,107.387008 365.157993,108.593996 366.518,109.41 C367.878007,110.226004 369.390992,110.634 371.057,110.634 C372.757009,110.634 374.346493,110.217504 375.8255,109.3845 C377.304507,108.551496 378.502995,107.336008 379.421,105.738 C380.339005,104.139992 380.798,102.236011 380.798,100.026 C380.798,97.7819888 380.364504,95.8525081 379.4975,94.2375 C378.630496,92.6224919 377.474507,91.4070041 376.0295,90.591 C374.584493,89.7749959 373.012009,89.367 371.312,89.367 Z M401.402,85.542 C403.782012,85.542 405.864491,86.1029944 407.6495,87.225 C409.434509,88.3470056 410.785995,89.808991 411.704,91.611 L411.704,86.001 L416.396,86.001 L416.396,114.714 C416.396,117.264013 415.835006,119.52499 414.713,121.497 C413.590994,123.46901 412.01001,125.007494 409.97,126.1125 C407.92999,127.217506 405.567013,127.77 402.881,127.77 C400.534988,127.77 398.39301,127.370504 396.455,126.5715 C394.51699,125.772496 392.936006,124.642007 391.712,123.18 C390.487994,121.717993 389.757001,120.052009 389.519,118.182 L394.058,118.182 C394.500002,119.780008 395.536992,121.105995 397.169,122.16 C398.801008,123.214005 400.704989,123.741 402.881,123.741 C405.533013,123.741 407.666492,122.950508 409.2815,121.3695 C410.896508,119.788492 411.704,117.570014 411.704,114.714 L411.704,108.288 C410.785995,110.124009 409.434509,111.611494 407.6495,112.7505 C405.864491,113.889506 403.782012,114.459 401.402,114.459 C398.885987,114.459 396.61651,113.838506 394.5935,112.5975 C392.57049,111.356494 390.972506,109.622511 389.7995,107.3955 C388.626494,105.168489 388.04,102.644014 388.04,99.822 C388.04,96.9999859 388.626494,94.5095108 389.7995,92.3505 C390.972506,90.1914892 392.57049,88.5170059 394.5935,87.327 C396.61651,86.136994 398.885987,85.542 401.402,85.542 Z M402.218,89.571 C400.551992,89.571 398.996507,89.9789959 397.5515,90.795 C396.106493,91.6110041 394.950504,92.7924923 394.0835,94.3395 C393.216496,95.8865077 392.783,97.7139895 392.783,99.822 C392.783,101.930011 393.216496,103.791492 394.0835,105.4065 C394.950504,107.021508 396.106493,108.270996 397.5515,109.155 C398.996507,110.039004 400.551992,110.481 402.218,110.481 C403.918009,110.481 405.490493,110.056004 406.9355,109.206 C408.380507,108.355996 409.536496,107.140508 410.4035,105.5595 C411.270504,103.978492 411.704,102.134011 411.704,100.026 C411.704,97.9179895 411.270504,96.0735079 410.4035,94.4925 C409.536496,92.9114921 408.380507,91.6960043 406.9355,90.846 C405.490493,89.9959957 403.918009,89.571 402.218,89.571 Z M421.751,78.351 C421.751,77.4669956 422.056997,76.7190031 422.669,76.107 C423.281003,75.4949969 424.011996,75.189 424.862,75.189 C425.746005,75.189 426.493997,75.4949969 427.106,76.107 C427.718003,76.7190031 428.024,77.4669956 428.024,78.351 C428.024,79.2350044 427.718003,79.9829969 427.106,80.595 C426.493997,81.2070031 425.746005,81.513 424.862,81.513 C423.977996,81.513 423.238503,81.2070031 422.6435,80.595 C422.048497,79.9829969 421.751,79.2350044 421.751,78.351 Z M427.157,86.001 L427.157,114 L422.516,114 L422.516,86.001 L427.157,86.001 Z M447.047,85.542 C449.05301,85.542 450.880492,85.9924955 452.5295,86.8935 C454.178508,87.7945045 455.487495,89.1374911 456.4565,90.9225 C457.425505,92.7075089 457.91,94.8749873 457.91,97.425 L457.91,114 L453.32,114 L453.32,98.19 C453.32,95.3679859 452.640007,93.2260073 451.28,91.764 C449.919993,90.3019927 448.033012,89.571 445.619,89.571 C443.238988,89.571 441.360507,90.3019927 439.9835,91.764 C438.606493,93.2260073 437.918,95.3679859 437.918,98.19 L437.918,114 L433.277,114 L433.277,86.001 L437.918,86.001 L437.918,90.54 C438.836005,88.9079918 440.093992,87.6670042 441.692,86.817 C443.290008,85.9669957 445.07499,85.542 447.047,85.542 Z" id="Login" fill="#000000"></path>
        <path d="M615,50 L904,50 C909.522847,50 914,54.4771525 914,60 L914,210 L605,210 L605,60 C605,54.4771525 609.477153,50 615,50 Z" id="Rectangle" fill="#D9FFB3"></path>
        <g id="Rectangle">
            <use fill="black" fill-opacity="1" filter="url(#filter-4)" xlink:href="#path-3"></use>
            <rect stroke="#BDFF7A" stroke-width="3" x="606.5" y="51.5" width="306" height="397" rx="10"></rect>
        </g>
        <path d="M638.372,95.844 C640.650011,96.2180019 642.485993,97.2379917 643.88,98.904 C645.274007,100.570008 645.971,102.490989 645.971,104.667 C645.971,106.401009 645.503505,107.981993 644.5685,109.41 C643.633495,110.838007 642.290509,111.959996 640.5395,112.776 C638.788491,113.592004 636.757012,114 634.445,114 L621.185,114 L621.185,78.657 L633.833,78.657 C636.247012,78.657 638.303992,79.0649959 640.004,79.881 C641.704009,80.6970041 642.987496,81.8104929 643.8545,83.2215 C644.721504,84.6325071 645.155,86.238991 645.155,88.041 C645.155,90.0130099 644.560006,91.6534935 643.37,92.9625 C642.179994,94.2715065 640.514011,95.2319969 638.372,95.844 Z M625.826,94.008 L633.629,94.008 C635.771011,94.008 637.445494,93.4895052 638.6525,92.4525 C639.859506,91.4154948 640.463,90.0130088 640.463,88.245 C640.463,86.442991 639.859506,85.0150053 638.6525,83.961 C637.445494,82.9069947 635.771011,82.38 633.629,82.38 L625.826,82.38 L625.826,94.008 Z M634.19,110.328 C636.434011,110.328 638.193494,109.767006 639.4685,108.645 C640.743506,107.522994 641.381,105.97601 641.381,104.004 C641.381,102.06599 640.692507,100.536006 639.3155,99.414 C637.938493,98.2919944 636.111011,97.731 633.833,97.731 L625.826,97.731 L625.826,110.328 L634.19,110.328 Z M663.158,85.542 C665.810013,85.542 668.206989,86.136994 670.349,87.327 C672.491011,88.5170059 674.182494,90.216989 675.4235,92.427 C676.664506,94.637011 677.285,97.1699857 677.285,100.026 C677.285,102.848014 676.639006,105.355489 675.347,107.5485 C674.054994,109.741511 672.304011,111.441494 670.094,112.6485 C667.883989,113.855506 665.436013,114.459 662.75,114.459 C660.131987,114.459 657.77751,113.864006 655.6865,112.674 C653.59549,111.483994 651.963506,109.792511 650.7905,107.5995 C649.617494,105.406489 649.031,102.882014 649.031,100.026 C649.031,97.1359856 649.651494,94.594511 650.8925,92.4015 C652.133506,90.208489 653.824989,88.5170059 655.967,87.327 C658.109011,86.136994 660.505987,85.542 663.158,85.542 Z M663.005,89.367 C661.304992,89.367 659.758007,89.7749959 658.364,90.591 C656.969993,91.4070041 655.856504,92.613992 655.0235,94.212 C654.190496,95.810008 653.774,97.7479886 653.774,100.026 C653.774,102.270011 654.173496,104.190992 654.9725,105.789 C655.771504,107.387008 656.850993,108.593996 658.211,109.41 C659.571007,110.226004 661.083992,110.634 662.75,110.634 C664.450009,110.634 666.039493,110.217504 667.5185,109.3845 C668.997507,108.551496 670.195995,107.336008 671.114,105.738 C672.032005,104.139992 672.491,102.236011 672.491,100.026 C672.491,97.7819888 672.057504,95.8525081 671.1905,94.2375 C670.323496,92.6224919 669.167507,91.4070041 667.7225,90.591 C666.277493,89.7749959 664.705009,89.367 663.005,89.367 Z M693.86,85.542 C696.512013,85.542 698.908989,86.136994 701.051,87.327 C703.193011,88.5170059 704.884494,90.216989 706.1255,92.427 C707.366506,94.637011 707.987,97.1699857 707.987,100.026 C707.987,102.848014 707.341007,105.355489 706.049,107.5485 C704.756994,109.741511 703.006011,111.441494 700.796,112.6485 C698.585989,113.855506 696.138013,114.459 693.452,114.459 C690.833987,114.459 688.479511,113.864006 686.3885,112.674 C684.29749,111.483994 682.665506,109.792511 681.4925,107.5995 C680.319494,105.406489 679.733,102.882014 679.733,100.026 C679.733,97.1359856 680.353494,94.594511 681.5945,92.4015 C682.835506,90.208489 684.526989,88.5170059 686.669,87.327 C688.811011,86.136994 691.207987,85.542 693.86,85.542 Z M693.707,89.367 C692.006992,89.367 690.460007,89.7749959 689.066,90.591 C687.671993,91.4070041 686.558504,92.613992 685.7255,94.212 C684.892496,95.810008 684.476,97.7479886 684.476,100.026 C684.476,102.270011 684.875496,104.190992 685.6745,105.789 C686.473504,107.387008 687.552993,108.593996 688.913,109.41 C690.273007,110.226004 691.785992,110.634 693.452,110.634 C695.152009,110.634 696.741493,110.217504 698.2205,109.3845 C699.699507,108.551496 700.897995,107.336008 701.816,105.738 C702.734005,104.139992 703.193,102.236011 703.193,100.026 C703.193,97.7819888 702.759504,95.8525081 701.8925,94.2375 C701.025496,92.6224919 699.869507,91.4070041 698.4245,90.591 C696.979493,89.7749959 695.407009,89.367 693.707,89.367 Z M720.941,99.924 L734.15,114 L727.877,114 L716.912,101.709 L716.912,114 L712.271,114 L712.271,76.26 L716.912,76.26 L716.912,98.394 L727.622,86.001 L734.15,86.001 L720.941,99.924 Z M762.2,85.542 C764.580012,85.542 766.662491,86.1029944 768.4475,87.225 C770.232509,88.3470056 771.583996,89.808991 772.502,91.611 L772.502,86.001 L777.194,86.001 L777.194,114 L772.502,114 L772.502,108.288 C771.583996,110.124009 770.232509,111.611494 768.4475,112.7505 C766.662491,113.889506 764.580012,114.459 762.2,114.459 C759.683988,114.459 757.41451,113.838506 755.3915,112.5975 C753.36849,111.356494 751.770506,109.622511 750.5975,107.3955 C749.424494,105.168489 748.838,102.644014 748.838,99.822 C748.838,96.9999859 749.424494,94.5095108 750.5975,92.3505 C751.770506,90.1914892 753.36849,88.5170059 755.3915,87.327 C757.41451,86.136994 759.683988,85.542 762.2,85.542 Z M763.016,89.571 C761.349992,89.571 759.794507,89.9789959 758.3495,90.795 C756.904493,91.6110041 755.748504,92.7924923 754.8815,94.3395 C754.014496,95.8865077 753.581,97.7139895 753.581,99.822 C753.581,101.930011 754.014496,103.791492 754.8815,105.4065 C755.748504,107.021508 756.904493,108.270996 758.3495,109.155 C759.794507,110.039004 761.349992,110.481 763.016,110.481 C764.716009,110.481 766.288493,110.056004 767.7335,109.206 C769.178507,108.355996 770.334496,107.140508 771.2015,105.5595 C772.068504,103.978492 772.502,102.134011 772.502,100.026 C772.502,97.9179895 772.068504,96.0735079 771.2015,94.4925 C770.334496,92.9114921 769.178507,91.6960043 767.7335,90.846 C766.288493,89.9959957 764.716009,89.571 763.016,89.571 Z M631.487,181.665 L640.106,158.001 L645.104,158.001 L634.139,186 L628.886,186 L617.972,158.001 L622.919,158.001 L631.487,181.665 Z M673.409,170.853 C673.409,171.839005 673.341001,172.756996 673.205,173.607 L650.918,173.607 C651.054001,176.395014 651.929492,178.596492 653.5445,180.2115 C655.159508,181.826508 657.224987,182.634 659.741,182.634 C661.64501,182.634 663.251493,182.209004 664.5605,181.359 C665.869507,180.508996 666.829997,179.387007 667.442,177.993 L672.44,177.993 C671.555996,180.441012 670.034511,182.463992 667.8755,184.062 C665.716489,185.660008 663.005016,186.459 659.741,186.459 C657.122987,186.459 654.78551,185.864006 652.7285,184.674 C650.67149,183.483994 649.065006,181.792511 647.909,179.5995 C646.752994,177.406489 646.175,174.882014 646.175,172.026 C646.175,169.135986 646.752994,166.594511 647.909,164.4015 C649.065006,162.208489 650.696989,160.517006 652.805,159.327 C654.913011,158.136994 657.343986,157.542 660.098,157.542 C662.716013,157.542 665.02799,158.119994 667.034,159.276 C669.04001,160.432006 670.603994,162.01299 671.726,164.019 C672.848006,166.02501 673.409,168.302987 673.409,170.853 Z M668.564,170.241 C668.564,168.438991 668.173004,166.866507 667.391,165.5235 C666.608996,164.180493 665.546507,163.152004 664.2035,162.438 C662.860493,161.723996 661.373008,161.367 659.741,161.367 C657.326988,161.367 655.304008,162.157492 653.672,163.7385 C652.039992,165.319508 651.139001,167.486986 650.969,170.241 L668.564,170.241 Z M691.412,157.542 C693.41801,157.542 695.245492,157.992495 696.8945,158.8935 C698.543508,159.794505 699.852495,161.137491 700.8215,162.9225 C701.790505,164.707509 702.275,166.874987 702.275,169.425 L702.275,186 L697.685,186 L697.685,170.19 C697.685,167.367986 697.005007,165.226007 695.645,163.764 C694.284993,162.301993 692.398012,161.571 689.984,161.571 C687.603988,161.571 685.725507,162.301993 684.3485,163.764 C682.971493,165.226007 682.283,167.367986 682.283,170.19 L682.283,186 L677.642,186 L677.642,148.26 L682.283,148.26 L682.283,162.54 C683.201005,160.907992 684.458992,159.667004 686.057,158.817 C687.655008,157.966996 689.43999,157.542 691.412,157.542 Z M707.375,150.351 C707.375,149.466996 707.680997,148.719003 708.293,148.107 C708.905003,147.494997 709.635996,147.189 710.486,147.189 C711.370005,147.189 712.117997,147.494997 712.73,148.107 C713.342003,148.719003 713.648,149.466996 713.648,150.351 C713.648,151.235004 713.342003,151.982997 712.73,152.595 C712.117997,153.207003 711.370005,153.513 710.486,153.513 C709.601996,153.513 708.862503,153.207003 708.2675,152.595 C707.672497,151.982997 707.375,151.235004 707.375,150.351 Z M712.781,158.001 L712.781,186 L708.14,186 L708.14,158.001 L712.781,158.001 Z M730.631,157.542 C733.997017,157.542 736.742489,158.323992 738.8675,159.888 C740.992511,161.452008 742.479996,163.678986 743.33,166.569 L738.332,166.569 C737.787997,164.936992 736.853007,163.662005 735.527,162.744 C734.200993,161.825995 732.56901,161.367 730.631,161.367 C727.978987,161.367 725.845508,162.293491 724.2305,164.1465 C722.615492,165.999509 721.808,168.625983 721.808,172.026 C721.808,175.392017 722.615492,178.001491 724.2305,179.8545 C725.845508,181.707509 727.978987,182.634 730.631,182.634 C732.60301,182.634 734.234994,182.192004 735.527,181.308 C736.819007,180.423996 737.753997,179.132008 738.332,177.432 L743.33,177.432 C742.479996,180.186014 740.975511,182.378992 738.8165,184.011 C736.657489,185.643008 733.929017,186.459 730.631,186.459 C728.012987,186.459 725.67551,185.864006 723.6185,184.674 C721.56149,183.483994 719.955006,181.792511 718.799,179.5995 C717.642994,177.406489 717.065,174.882014 717.065,172.026 C717.065,169.135986 717.642994,166.594511 718.799,164.4015 C719.955006,162.208489 721.55299,160.517006 723.593,159.327 C725.63301,158.136994 727.978987,157.542 730.631,157.542 Z M752.612,148.26 L752.612,186 L747.971,186 L747.971,148.26 L752.612,148.26 Z M784.13,170.853 C784.13,171.839005 784.062001,172.756996 783.926,173.607 L761.639,173.607 C761.775001,176.395014 762.650492,178.596492 764.2655,180.2115 C765.880508,181.826508 767.945988,182.634 770.462,182.634 C772.36601,182.634 773.972494,182.209004 775.2815,181.359 C776.590507,180.508996 777.550997,179.387007 778.163,177.993 L783.161,177.993 C782.276996,180.441012 780.755511,182.463992 778.5965,184.062 C776.437489,185.660008 773.726016,186.459 770.462,186.459 C767.843987,186.459 765.50651,185.864006 763.4495,184.674 C761.39249,183.483994 759.786006,181.792511 758.63,179.5995 C757.473994,177.406489 756.896,174.882014 756.896,172.026 C756.896,169.135986 757.473994,166.594511 758.63,164.4015 C759.786006,162.208489 761.41799,160.517006 763.526,159.327 C765.634011,158.136994 768.064986,157.542 770.819,157.542 C773.437013,157.542 775.74899,158.119994 777.755,159.276 C779.76101,160.432006 781.324995,162.01299 782.447,164.019 C783.569006,166.02501 784.13,168.302987 784.13,170.853 Z M779.285,170.241 C779.285,168.438991 778.894004,166.866507 778.112,165.5235 C777.329996,164.180493 776.267507,163.152004 774.9245,162.438 C773.581493,161.723996 772.094008,161.367 770.462,161.367 C768.047988,161.367 766.025008,162.157492 764.393,163.7385 C762.760992,165.319508 761.860001,167.486986 761.69,170.241 L779.285,170.241 Z" id="Login" fill="#000000"></path>
        <g id="Flow-Node/Action" transform="translate(944.000000, 50.000000)">
            <g id="Rectangle">
                <use fill="black" fill-opacity="1" filter="url(#filter-6)" xlink:href="#path-5"></use>
                <use fill="#D9FFB3" fill-rule="evenodd" xlink:href="#path-5"></use>
                <rect stroke="#BDFF7A" stroke-width="1" x="0.5" y="0.5" width="308" height="159" rx="10"></rect>
            </g>
        </g>
        <path d="M989.816,96.507 C989.816,100.145018 989.068007,103.281487 987.572,105.9165 C986.075993,108.551513 983.942514,110.557493 981.1715,111.9345 C978.400486,113.311507 975.128019,114 971.354,114 L960.185,114 L960.185,78.657 L971.354,78.657 C975.128019,78.657 978.400486,79.3794928 981.1715,80.8245 C983.942514,82.2695072 986.075993,84.3264867 987.572,86.9955 C989.068007,89.6645133 989.816,92.8349816 989.816,96.507 Z M971.354,110.43 C975.808022,110.43 979.207988,109.206012 981.554,106.758 C983.900012,104.309988 985.073,100.893022 985.073,96.507 C985.073,92.1209781 983.900012,88.7040122 981.554,86.256 C979.207988,83.8079878 975.808022,82.584 971.354,82.584 L964.826,82.584 L964.826,110.43 L971.354,110.43 Z M1019.549,98.853 C1019.549,99.8390049 1019.481,100.756996 1019.345,101.607 L997.058,101.607 C997.194001,104.395014 998.069492,106.596492 999.6845,108.2115 C1001.29951,109.826508 1003.36499,110.634 1005.881,110.634 C1007.78501,110.634 1009.39149,110.209004 1010.7005,109.359 C1012.00951,108.508996 1012.97,107.387007 1013.582,105.993 L1018.58,105.993 C1017.696,108.441012 1016.17451,110.463992 1014.0155,112.062 C1011.85649,113.660008 1009.14502,114.459 1005.881,114.459 C1003.26299,114.459 1000.92551,113.864006 998.8685,112.674 C996.81149,111.483994 995.205006,109.792511 994.049,107.5995 C992.892994,105.406489 992.315,102.882014 992.315,100.026 C992.315,97.1359856 992.892994,94.594511 994.049,92.4015 C995.205006,90.208489 996.836989,88.5170059 998.945,87.327 C1001.05301,86.136994 1003.48399,85.542 1006.238,85.542 C1008.85601,85.542 1011.16799,86.1199942 1013.174,87.276 C1015.18001,88.4320058 1016.74399,90.01299 1017.866,92.019 C1018.98801,94.02501 1019.549,96.3029872 1019.549,98.853 Z M1014.704,98.241 C1014.704,96.438991 1014.313,94.8665067 1013.531,93.5235 C1012.749,92.1804933 1011.68651,91.1520036 1010.3435,90.438 C1009.00049,89.7239964 1007.51301,89.367 1005.881,89.367 C1003.46699,89.367 1001.44401,90.1574921 999.812,91.7385 C998.179992,93.3195079 997.279001,95.4869862 997.109,98.241 L1014.704,98.241 Z M1033.421,85.542 C1036.44702,85.542 1038.84399,86.3324921 1040.612,87.9135 C1042.38001,89.4945079 1043.349,91.6619862 1043.519,94.416 L1038.725,94.416 C1038.657,92.8519922 1038.13,91.5940048 1037.144,90.642 C1036.158,89.6899952 1034.79801,89.214 1033.064,89.214 C1031.29599,89.214 1029.91051,89.6304958 1028.9075,90.4635 C1027.9045,91.2965042 1027.403,92.3419937 1027.403,93.6 C1027.403,94.6540053 1027.7175,95.4954969 1028.3465,96.1245 C1028.9755,96.7535031 1029.7575,97.2209985 1030.6925,97.527 C1031.6275,97.8330015 1032.89399,98.1559983 1034.492,98.496 C1036.53201,98.9720024 1038.17249,99.4394977 1039.4135,99.8985 C1040.65451,100.357502 1041.717,101.122495 1042.601,102.1935 C1043.485,103.264505 1043.927,104.717991 1043.927,106.554 C1043.927,108.084008 1043.485,109.452494 1042.601,110.6595 C1041.717,111.866506 1040.47601,112.801497 1038.878,113.4645 C1037.27999,114.127503 1035.44401,114.459 1033.37,114.459 C1030.24198,114.459 1027.73451,113.677008 1025.8475,112.113 C1023.96049,110.548992 1022.932,108.390014 1022.762,105.636 L1027.556,105.636 C1027.624,107.200008 1028.17649,108.449495 1029.2135,109.3845 C1030.25051,110.319505 1031.63599,110.787 1033.37,110.787 C1035.27401,110.787 1036.74449,110.396004 1037.7815,109.614 C1038.81851,108.831996 1039.337,107.795006 1039.337,106.503 C1039.337,105.448995 1039.0225,104.607503 1038.3935,103.9785 C1037.7645,103.349497 1036.974,102.873502 1036.022,102.5505 C1035.07,102.227498 1033.76101,101.879002 1032.095,101.505 C1030.08899,101.062998 1028.46551,100.612502 1027.2245,100.1535 C1025.98349,99.6944977 1024.9295,98.9720049 1024.0625,97.986 C1023.1955,96.9999951 1022.762,95.6400087 1022.762,93.906 C1022.762,92.3759924 1023.1955,90.9735064 1024.0625,89.6985 C1024.9295,88.4234936 1026.17049,87.4120037 1027.7855,86.664 C1029.40051,85.9159963 1031.27899,85.542 1033.421,85.542 Z M1062.083,110.226 L1062.083,114 L1057.391,114 C1055.01099,114 1053.20051,113.422006 1051.9595,112.266 C1050.71849,111.109994 1050.098,109.291012 1050.098,106.809 L1050.098,89.775 L1046.477,89.775 L1046.477,86.001 L1050.098,86.001 L1050.098,79.065 L1054.79,79.065 L1054.79,86.001 L1062.032,86.001 L1062.032,89.775 L1054.79,89.775 L1054.79,106.809 C1054.79,108.067006 1055.045,108.950997 1055.555,109.461 C1056.065,109.971003 1056.96599,110.226 1058.258,110.226 L1062.083,110.226 Z M1064.888,78.351 C1064.888,77.4669956 1065.194,76.7190031 1065.806,76.107 C1066.418,75.4949969 1067.149,75.189 1067.999,75.189 C1068.883,75.189 1069.631,75.4949969 1070.243,76.107 C1070.855,76.7190031 1071.161,77.4669956 1071.161,78.351 C1071.161,79.2350044 1070.855,79.9829969 1070.243,80.595 C1069.631,81.2070031 1068.883,81.513 1067.999,81.513 C1067.115,81.513 1066.3755,81.2070031 1065.7805,80.595 C1065.1855,79.9829969 1064.888,79.2350044 1064.888,78.351 Z M1070.294,86.001 L1070.294,114 L1065.653,114 L1065.653,86.001 L1070.294,86.001 Z M1090.184,85.542 C1092.19001,85.542 1094.01749,85.9924955 1095.6665,86.8935 C1097.31551,87.7945045 1098.6245,89.1374911 1099.5935,90.9225 C1100.5625,92.7075089 1101.047,94.8749873 1101.047,97.425 L1101.047,114 L1096.457,114 L1096.457,98.19 C1096.457,95.3679859 1095.77701,93.2260073 1094.417,91.764 C1093.05699,90.3019927 1091.17001,89.571 1088.756,89.571 C1086.37599,89.571 1084.49751,90.3019927 1083.1205,91.764 C1081.74349,93.2260073 1081.055,95.3679859 1081.055,98.19 L1081.055,114 L1076.414,114 L1076.414,86.001 L1081.055,86.001 L1081.055,90.54 C1081.973,88.9079918 1083.23099,87.6670042 1084.829,86.817 C1086.42701,85.9669957 1088.21199,85.542 1090.184,85.542 Z M1118.438,85.542 C1120.81801,85.542 1122.90049,86.1029944 1124.6855,87.225 C1126.47051,88.3470056 1127.822,89.808991 1128.74,91.611 L1128.74,86.001 L1133.432,86.001 L1133.432,114 L1128.74,114 L1128.74,108.288 C1127.822,110.124009 1126.47051,111.611494 1124.6855,112.7505 C1122.90049,113.889506 1120.81801,114.459 1118.438,114.459 C1115.92199,114.459 1113.65251,113.838506 1111.6295,112.5975 C1109.60649,111.356494 1108.00851,109.622511 1106.8355,107.3955 C1105.66249,105.168489 1105.076,102.644014 1105.076,99.822 C1105.076,96.9999859 1105.66249,94.5095108 1106.8355,92.3505 C1108.00851,90.1914892 1109.60649,88.5170059 1111.6295,87.327 C1113.65251,86.136994 1115.92199,85.542 1118.438,85.542 Z M1119.254,89.571 C1117.58799,89.571 1116.03251,89.9789959 1114.5875,90.795 C1113.14249,91.6110041 1111.9865,92.7924923 1111.1195,94.3395 C1110.2525,95.8865077 1109.819,97.7139895 1109.819,99.822 C1109.819,101.930011 1110.2525,103.791492 1111.1195,105.4065 C1111.9865,107.021508 1113.14249,108.270996 1114.5875,109.155 C1116.03251,110.039004 1117.58799,110.481 1119.254,110.481 C1120.95401,110.481 1122.52649,110.056004 1123.9715,109.206 C1125.41651,108.355996 1126.5725,107.140508 1127.4395,105.5595 C1128.3065,103.978492 1128.74,102.134011 1128.74,100.026 C1128.74,97.9179895 1128.3065,96.0735079 1127.4395,94.4925 C1126.5725,92.9114921 1125.41651,91.6960043 1123.9715,90.846 C1122.52649,89.9959957 1120.95401,89.571 1119.254,89.571 Z M1152.557,110.226 L1152.557,114 L1147.865,114 C1145.48499,114 1143.67451,113.422006 1142.4335,112.266 C1141.19249,111.109994 1140.572,109.291012 1140.572,106.809 L1140.572,89.775 L1136.951,89.775 L1136.951,86.001 L1140.572,86.001 L1140.572,79.065 L1145.264,79.065 L1145.264,86.001 L1152.506,86.001 L1152.506,89.775 L1145.264,89.775 L1145.264,106.809 C1145.264,108.067006 1145.519,108.950997 1146.029,109.461 C1146.539,109.971003 1147.43999,110.226 1148.732,110.226 L1152.557,110.226 Z M1155.362,78.351 C1155.362,77.4669956 1155.668,76.7190031 1156.28,76.107 C1156.892,75.4949969 1157.623,75.189 1158.473,75.189 C1159.357,75.189 1160.105,75.4949969 1160.717,76.107 C1161.329,76.7190031 1161.635,77.4669956 1161.635,78.351 C1161.635,79.2350044 1161.329,79.9829969 1160.717,80.595 C1160.105,81.2070031 1159.357,81.513 1158.473,81.513 C1157.589,81.513 1156.8495,81.2070031 1156.2545,80.595 C1155.6595,79.9829969 1155.362,79.2350044 1155.362,78.351 Z M1160.768,86.001 L1160.768,114 L1156.127,114 L1156.127,86.001 L1160.768,86.001 Z M1179.179,85.542 C1181.83101,85.542 1184.22799,86.136994 1186.37,87.327 C1188.51201,88.5170059 1190.20349,90.216989 1191.4445,92.427 C1192.68551,94.637011 1193.306,97.1699857 1193.306,100.026 C1193.306,102.848014 1192.66001,105.355489 1191.368,107.5485 C1190.07599,109.741511 1188.32501,111.441494 1186.115,112.6485 C1183.90499,113.855506 1181.45701,114.459 1178.771,114.459 C1176.15299,114.459 1173.79851,113.864006 1171.7075,112.674 C1169.61649,111.483994 1167.98451,109.792511 1166.8115,107.5995 C1165.63849,105.406489 1165.052,102.882014 1165.052,100.026 C1165.052,97.1359856 1165.67249,94.594511 1166.9135,92.4015 C1168.15451,90.208489 1169.84599,88.5170059 1171.988,87.327 C1174.13001,86.136994 1176.52699,85.542 1179.179,85.542 Z M1179.026,89.367 C1177.32599,89.367 1175.77901,89.7749959 1174.385,90.591 C1172.99099,91.4070041 1171.8775,92.613992 1171.0445,94.212 C1170.2115,95.810008 1169.795,97.7479886 1169.795,100.026 C1169.795,102.270011 1170.1945,104.190992 1170.9935,105.789 C1171.7925,107.387008 1172.87199,108.593996 1174.232,109.41 C1175.59201,110.226004 1177.10499,110.634 1178.771,110.634 C1180.47101,110.634 1182.06049,110.217504 1183.5395,109.3845 C1185.01851,108.551496 1186.217,107.336008 1187.135,105.738 C1188.053,104.139992 1188.512,102.236011 1188.512,100.026 C1188.512,97.7819888 1188.0785,95.8525081 1187.2115,94.2375 C1186.3445,92.6224919 1185.18851,91.4070041 1183.7435,90.591 C1182.29849,89.7749959 1180.72601,89.367 1179.026,89.367 Z M1211.36,85.542 C1213.36601,85.542 1215.19349,85.9924955 1216.8425,86.8935 C1218.49151,87.7945045 1219.8005,89.1374911 1220.7695,90.9225 C1221.73851,92.7075089 1222.223,94.8749873 1222.223,97.425 L1222.223,114 L1217.633,114 L1217.633,98.19 C1217.633,95.3679859 1216.95301,93.2260073 1215.593,91.764 C1214.23299,90.3019927 1212.34601,89.571 1209.932,89.571 C1207.55199,89.571 1205.67351,90.3019927 1204.2965,91.764 C1202.91949,93.2260073 1202.231,95.3679859 1202.231,98.19 L1202.231,114 L1197.59,114 L1197.59,86.001 L1202.231,86.001 L1202.231,90.54 C1203.149,88.9079918 1204.40699,87.6670042 1206.005,86.817 C1207.60301,85.9669957 1209.38799,85.542 1211.36,85.542 Z" id="Login" fill="#000000"></path>
        <g id="Flow-Node/Action" transform="translate(1283.000000, 50.000000)">
            <g id="Rectangle">
                <use fill="black" fill-opacity="1" filter="url(#filter-8)" xlink:href="#path-7"></use>
                <use fill="#D9FFB3" fill-rule="evenodd" xlink:href="#path-7"></use>
                <rect stroke="#BDFF7A" stroke-width="1" x="0.5" y="0.5" width="308" height="159" rx="10"></rect>
            </g>
        </g>
        <path d="M1303.826,99.414 L1303.826,114 L1299.185,114 L1299.185,78.657 L1310.66,78.657 C1313.31201,78.657 1315.55599,79.1074955 1317.392,80.0085 C1319.22801,80.9095045 1320.605,82.1504921 1321.523,83.7315 C1322.441,85.3125079 1322.9,87.0889901 1322.9,89.061 C1322.9,92.053015 1321.88851,94.5264902 1319.8655,96.4815 C1317.84249,98.4365098 1314.77402,99.414 1310.66,99.414 L1303.826,99.414 Z M1310.66,95.742 C1313.21001,95.742 1315.10549,95.1555059 1316.3465,93.9825 C1317.58751,92.8094941 1318.208,91.1690105 1318.208,89.061 C1318.208,86.9529895 1317.59601,85.3125059 1316.372,84.1395 C1315.14799,82.9664941 1313.24401,82.38 1310.66,82.38 L1303.826,82.38 L1303.826,95.742 L1310.66,95.742 Z M1338.659,85.542 C1341.03901,85.542 1343.12149,86.1029944 1344.9065,87.225 C1346.69151,88.3470056 1348.043,89.808991 1348.961,91.611 L1348.961,86.001 L1353.653,86.001 L1353.653,114 L1348.961,114 L1348.961,108.288 C1348.043,110.124009 1346.69151,111.611494 1344.9065,112.7505 C1343.12149,113.889506 1341.03901,114.459 1338.659,114.459 C1336.14299,114.459 1333.87351,113.838506 1331.8505,112.5975 C1329.82749,111.356494 1328.22951,109.622511 1327.0565,107.3955 C1325.88349,105.168489 1325.297,102.644014 1325.297,99.822 C1325.297,96.9999859 1325.88349,94.5095108 1327.0565,92.3505 C1328.22951,90.1914892 1329.82749,88.5170059 1331.8505,87.327 C1333.87351,86.136994 1336.14299,85.542 1338.659,85.542 Z M1339.475,89.571 C1337.80899,89.571 1336.25351,89.9789959 1334.8085,90.795 C1333.36349,91.6110041 1332.2075,92.7924923 1331.3405,94.3395 C1330.4735,95.8865077 1330.04,97.7139895 1330.04,99.822 C1330.04,101.930011 1330.4735,103.791492 1331.3405,105.4065 C1332.2075,107.021508 1333.36349,108.270996 1334.8085,109.155 C1336.25351,110.039004 1337.80899,110.481 1339.475,110.481 C1341.17501,110.481 1342.74749,110.056004 1344.1925,109.206 C1345.63751,108.355996 1346.7935,107.140508 1347.6605,105.5595 C1348.5275,103.978492 1348.961,102.134011 1348.961,100.026 C1348.961,97.9179895 1348.5275,96.0735079 1347.6605,94.4925 C1346.7935,92.9114921 1345.63751,91.6960043 1344.1925,90.846 C1342.74749,89.9959957 1341.17501,89.571 1339.475,89.571 Z M1361.66,86.001 L1370.228,108.645 L1378.949,86.001 L1383.743,86.001 L1366.862,127.107 L1362.068,127.107 L1367.627,113.541 L1356.56,86.001 L1361.66,86.001 Z M1420.31,85.542 C1422.35001,85.542 1424.20299,85.9924955 1425.869,86.8935 C1427.53501,87.7945045 1428.8525,89.1374911 1429.8215,90.9225 C1430.7905,92.7075089 1431.275,94.8749873 1431.275,97.425 L1431.275,114 L1426.685,114 L1426.685,98.19 C1426.685,95.3679859 1425.99651,93.2260073 1424.6195,91.764 C1423.24249,90.3019927 1421.36401,89.571 1418.984,89.571 C1416.60399,89.571 1414.72551,90.3019927 1413.3485,91.764 C1411.97149,93.2260073 1411.283,95.3679859 1411.283,98.19 L1411.283,114 L1406.693,114 L1406.693,98.19 C1406.693,95.3679859 1406.01301,93.2260073 1404.653,91.764 C1403.29299,90.3019927 1401.40601,89.571 1398.992,89.571 C1396.61199,89.571 1394.73351,90.3019927 1393.3565,91.764 C1391.97949,93.2260073 1391.291,95.3679859 1391.291,98.19 L1391.291,114 L1386.65,114 L1386.65,86.001 L1391.291,86.001 L1391.291,90.54 C1392.209,88.9079918 1393.46699,87.6670042 1395.065,86.817 C1396.66301,85.9669957 1398.44799,85.542 1400.42,85.542 C1402.56201,85.542 1404.49999,86.0604948 1406.234,87.0975 C1407.96801,88.1345052 1409.277,89.6389901 1410.161,91.611 C1411.18101,89.7069905 1412.56649,88.2195054 1414.3175,87.1485 C1416.06851,86.0774946 1418.06599,85.542 1420.31,85.542 Z M1462.538,98.853 C1462.538,99.8390049 1462.47,100.756996 1462.334,101.607 L1440.047,101.607 C1440.183,104.395014 1441.05849,106.596492 1442.6735,108.2115 C1444.28851,109.826508 1446.35399,110.634 1448.87,110.634 C1450.77401,110.634 1452.38049,110.209004 1453.6895,109.359 C1454.99851,108.508996 1455.959,107.387007 1456.571,105.993 L1461.569,105.993 C1460.685,108.441012 1459.16351,110.463992 1457.0045,112.062 C1454.84549,113.660008 1452.13402,114.459 1448.87,114.459 C1446.25199,114.459 1443.91451,113.864006 1441.8575,112.674 C1439.80049,111.483994 1438.19401,109.792511 1437.038,107.5995 C1435.88199,105.406489 1435.304,102.882014 1435.304,100.026 C1435.304,97.1359856 1435.88199,94.594511 1437.038,92.4015 C1438.19401,90.208489 1439.82599,88.5170059 1441.934,87.327 C1444.04201,86.136994 1446.47299,85.542 1449.227,85.542 C1451.84501,85.542 1454.15699,86.1199942 1456.163,87.276 C1458.16901,88.4320058 1459.73299,90.01299 1460.855,92.019 C1461.97701,94.02501 1462.538,96.3029872 1462.538,98.853 Z M1457.693,98.241 C1457.693,96.438991 1457.302,94.8665067 1456.52,93.5235 C1455.738,92.1804933 1454.67551,91.1520036 1453.3325,90.438 C1451.98949,89.7239964 1450.50201,89.367 1448.87,89.367 C1446.45599,89.367 1444.43301,90.1574921 1442.801,91.7385 C1441.16899,93.3195079 1440.268,95.4869862 1440.098,98.241 L1457.693,98.241 Z M1480.541,85.542 C1482.54701,85.542 1484.37449,85.9924955 1486.0235,86.8935 C1487.67251,87.7945045 1488.9815,89.1374911 1489.9505,90.9225 C1490.9195,92.7075089 1491.404,94.8749873 1491.404,97.425 L1491.404,114 L1486.814,114 L1486.814,98.19 C1486.814,95.3679859 1486.13401,93.2260073 1484.774,91.764 C1483.41399,90.3019927 1481.52701,89.571 1479.113,89.571 C1476.73299,89.571 1474.85451,90.3019927 1473.4775,91.764 C1472.10049,93.2260073 1471.412,95.3679859 1471.412,98.19 L1471.412,114 L1466.771,114 L1466.771,86.001 L1471.412,86.001 L1471.412,90.54 C1472.33,88.9079918 1473.58799,87.6670042 1475.186,86.817 C1476.78401,85.9669957 1478.56899,85.542 1480.541,85.542 Z M1510.274,110.226 L1510.274,114 L1505.582,114 C1503.20199,114 1501.39151,113.422006 1500.1505,112.266 C1498.90949,111.109994 1498.289,109.291012 1498.289,106.809 L1498.289,89.775 L1494.668,89.775 L1494.668,86.001 L1498.289,86.001 L1498.289,79.065 L1502.981,79.065 L1502.981,86.001 L1510.223,86.001 L1510.223,89.775 L1502.981,89.775 L1502.981,106.809 C1502.981,108.067006 1503.236,108.950997 1503.746,109.461 C1504.256,109.971003 1505.15699,110.226 1506.449,110.226 L1510.274,110.226 Z" id="Login" fill="#000000"></path>
        <g id="Flow-Node/Action" transform="translate(1622.000000, 50.000000)">
            <g id="Rectangle">
                <use fill="black" fill-opacity="1" filter="url(#filter-10)" xlink:href="#path-9"></use>
                <use fill="#D9FFB3" fill-rule="evenodd" xlink:href="#path-9"></use>
                <rect stroke="#BDFF7A" stroke-width="1" x="0.5" y="0.5" width="308" height="159" rx="10"></rect>
            </g>
        </g>
        <path d="M1642.826,78.657 L1642.826,114 L1638.185,114 L1638.185,78.657 L1642.826,78.657 Z M1662.716,85.542 C1664.72201,85.542 1666.54949,85.9924955 1668.1985,86.8935 C1669.84751,87.7945045 1671.1565,89.1374911 1672.1255,90.9225 C1673.0945,92.7075089 1673.579,94.8749873 1673.579,97.425 L1673.579,114 L1668.989,114 L1668.989,98.19 C1668.989,95.3679859 1668.30901,93.2260073 1666.949,91.764 C1665.58899,90.3019927 1663.70201,89.571 1661.288,89.571 C1658.90799,89.571 1657.02951,90.3019927 1655.6525,91.764 C1654.27549,93.2260073 1653.587,95.3679859 1653.587,98.19 L1653.587,114 L1648.946,114 L1648.946,86.001 L1653.587,86.001 L1653.587,90.54 C1654.505,88.9079918 1655.76299,87.6670042 1657.361,86.817 C1658.95901,85.9669957 1660.74399,85.542 1662.716,85.542 Z M1714.94,78.657 L1714.94,82.38 L1705.607,82.38 L1705.607,114 L1700.966,114 L1700.966,82.38 L1691.633,82.38 L1691.633,78.657 L1714.94,78.657 Z M1724.171,90.744 C1725.83701,87.2759827 1728.67598,85.542 1732.688,85.542 L1732.688,90.387 L1731.464,90.387 C1729.08399,90.387 1727.27351,91.0074938 1726.0325,92.2485 C1724.79149,93.4895062 1724.171,95.6399847 1724.171,98.7 L1724.171,114 L1719.53,114 L1719.53,86.001 L1724.171,86.001 L1724.171,90.744 Z M1748.294,85.542 C1750.67401,85.542 1752.75649,86.1029944 1754.5415,87.225 C1756.32651,88.3470056 1757.678,89.808991 1758.596,91.611 L1758.596,86.001 L1763.288,86.001 L1763.288,114 L1758.596,114 L1758.596,108.288 C1757.678,110.124009 1756.32651,111.611494 1754.5415,112.7505 C1752.75649,113.889506 1750.67401,114.459 1748.294,114.459 C1745.77799,114.459 1743.50851,113.838506 1741.4855,112.5975 C1739.46249,111.356494 1737.86451,109.622511 1736.6915,107.3955 C1735.51849,105.168489 1734.932,102.644014 1734.932,99.822 C1734.932,96.9999859 1735.51849,94.5095108 1736.6915,92.3505 C1737.86451,90.1914892 1739.46249,88.5170059 1741.4855,87.327 C1743.50851,86.136994 1745.77799,85.542 1748.294,85.542 Z M1749.11,89.571 C1747.44399,89.571 1745.88851,89.9789959 1744.4435,90.795 C1742.99849,91.6110041 1741.8425,92.7924923 1740.9755,94.3395 C1740.1085,95.8865077 1739.675,97.7139895 1739.675,99.822 C1739.675,101.930011 1740.1085,103.791492 1740.9755,105.4065 C1741.8425,107.021508 1742.99849,108.270996 1744.4435,109.155 C1745.88851,110.039004 1747.44399,110.481 1749.11,110.481 C1750.81001,110.481 1752.38249,110.056004 1753.8275,109.206 C1755.27251,108.355996 1756.4285,107.140508 1757.2955,105.5595 C1758.1625,103.978492 1758.596,102.134011 1758.596,100.026 C1758.596,97.9179895 1758.1625,96.0735079 1757.2955,94.4925 C1756.4285,92.9114921 1755.27251,91.6960043 1753.8275,90.846 C1752.38249,89.9959957 1750.81001,89.571 1749.11,89.571 Z M1783.178,85.542 C1785.18401,85.542 1787.01149,85.9924955 1788.6605,86.8935 C1790.30951,87.7945045 1791.6185,89.1374911 1792.5875,90.9225 C1793.55651,92.7075089 1794.041,94.8749873 1794.041,97.425 L1794.041,114 L1789.451,114 L1789.451,98.19 C1789.451,95.3679859 1788.77101,93.2260073 1787.411,91.764 C1786.05099,90.3019927 1784.16401,89.571 1781.75,89.571 C1779.36999,89.571 1777.49151,90.3019927 1776.1145,91.764 C1774.73749,93.2260073 1774.049,95.3679859 1774.049,98.19 L1774.049,114 L1769.408,114 L1769.408,86.001 L1774.049,86.001 L1774.049,90.54 C1774.967,88.9079918 1776.22499,87.6670042 1777.823,86.817 C1779.42101,85.9669957 1781.20599,85.542 1783.178,85.542 Z M1809.545,85.542 C1812.57102,85.542 1814.96799,86.3324921 1816.736,87.9135 C1818.50401,89.4945079 1819.473,91.6619862 1819.643,94.416 L1814.849,94.416 C1814.781,92.8519922 1814.25401,91.5940048 1813.268,90.642 C1812.282,89.6899952 1810.92201,89.214 1809.188,89.214 C1807.41999,89.214 1806.03451,89.6304958 1805.0315,90.4635 C1804.0285,91.2965042 1803.527,92.3419937 1803.527,93.6 C1803.527,94.6540053 1803.8415,95.4954969 1804.4705,96.1245 C1805.0995,96.7535031 1805.8815,97.2209985 1806.8165,97.527 C1807.7515,97.8330015 1809.01799,98.1559983 1810.616,98.496 C1812.65601,98.9720024 1814.29649,99.4394977 1815.5375,99.8985 C1816.77851,100.357502 1817.841,101.122495 1818.725,102.1935 C1819.609,103.264505 1820.051,104.717991 1820.051,106.554 C1820.051,108.084008 1819.609,109.452494 1818.725,110.6595 C1817.841,111.866506 1816.60001,112.801497 1815.002,113.4645 C1813.40399,114.127503 1811.56801,114.459 1809.494,114.459 C1806.36598,114.459 1803.85851,113.677008 1801.9715,112.113 C1800.08449,110.548992 1799.056,108.390014 1798.886,105.636 L1803.68,105.636 C1803.748,107.200008 1804.3005,108.449495 1805.3375,109.3845 C1806.37451,110.319505 1807.75999,110.787 1809.494,110.787 C1811.39801,110.787 1812.8685,110.396004 1813.9055,109.614 C1814.94251,108.831996 1815.461,107.795006 1815.461,106.503 C1815.461,105.448995 1815.1465,104.607503 1814.5175,103.9785 C1813.8885,103.349497 1813.098,102.873502 1812.146,102.5505 C1811.194,102.227498 1809.88501,101.879002 1808.219,101.505 C1806.21299,101.062998 1804.58951,100.612502 1803.3485,100.1535 C1802.10749,99.6944977 1801.0535,98.9720049 1800.1865,97.986 C1799.3195,96.9999951 1798.886,95.6400087 1798.886,93.906 C1798.886,92.3759924 1799.3195,90.9735064 1800.1865,89.6985 C1801.0535,88.4234936 1802.29449,87.4120037 1803.9095,86.664 C1805.52451,85.9159963 1807.40299,85.542 1809.545,85.542 Z M1824.437,78.351 C1824.437,77.4669956 1824.743,76.7190031 1825.355,76.107 C1825.967,75.4949969 1826.698,75.189 1827.548,75.189 C1828.432,75.189 1829.18,75.4949969 1829.792,76.107 C1830.404,76.7190031 1830.71,77.4669956 1830.71,78.351 C1830.71,79.2350044 1830.404,79.9829969 1829.792,80.595 C1829.18,81.2070031 1828.432,81.513 1827.548,81.513 C1826.664,81.513 1825.9245,81.2070031 1825.3295,80.595 C1824.7345,79.9829969 1824.437,79.2350044 1824.437,78.351 Z M1829.843,86.001 L1829.843,114 L1825.202,114 L1825.202,86.001 L1829.843,86.001 Z M1848.968,110.226 L1848.968,114 L1844.276,114 C1841.89599,114 1840.08551,113.422006 1838.8445,112.266 C1837.60349,111.109994 1836.983,109.291012 1836.983,106.809 L1836.983,89.775 L1833.362,89.775 L1833.362,86.001 L1836.983,86.001 L1836.983,79.065 L1841.675,79.065 L1841.675,86.001 L1848.917,86.001 L1848.917,89.775 L1841.675,89.775 L1841.675,106.809 C1841.675,108.067006 1841.93,108.950997 1842.44,109.461 C1842.95,109.971003 1843.85099,110.226 1845.143,110.226 L1848.968,110.226 Z" id="Login" fill="#000000"></path>
        <g id="Flow-Node/Action" transform="translate(1961.000000, 50.000000)">
            <g id="Rectangle">
                <use fill="black" fill-opacity="1" filter="url(#filter-12)" xlink:href="#path-11"></use>
                <use fill="#D9FFB3" fill-rule="evenodd" xlink:href="#path-11"></use>
                <rect stroke="#BDFF7A" stroke-width="1" x="0.5" y="0.5" width="308" height="159" rx="10"></rect>
            </g>
        </g>
        <path d="M1995.647,114 L1986.365,99.414 L1981.826,99.414 L1981.826,114 L1977.185,114 L1977.185,78.657 L1988.66,78.657 C1991.31201,78.657 1993.55599,79.1074955 1995.392,80.0085 C1997.22801,80.9095045 1998.605,82.1504921 1999.523,83.7315 C2000.441,85.3125079 2000.9,87.0889901 2000.9,89.061 C2000.9,91.6110128 2000.13501,93.8209906 1998.605,95.691 C1997.07499,97.5610093 1994.78002,98.7339976 1991.72,99.21 L2001.461,114 L1995.647,114 Z M1981.826,95.742 L1988.66,95.742 C1991.21001,95.742 1993.10549,95.1555059 1994.3465,93.9825 C1995.58751,92.8094941 1996.208,91.1690105 1996.208,89.061 C1996.208,86.9529895 1995.59601,85.3125059 1994.372,84.1395 C1993.14799,82.9664941 1991.24401,82.38 1988.66,82.38 L1981.826,82.38 L1981.826,95.742 Z M2018.648,85.542 C2021.02801,85.542 2023.11049,86.1029944 2024.8955,87.225 C2026.68051,88.3470056 2028.032,89.808991 2028.95,91.611 L2028.95,86.001 L2033.642,86.001 L2033.642,114 L2028.95,114 L2028.95,108.288 C2028.032,110.124009 2026.68051,111.611494 2024.8955,112.7505 C2023.11049,113.889506 2021.02801,114.459 2018.648,114.459 C2016.13199,114.459 2013.86251,113.838506 2011.8395,112.5975 C2009.81649,111.356494 2008.21851,109.622511 2007.0455,107.3955 C2005.87249,105.168489 2005.286,102.644014 2005.286,99.822 C2005.286,96.9999859 2005.87249,94.5095108 2007.0455,92.3505 C2008.21851,90.1914892 2009.81649,88.5170059 2011.8395,87.327 C2013.86251,86.136994 2016.13199,85.542 2018.648,85.542 Z M2019.464,89.571 C2017.79799,89.571 2016.24251,89.9789959 2014.7975,90.795 C2013.35249,91.6110041 2012.1965,92.7924923 2011.3295,94.3395 C2010.4625,95.8865077 2010.029,97.7139895 2010.029,99.822 C2010.029,101.930011 2010.4625,103.791492 2011.3295,105.4065 C2012.1965,107.021508 2013.35249,108.270996 2014.7975,109.155 C2016.24251,110.039004 2017.79799,110.481 2019.464,110.481 C2021.16401,110.481 2022.73649,110.056004 2024.1815,109.206 C2025.62651,108.355996 2026.7825,107.140508 2027.6495,105.5595 C2028.5165,103.978492 2028.95,102.134011 2028.95,100.026 C2028.95,97.9179895 2028.5165,96.0735079 2027.6495,94.4925 C2026.7825,92.9114921 2025.62651,91.6960043 2024.1815,90.846 C2022.73649,89.9959957 2021.16401,89.571 2019.464,89.571 Z M2052.767,110.226 L2052.767,114 L2048.075,114 C2045.69499,114 2043.88451,113.422006 2042.6435,112.266 C2041.40249,111.109994 2040.782,109.291012 2040.782,106.809 L2040.782,89.775 L2037.161,89.775 L2037.161,86.001 L2040.782,86.001 L2040.782,79.065 L2045.474,79.065 L2045.474,86.001 L2052.716,86.001 L2052.716,89.775 L2045.474,89.775 L2045.474,106.809 C2045.474,108.067006 2045.729,108.950997 2046.239,109.461 C2046.749,109.971003 2047.64999,110.226 2048.942,110.226 L2052.767,110.226 Z M2081.735,98.853 C2081.735,99.8390049 2081.667,100.756996 2081.531,101.607 L2059.244,101.607 C2059.38,104.395014 2060.25549,106.596492 2061.8705,108.2115 C2063.48551,109.826508 2065.55099,110.634 2068.067,110.634 C2069.97101,110.634 2071.57749,110.209004 2072.8865,109.359 C2074.19551,108.508996 2075.156,107.387007 2075.768,105.993 L2080.766,105.993 C2079.882,108.441012 2078.36051,110.463992 2076.2015,112.062 C2074.04249,113.660008 2071.33102,114.459 2068.067,114.459 C2065.44899,114.459 2063.11151,113.864006 2061.0545,112.674 C2058.99749,111.483994 2057.39101,109.792511 2056.235,107.5995 C2055.07899,105.406489 2054.501,102.882014 2054.501,100.026 C2054.501,97.1359856 2055.07899,94.594511 2056.235,92.4015 C2057.39101,90.208489 2059.02299,88.5170059 2061.131,87.327 C2063.23901,86.136994 2065.66999,85.542 2068.424,85.542 C2071.04201,85.542 2073.35399,86.1199942 2075.36,87.276 C2077.36601,88.4320058 2078.92999,90.01299 2080.052,92.019 C2081.17401,94.02501 2081.735,96.3029872 2081.735,98.853 Z M2076.89,98.241 C2076.89,96.438991 2076.499,94.8665067 2075.717,93.5235 C2074.935,92.1804933 2073.87251,91.1520036 2072.5295,90.438 C2071.18649,89.7239964 2069.69901,89.367 2068.067,89.367 C2065.65299,89.367 2063.63001,90.1574921 2061.998,91.7385 C2060.36599,93.3195079 2059.465,95.4869862 2059.295,98.241 L2076.89,98.241 Z M2129.369,96.507 C2129.369,100.145018 2128.62101,103.281487 2127.125,105.9165 C2125.62899,108.551513 2123.49551,110.557493 2120.7245,111.9345 C2117.95349,113.311507 2114.68102,114 2110.907,114 L2099.738,114 L2099.738,78.657 L2110.907,78.657 C2114.68102,78.657 2117.95349,79.3794928 2120.7245,80.8245 C2123.49551,82.2695072 2125.62899,84.3264867 2127.125,86.9955 C2128.62101,89.6645133 2129.369,92.8349816 2129.369,96.507 Z M2110.907,110.43 C2115.36102,110.43 2118.76099,109.206012 2121.107,106.758 C2123.45301,104.309988 2124.626,100.893022 2124.626,96.507 C2124.626,92.1209781 2123.45301,88.7040122 2121.107,86.256 C2118.76099,83.8079878 2115.36102,82.584 2110.907,82.584 L2104.379,82.584 L2104.379,110.43 L2110.907,110.43 Z M2138.345,90.744 C2140.01101,87.2759827 2142.84998,85.542 2146.862,85.542 L2146.862,90.387 L2145.638,90.387 C2143.25799,90.387 2141.44751,91.0074938 2140.2065,92.2485 C2138.96549,93.4895062 2138.345,95.6399847 2138.345,98.7 L2138.345,114 L2133.704,114 L2133.704,86.001 L2138.345,86.001 L2138.345,90.744 Z M2150.177,78.351 C2150.177,77.4669956 2150.483,76.7190031 2151.095,76.107 C2151.707,75.4949969 2152.438,75.189 2153.288,75.189 C2154.172,75.189 2154.92,75.4949969 2155.532,76.107 C2156.144,76.7190031 2156.45,77.4669956 2156.45,78.351 C2156.45,79.2350044 2156.144,79.9829969 2155.532,80.595 C2154.92,81.2070031 2154.172,81.513 2153.288,81.513 C2152.404,81.513 2151.6645,81.2070031 2151.0695,80.595 C2150.4745,79.9829969 2150.177,79.2350044 2150.177,78.351 Z M2155.583,86.001 L2155.583,114 L2150.942,114 L2150.942,86.001 L2155.583,86.001 Z M2172.005,109.665 L2180.624,86.001 L2185.622,86.001 L2174.657,114 L2169.404,114 L2158.49,86.001 L2163.437,86.001 L2172.005,109.665 Z M2213.927,98.853 C2213.927,99.8390049 2213.859,100.756996 2213.723,101.607 L2191.436,101.607 C2191.572,104.395014 2192.44749,106.596492 2194.0625,108.2115 C2195.67751,109.826508 2197.74299,110.634 2200.259,110.634 C2202.16301,110.634 2203.76949,110.209004 2205.0785,109.359 C2206.38751,108.508996 2207.348,107.387007 2207.96,105.993 L2212.958,105.993 C2212.074,108.441012 2210.55251,110.463992 2208.3935,112.062 C2206.23449,113.660008 2203.52302,114.459 2200.259,114.459 C2197.64099,114.459 2195.30351,113.864006 2193.2465,112.674 C2191.18949,111.483994 2189.58301,109.792511 2188.427,107.5995 C2187.27099,105.406489 2186.693,102.882014 2186.693,100.026 C2186.693,97.1359856 2187.27099,94.594511 2188.427,92.4015 C2189.58301,90.208489 2191.21499,88.5170059 2193.323,87.327 C2195.43101,86.136994 2197.86199,85.542 2200.616,85.542 C2203.23401,85.542 2205.54599,86.1199942 2207.552,87.276 C2209.55801,88.4320058 2211.12199,90.01299 2212.244,92.019 C2213.36601,94.02501 2213.927,96.3029872 2213.927,98.853 Z M2209.082,98.241 C2209.082,96.438991 2208.691,94.8665067 2207.909,93.5235 C2207.127,92.1804933 2206.06451,91.1520036 2204.7215,90.438 C2203.37849,89.7239964 2201.89101,89.367 2200.259,89.367 C2197.84499,89.367 2195.82201,90.1574921 2194.19,91.7385 C2192.55799,93.3195079 2191.657,95.4869862 2191.487,98.241 L2209.082,98.241 Z M2222.801,90.744 C2224.46701,87.2759827 2227.30598,85.542 2231.318,85.542 L2231.318,90.387 L2230.094,90.387 C2227.71399,90.387 2225.90351,91.0074938 2224.6625,92.2485 C2223.42149,93.4895062 2222.801,95.6399847 2222.801,98.7 L2222.801,114 L2218.16,114 L2218.16,86.001 L2222.801,86.001 L2222.801,90.744 Z" id="Login" fill="#000000"></path>
        <g id="Rectangle">
            <use fill="black" fill-opacity="1" filter="url(#filter-14)" xlink:href="#path-13"></use>
            <use fill="#FFB7B3" fill-rule="evenodd" xlink:href="#path-13"></use>
            <rect stroke="#FF9F7A" stroke-width="1" x="615.5" y="313.5" width="288" height="125" rx="10"></rect>
        </g>
        <g id="Rectangle-Copy">
            <use fill="black" fill-opacity="1" filter="url(#filter-16)" xlink:href="#path-15"></use>
            <use fill="#FFB7B3" fill-rule="evenodd" xlink:href="#path-15"></use>
            <rect stroke="#FF9F7A" stroke-width="1" x="615.5" y="230.5" width="288" height="69" rx="10"></rect>
        </g>
        <path d="M636.68,247 C639.560014,247 642.126655,247.679993 644.38,249.04 C646.633345,250.400007 648.293328,252.359987 649.36,254.92 L644.96,254.92 C644.159996,253.399992 643.040007,252.240004 641.6,251.44 C640.159993,250.639996 638.520009,250.24 636.68,250.24 C634.706657,250.24 632.926675,250.686662 631.34,251.58 C629.753325,252.473338 628.513338,253.746658 627.62,255.4 C626.726662,257.053342 626.28,258.959989 626.28,261.12 C626.28,263.280011 626.726662,265.186658 627.62,266.84 C628.513338,268.493342 629.753325,269.773329 631.34,270.68 C632.926675,271.586671 634.706657,272.04 636.68,272.04 C638.520009,272.04 640.159993,271.633337 641.6,270.82 C643.040007,270.006663 644.159996,268.840008 644.96,267.32 L649.36,267.32 C648.293328,269.880013 646.633345,271.839993 644.38,273.2 C642.126655,274.560007 639.560014,275.24 636.68,275.24 C634.09332,275.24 631.720011,274.633339 629.56,273.42 C627.399989,272.206661 625.69334,270.526677 624.44,268.38 C623.18666,266.233323 622.56,263.813347 622.56,261.12 C622.56,258.399986 623.18666,255.966677 624.44,253.82 C625.69334,251.673323 627.399989,250.000006 629.56,248.8 C631.720011,247.599994 634.09332,247 636.68,247 Z M662.92,252.68 C664.786676,252.68 666.419993,253.119996 667.82,254 C669.220007,254.880004 670.279996,256.02666 671,257.44 L671,253.04 L674.68,253.04 L674.68,275 L671,275 L671,270.52 C670.279996,271.960007 669.220007,273.126662 667.82,274.02 C666.419993,274.913338 664.786676,275.36 662.92,275.36 C660.946657,275.36 659.166675,274.873338 657.58,273.9 C655.993325,272.926662 654.740005,271.566675 653.82,269.82 C652.899995,268.073325 652.44,266.093344 652.44,263.88 C652.44,261.666656 652.899995,259.713342 653.82,258.02 C654.740005,256.326658 655.993325,255.013338 657.58,254.08 C659.166675,253.146662 660.946657,252.68 662.92,252.68 Z M663.56,255.84 C662.253327,255.84 661.033339,256.159997 659.9,256.8 C658.766661,257.440003 657.860003,258.366661 657.18,259.58 C656.499997,260.793339 656.16,262.226658 656.16,263.88 C656.16,265.533342 656.499997,266.993327 657.18,268.26 C657.860003,269.526673 658.766661,270.506663 659.9,271.2 C661.033339,271.893337 662.253327,272.24 663.56,272.24 C664.89334,272.24 666.126661,271.90667 667.26,271.24 C668.393339,270.57333 669.299997,269.620006 669.98,268.38 C670.660003,267.139994 671,265.693342 671,264.04 C671,262.386658 670.660003,260.940006 669.98,259.7 C669.299997,258.459994 668.393339,257.50667 667.26,256.84 C666.126661,256.17333 664.89334,255.84 663.56,255.84 Z M683.12,256.76 C684.426673,254.039986 686.653318,252.68 689.8,252.68 L689.8,256.48 L688.84,256.48 C686.973324,256.48 685.553338,256.966662 684.58,257.94 C683.606662,258.913338 683.12,260.599988 683.12,263 L683.12,275 L679.48,275 L679.48,253.04 L683.12,253.04 L683.12,256.76 Z M720.84,247.28 L720.84,250.2 L713.52,250.2 L713.52,275 L709.88,275 L709.88,250.2 L702.56,250.2 L702.56,247.28 L720.84,247.28 Z M725.92,253.04 L732.64,270.8 L739.48,253.04 L743.24,253.04 L730,285.28 L726.24,285.28 L730.6,274.64 L721.92,253.04 L725.92,253.04 Z M757.28,252.68 C759.253344,252.68 761.033326,253.146662 762.62,254.08 C764.206675,255.013338 765.459996,256.326658 766.38,258.02 C767.300005,259.713342 767.76,261.666656 767.76,263.88 C767.76,266.093344 767.300005,268.073325 766.38,269.82 C765.459996,271.566675 764.206675,272.926662 762.62,273.9 C761.033326,274.873338 759.253344,275.36 757.28,275.36 C755.413324,275.36 753.780007,274.913338 752.38,274.02 C750.979993,273.126662 749.906671,271.960007 749.16,270.52 L749.16,285.4 L745.52,285.4 L745.52,253.04 L749.16,253.04 L749.16,257.44 C749.906671,256.02666 750.979993,254.880004 752.38,254 C753.780007,253.119996 755.413324,252.68 757.28,252.68 Z M756.56,255.84 C755.253327,255.84 754.033339,256.17333 752.9,256.84 C751.766661,257.50667 750.860004,258.459994 750.18,259.7 C749.499997,260.940006 749.16,262.386658 749.16,264.04 C749.16,265.693342 749.499997,267.139994 750.18,268.38 C750.860004,269.620006 751.766661,270.57333 752.9,271.24 C754.033339,271.90667 755.253327,272.24 756.56,272.24 C757.866674,272.24 759.093328,271.900003 760.24,271.22 C761.386673,270.539997 762.299997,269.560006 762.98,268.28 C763.660004,266.999994 764,265.533342 764,263.88 C764,262.226658 763.660004,260.793339 762.98,259.58 C762.299997,258.366661 761.393339,257.440003 760.26,256.8 C759.126661,256.159997 757.89334,255.84 756.56,255.84 Z M791.040001,263.12 C791.040001,263.893337 790.986668,264.61333 790.880001,265.28 L773.400001,265.28 C773.506668,267.466678 774.193328,269.193327 775.460001,270.46 C776.726674,271.726673 778.346657,272.36 780.320001,272.36 C781.813341,272.36 783.073329,272.02667 784.100001,271.36 C785.126672,270.69333 785.879998,269.813339 786.360001,268.72 L790.280001,268.72 C789.586664,270.64001 788.393342,272.22666 786.700001,273.48 C785.006659,274.73334 782.880013,275.36 780.320001,275.36 C778.266657,275.36 776.433342,274.893338 774.820001,273.96 C773.206659,273.026662 771.946672,271.700009 771.040001,269.98 C770.133329,268.259991 769.680001,266.280011 769.680001,264.04 C769.680001,261.773322 770.133329,259.780009 771.040001,258.06 C771.946672,256.339991 773.226659,255.013338 774.880001,254.08 C776.533342,253.146662 778.43999,252.68 780.600001,252.68 C782.653344,252.68 784.466659,253.133329 786.040001,254.04 C787.613342,254.946671 788.839996,256.186659 789.720001,257.76 C790.600005,259.333341 791.040001,261.11999 791.040001,263.12 Z M787.240001,262.64 C787.240001,261.22666 786.933337,259.993339 786.320001,258.94 C785.706664,257.886661 784.873339,257.080003 783.820001,256.52 C782.766662,255.959997 781.600007,255.68 780.320001,255.68 C778.426658,255.68 776.840007,256.299994 775.560001,257.54 C774.279994,258.780006 773.573335,260.479989 773.440001,262.64 L787.240001,262.64 Z" id="Login" fill="#000000"></path>
        <path d="M631.64,349.56 L631.64,361 L628,361 L628,333.28 L637,333.28 C639.08001,333.28 640.839993,333.63333 642.28,334.34 C643.720007,335.04667 644.799996,336.019994 645.52,337.26 C646.240004,338.500006 646.6,339.893326 646.6,341.44 C646.6,343.786678 645.806675,345.726659 644.22,347.26 C642.633325,348.793341 640.226683,349.56 637,349.56 L631.64,349.56 Z M637,346.68 C639.00001,346.68 640.486662,346.220005 641.46,345.3 C642.433338,344.379995 642.92,343.093342 642.92,341.44 C642.92,339.786658 642.440005,338.500005 641.48,337.58 C640.519995,336.659995 639.026677,336.2 637,336.2 L631.64,336.2 L631.64,346.68 L637,346.68 Z M649.32,333.04 C649.32,332.346663 649.559998,331.760002 650.04,331.28 C650.520002,330.799998 651.09333,330.56 651.76,330.56 C652.453337,330.56 653.039998,330.799998 653.52,331.28 C654.000002,331.760002 654.24,332.346663 654.24,333.04 C654.24,333.733337 654.000002,334.319998 653.52,334.8 C653.039998,335.280002 652.453337,335.52 651.76,335.52 C651.066663,335.52 650.486669,335.280002 650.02,334.8 C649.553331,334.319998 649.32,333.733337 649.32,333.04 Z M653.56,339.04 L653.56,361 L649.92,361 L649.92,339.04 L653.56,339.04 Z M667.56,338.68 C670.200013,338.68 672.353325,339.293327 674.02,340.52 C675.686675,341.746673 676.85333,343.493322 677.52,345.76 L673.6,345.76 C673.173331,344.479994 672.440005,343.480004 671.4,342.76 C670.359995,342.039996 669.080008,341.68 667.56,341.68 C665.47999,341.68 663.806673,342.406659 662.54,343.86 C661.273327,345.313341 660.64,347.37332 660.64,350.04 C660.64,352.680013 661.273327,354.726659 662.54,356.18 C663.806673,357.633341 665.47999,358.36 667.56,358.36 C669.106675,358.36 670.386662,358.013337 671.4,357.32 C672.413339,356.626663 673.146665,355.61334 673.6,354.28 L677.52,354.28 C676.85333,356.440011 675.673342,358.159994 673.98,359.44 C672.286658,360.720006 670.14668,361.36 667.56,361.36 C665.506657,361.36 663.673342,360.893338 662.06,359.96 C660.446659,359.026662 659.186671,357.700009 658.28,355.98 C657.373329,354.259991 656.92,352.280011 656.92,350.04 C656.92,347.773322 657.373329,345.780009 658.28,344.06 C659.186671,342.339991 660.439992,341.013338 662.04,340.08 C663.640008,339.146662 665.47999,338.68 667.56,338.68 Z M687.96,349.96 L698.32,361 L693.4,361 L684.8,351.36 L684.8,361 L681.16,361 L681.16,331.4 L684.8,331.4 L684.8,348.76 L693.2,339.04 L698.32,339.04 L687.96,349.96 Z M719.6,339.04 L719.6,361 L715.96,361 L715.96,357.48 C715.239997,358.760006 714.25334,359.726663 713,360.38 C711.746661,361.033337 710.346675,361.36 708.8,361.36 C707.226659,361.36 705.79334,361.00667 704.5,360.3 C703.20666,359.59333 702.180004,358.546674 701.42,357.16 C700.659996,355.773326 700.28,354.08001 700.28,352.08 L700.28,339.04 L703.88,339.04 L703.88,351.48 C703.88,353.666678 704.419995,355.339994 705.5,356.5 C706.580006,357.660006 708.053324,358.24 709.92,358.24 C711.786676,358.24 713.259995,357.660006 714.34,356.5 C715.420006,355.339994 715.96,353.666678 715.96,351.48 L715.96,339.04 L719.6,339.04 Z M736.16,338.68 C738.133344,338.68 739.913326,339.146662 741.5,340.08 C743.086675,341.013338 744.339996,342.326658 745.26,344.02 C746.180005,345.713342 746.64,347.666656 746.64,349.88 C746.64,352.093344 746.180005,354.073325 745.26,355.82 C744.339996,357.566675 743.086675,358.926662 741.5,359.9 C739.913326,360.873338 738.133344,361.36 736.16,361.36 C734.293324,361.36 732.660007,360.913338 731.26,360.02 C729.859993,359.126662 728.786671,357.960007 728.04,356.52 L728.04,371.4 L724.4,371.4 L724.4,339.04 L728.04,339.04 L728.04,343.44 C728.786671,342.02666 729.859993,340.880004 731.26,340 C732.660007,339.119996 734.293324,338.68 736.16,338.68 Z M735.44,341.84 C734.133327,341.84 732.913339,342.17333 731.78,342.84 C730.646661,343.50667 729.740004,344.459994 729.06,345.7 C728.379997,346.940006 728.04,348.386658 728.04,350.04 C728.04,351.693342 728.379997,353.139994 729.06,354.38 C729.740004,355.620006 730.646661,356.57333 731.78,357.24 C732.913339,357.90667 734.133327,358.24 735.44,358.24 C736.746674,358.24 737.973328,357.900003 739.12,357.22 C740.266673,356.539997 741.179997,355.560006 741.86,354.28 C742.540004,352.999994 742.88,351.533342 742.88,349.88 C742.88,348.226658 742.540004,346.793339 741.86,345.58 C741.179997,344.366661 740.273339,343.440003 739.14,342.8 C738.006661,342.159997 736.77334,341.84 735.44,341.84 Z M771.000001,358.04 L771.000001,361 L767.320001,361 C765.453325,361 764.033339,360.546671 763.060001,359.64 C762.086662,358.733329 761.600001,357.306676 761.600001,355.36 L761.600001,342 L758.760001,342 L758.760001,339.04 L761.600001,339.04 L761.600001,333.6 L765.280001,333.6 L765.280001,339.04 L770.960001,339.04 L770.960001,342 L765.280001,342 L765.280001,355.36 C765.280001,356.346672 765.479999,357.039998 765.880001,357.44 C766.280003,357.840002 766.986662,358.04 768.000001,358.04 L771.000001,358.04 Z M773.200001,333.04 C773.200001,332.346663 773.439998,331.760002 773.920001,331.28 C774.400003,330.799998 774.973331,330.56 775.640001,330.56 C776.333337,330.56 776.919998,330.799998 777.400001,331.28 C777.880003,331.760002 778.120001,332.346663 778.120001,333.04 C778.120001,333.733337 777.880003,334.319998 777.400001,334.8 C776.919998,335.280002 776.333337,335.52 775.640001,335.52 C774.946664,335.52 774.36667,335.280002 773.900001,334.8 C773.433332,334.319998 773.200001,333.733337 773.200001,333.04 Z M777.440001,339.04 L777.440001,361 L773.800001,361 L773.800001,339.04 L777.440001,339.04 Z M808.640001,338.68 C810.240009,338.68 811.693327,339.03333 813.000001,339.74 C814.306674,340.44667 815.339997,341.499993 816.100001,342.9 C816.860004,344.300007 817.240001,345.99999 817.240001,348 L817.240001,361 L813.640001,361 L813.640001,348.6 C813.640001,346.386656 813.100006,344.706672 812.020001,343.56 C810.939995,342.413328 809.466677,341.84 807.600001,341.84 C805.733325,341.84 804.260006,342.413328 803.180001,343.56 C802.099995,344.706672 801.560001,346.386656 801.560001,348.6 L801.560001,361 L797.960001,361 L797.960001,348.6 C797.960001,346.386656 797.426673,344.706672 796.360001,343.56 C795.293329,342.413328 793.813343,341.84 791.920001,341.84 C790.053325,341.84 788.580006,342.413328 787.500001,343.56 C786.419995,344.706672 785.880001,346.386656 785.880001,348.6 L785.880001,361 L782.240001,361 L782.240001,339.04 L785.880001,339.04 L785.880001,342.6 C786.600004,341.319994 787.586661,340.34667 788.840001,339.68 C790.09334,339.01333 791.493326,338.68 793.040001,338.68 C794.720009,338.68 796.239994,339.086663 797.600001,339.9 C798.960007,340.713337 799.986664,341.893326 800.680001,343.44 C801.480005,341.946659 802.56666,340.780004 803.940001,339.94 C805.313341,339.099996 806.879992,338.68 808.640001,338.68 Z M841.760001,349.12 C841.760001,349.893337 841.706668,350.61333 841.600001,351.28 L824.120001,351.28 C824.226668,353.466678 824.913328,355.193327 826.180001,356.46 C827.446674,357.726673 829.066658,358.36 831.040001,358.36 C832.533342,358.36 833.793329,358.02667 834.820001,357.36 C835.846673,356.69333 836.599998,355.813339 837.080001,354.72 L841.000001,354.72 C840.306664,356.64001 839.113343,358.22666 837.420001,359.48 C835.726659,360.73334 833.600014,361.36 831.040001,361.36 C828.986657,361.36 827.153342,360.893338 825.540001,359.96 C823.926659,359.026662 822.666672,357.700009 821.760001,355.98 C820.85333,354.259991 820.400001,352.280011 820.400001,350.04 C820.400001,347.773322 820.85333,345.780009 821.760001,344.06 C822.666672,342.339991 823.946659,341.013338 825.600001,340.08 C827.253342,339.146662 829.15999,338.68 831.320001,338.68 C833.373344,338.68 835.18666,339.133329 836.760001,340.04 C838.333342,340.946671 839.559996,342.186659 840.440001,343.76 C841.320005,345.333341 841.760001,347.11999 841.760001,349.12 Z M837.960001,348.64 C837.960001,347.22666 837.653337,345.993339 837.040001,344.94 C836.426664,343.886661 835.593339,343.080003 834.540001,342.52 C833.486662,341.959997 832.320007,341.68 831.040001,341.68 C829.146658,341.68 827.560007,342.299994 826.280001,343.54 C824.999994,344.780006 824.293335,346.479989 824.160001,348.64 L837.960001,348.64 Z M854.720001,331.32 C857.386681,331.32 859.513326,332.053326 861.100001,333.52 C862.686675,334.986674 863.480001,336.986654 863.480001,339.52 C863.480001,342.453348 862.686675,344.553327 861.100001,345.82 C859.513326,347.086673 857.120017,347.733333 853.920001,347.76 L853.920001,353.04 L850.480001,353.04 L850.480001,345.16 L852.080001,345.16 C853.866676,345.186667 855.326662,345.053335 856.460001,344.76 C857.59334,344.466665 858.473331,343.913337 859.100001,343.1 C859.726671,342.286663 860.040001,341.106674 860.040001,339.56 C860.040001,337.933325 859.573339,336.666671 858.640001,335.76 C857.706663,334.853329 856.413342,334.4 854.760001,334.4 C853.106659,334.4 851.806672,334.833329 850.860001,335.7 C849.913329,336.566671 849.440001,337.799992 849.440001,339.4 L846.040001,339.4 C846.040001,337.773325 846.399997,336.353339 847.120001,335.14 C847.840004,333.926661 848.859994,332.98667 850.180001,332.32 C851.500007,331.65333 853.013326,331.32 854.720001,331.32 Z M852.280001,356.64 C852.946671,356.64 853.506665,356.866664 853.960001,357.32 C854.413336,357.773336 854.640001,358.33333 854.640001,359 C854.640001,359.640003 854.413336,360.186664 853.960001,360.64 C853.506665,361.093336 852.946671,361.32 852.280001,361.32 C851.639998,361.32 851.093336,361.093336 850.640001,360.64 C850.186665,360.186664 849.960001,359.640003 849.960001,359 C849.960001,358.33333 850.186665,357.773336 850.640001,357.32 C851.093336,356.866664 851.639998,356.64 852.280001,356.64 Z M649.92,417 L646.28,417 L631.64,395 L631.64,417 L628,417 L628,389.28 L631.64,389.28 L646.28,411.28 L646.28,389.28 L649.92,389.28 L649.92,417 Z M664.36,394.68 C666.44001,394.68 668.319992,395.146662 670,396.08 C671.680008,397.013338 673.006662,398.346658 673.98,400.08 C674.953338,401.813342 675.44,403.799989 675.44,406.04 C675.44,408.253344 674.933338,410.219991 673.92,411.94 C672.906662,413.660009 671.533342,414.993329 669.8,415.94 C668.066658,416.886671 666.146677,417.36 664.04,417.36 C661.986656,417.36 660.140008,416.893338 658.5,415.96 C656.859992,415.026662 655.580005,413.700009 654.66,411.98 C653.739995,410.259991 653.28,408.280011 653.28,406.04 C653.28,403.773322 653.766662,401.780009 654.74,400.06 C655.713338,398.339991 657.039992,397.013338 658.72,396.08 C660.400008,395.146662 662.27999,394.68 664.36,394.68 Z M664.24,397.68 C662.90666,397.68 661.693339,397.999997 660.6,398.64 C659.506661,399.280003 658.633337,400.22666 657.98,401.48 C657.326663,402.73334 657,404.253324 657,406.04 C657,407.800009 657.31333,409.30666 657.94,410.56 C658.56667,411.81334 659.413328,412.759997 660.48,413.4 C661.546672,414.040003 662.733327,414.36 664.04,414.36 C665.37334,414.36 666.619994,414.033337 667.78,413.38 C668.940006,412.726663 669.879996,411.77334 670.6,410.52 C671.320004,409.26666 671.68,407.773342 671.68,406.04 C671.68,404.279991 671.340003,402.766673 670.66,401.5 C669.979997,400.233327 669.073339,399.280003 667.94,398.64 C666.806661,397.999997 665.57334,397.68 664.24,397.68 Z M707.64,395.04 L700.72,417 L696.96,417 L692,399.56 L687.04,417 L683.24,417 L676.28,395.04 L680.04,395.04 L685.12,413.36 L690.28,395.04 L694.04,395.04 L698.92,413.4 L703.96,395.04 L707.64,395.04 Z M730.36,394.68 C732.440011,394.68 734.319992,395.146662 736,396.08 C737.680009,397.013338 739.006662,398.346658 739.98,400.08 C740.953338,401.813342 741.44,403.799989 741.44,406.04 C741.44,408.253344 740.933339,410.219991 739.92,411.94 C738.906662,413.660009 737.533342,414.993329 735.8,415.94 C734.066658,416.886671 732.146677,417.36 730.04,417.36 C727.986657,417.36 726.140008,416.893338 724.5,415.96 C722.859992,415.026662 721.580005,413.700009 720.66,411.98 C719.739996,410.259991 719.28,408.280011 719.28,406.04 C719.28,403.773322 719.766662,401.780009 720.74,400.06 C721.713338,398.339991 723.039992,397.013338 724.72,396.08 C726.400009,395.146662 728.27999,394.68 730.36,394.68 Z M730.24,397.68 C728.90666,397.68 727.693339,397.999997 726.6,398.64 C725.506661,399.280003 724.633337,400.22666 723.98,401.48 C723.326664,402.73334 723,404.253324 723,406.04 C723,407.800009 723.31333,409.30666 723.94,410.56 C724.56667,411.81334 725.413328,412.759997 726.48,413.4 C727.546672,414.040003 728.733327,414.36 730.04,414.36 C731.37334,414.36 732.619994,414.033337 733.78,413.38 C734.940006,412.726663 735.879997,411.77334 736.6,410.52 C737.320004,409.26666 737.68,407.773342 737.68,406.04 C737.68,404.279991 737.340004,402.766673 736.66,401.5 C735.979997,400.233327 735.073339,399.280003 733.94,398.64 C732.806661,397.999997 731.57334,397.68 730.24,397.68 Z M748.44,398.76 C749.746674,396.039986 751.973318,394.68 755.12,394.68 L755.12,398.48 L754.16,398.48 C752.293324,398.48 750.873339,398.966662 749.9,399.94 C748.926662,400.913338 748.44,402.599988 748.44,405 L748.44,417 L744.8,417 L744.8,395.04 L748.44,395.04 L748.44,398.76 Z M784.720001,389.28 L784.720001,392.2 L772.760001,392.2 L772.760001,401.6 L782.200001,401.6 L782.200001,404.48 L772.760001,404.48 L772.760001,417 L769.120001,417 L769.120001,389.28 L784.720001,389.28 Z M806.640001,395.04 L806.640001,417 L803.000001,417 L803.000001,413.48 C802.279997,414.760006 801.29334,415.726663 800.040001,416.38 C798.786661,417.033337 797.386675,417.36 795.840001,417.36 C794.266659,417.36 792.83334,417.00667 791.540001,416.3 C790.246661,415.59333 789.220004,414.546674 788.460001,413.16 C787.699997,411.773326 787.320001,410.08001 787.320001,408.08 L787.320001,395.04 L790.920001,395.04 L790.920001,407.48 C790.920001,409.666678 791.459995,411.339994 792.540001,412.5 C793.620006,413.660006 795.093325,414.24 796.960001,414.24 C798.826677,414.24 800.299995,413.660006 801.380001,412.5 C802.460006,411.339994 803.000001,409.666678 803.000001,407.48 L803.000001,395.04 L806.640001,395.04 Z M821.640001,414.04 L821.640001,417 L817.960001,417 C816.093325,417 814.673339,416.546671 813.700001,415.64 C812.726662,414.733329 812.240001,413.306676 812.240001,411.36 L812.240001,398 L809.400001,398 L809.400001,395.04 L812.240001,395.04 L812.240001,389.6 L815.920001,389.6 L815.920001,395.04 L821.600001,395.04 L821.600001,398 L815.920001,398 L815.920001,411.36 C815.920001,412.346672 816.119999,413.039998 816.520001,413.44 C816.920003,413.840002 817.626662,414.04 818.640001,414.04 L821.640001,414.04 Z M843.560001,395.04 L843.560001,417 L839.920001,417 L839.920001,413.48 C839.199997,414.760006 838.21334,415.726663 836.960001,416.38 C835.706661,417.033337 834.306675,417.36 832.760001,417.36 C831.18666,417.36 829.753341,417.00667 828.460001,416.3 C827.166661,415.59333 826.140005,414.546674 825.380001,413.16 C824.619997,411.773326 824.240001,410.08001 824.240001,408.08 L824.240001,395.04 L827.840001,395.04 L827.840001,407.48 C827.840001,409.666678 828.379995,411.339994 829.460001,412.5 C830.540006,413.660006 832.013325,414.24 833.880001,414.24 C835.746677,414.24 837.219995,413.660006 838.300001,412.5 C839.380006,411.339994 839.920001,409.666678 839.920001,407.48 L839.920001,395.04 L843.560001,395.04 Z M852.000001,398.76 C853.306674,396.039986 855.533318,394.68 858.680001,394.68 L858.680001,398.48 L857.720001,398.48 C855.853325,398.48 854.433339,398.966662 853.460001,399.94 C852.486663,400.913338 852.000001,402.599988 852.000001,405 L852.000001,417 L848.360001,417 L848.360001,395.04 L852.000001,395.04 L852.000001,398.76 Z M881.800001,405.12 C881.800001,405.893337 881.746668,406.61333 881.640001,407.28 L864.160001,407.28 C864.266668,409.466678 864.953328,411.193327 866.220001,412.46 C867.486674,413.726673 869.106658,414.36 871.080001,414.36 C872.573342,414.36 873.833329,414.02667 874.860001,413.36 C875.886673,412.69333 876.639998,411.813339 877.120001,410.72 L881.040001,410.72 C880.346664,412.64001 879.153343,414.22666 877.460001,415.48 C875.766659,416.73334 873.640014,417.36 871.080001,417.36 C869.026657,417.36 867.193342,416.893338 865.580001,415.96 C863.966659,415.026662 862.706672,413.700009 861.800001,411.98 C860.89333,410.259991 860.440001,408.280011 860.440001,406.04 C860.440001,403.773322 860.89333,401.780009 861.800001,400.06 C862.706672,398.339991 863.986659,397.013338 865.640001,396.08 C867.293342,395.146662 869.19999,394.68 871.360001,394.68 C873.413344,394.68 875.22666,395.133329 876.800001,396.04 C878.373342,396.946671 879.599996,398.186659 880.480001,399.76 C881.360005,401.333341 881.800001,403.11999 881.800001,405.12 Z M878.000001,404.64 C878.000001,403.22666 877.693337,401.993339 877.080001,400.94 C876.466664,399.886661 875.633339,399.080003 874.580001,398.52 C873.526662,397.959997 872.360007,397.68 871.080001,397.68 C869.186658,397.68 867.600007,398.299994 866.320001,399.54 C865.039994,400.780006 864.333335,402.479989 864.200001,404.64 L878.000001,404.64 Z" id="Login" fill="#000000"></path>
    </g>
</svg>