<?xml version="1.0" encoding="UTF-8" standalone="no"?>
<svg
   xmlns:dc="http://purl.org/dc/elements/1.1/"
   xmlns:cc="http://creativecommons.org/ns#"
   xmlns:rdf="http://www.w3.org/1999/02/22-rdf-syntax-ns#"
   xmlns:svg="http://www.w3.org/2000/svg"
   xmlns="http://www.w3.org/2000/svg"
   xmlns:sodipodi="http://sodipodi.sourceforge.net/DTD/sodipodi-0.dtd"
   xmlns:inkscape="http://www.inkscape.org/namespaces/inkscape"
   width="87px"
   height="72px"
   viewBox="0 0 87 72"
   version="1.1"
   id="svg2"
   inkscape:version="0.91 r13725"
   sodipodi:docname="sent-message-hook-right.svg">
  <metadata
     id="metadata16">
    <rdf:RDF>
      <cc:Work
         rdf:about="">
        <dc:format>image/svg+xml</dc:format>
        <dc:type
           rdf:resource="http://purl.org/dc/dcmitype/StillImage" />
      </cc:Work>
    </rdf:RDF>
  </metadata>
  <sodipodi:namedview
     pagecolor="#ffffff"
     bordercolor="#666666"
     borderopacity="1"
     objecttolerance="10"
     gridtolerance="10"
     guidetolerance="10"
     inkscape:pageopacity="0"
     inkscape:pageshadow="2"
     inkscape:window-width="664"
     inkscape:window-height="480"
     id="namedview14"
     showgrid="false"
     inkscape:zoom="2.3177389"
     inkscape:cx="43.5"
     inkscape:cy="36"
     inkscape:window-x="145"
     inkscape:window-y="8"
     inkscape:window-maximized="0"
     inkscape:current-layer="svg2" />
  <!-- Generator: Sketch 49.3 (51167) - http://www.bohemiancoding.com/sketch -->
  <title
     id="title4">Sent Message Background</title>
  <desc
     id="desc6">Created with Sketch.</desc>
  <defs
     id="defs8" />
  <path
     style="fill:#047cfe;fill-rule:evenodd;stroke:none;stroke-width:1"
     d="M 59.109375 6.6582031 L 59.109375 58.625 L 9.3066406 58.625 C 16.048457 66.759354 26.218583 71.95026 37.605469 71.994141 C 46.147875 71.954547 53.99951 69.013045 60.236328 64.109375 C 68.037418 68.943165 77.18879 71.801212 87 71.982422 C 79.48788 68.443472 74.275391 60.829259 74.275391 51.982422 C 74.275391 51.982422 74.34375 35.855125 74.34375 35.125 C 74.34375 22.853389 68.339027 12.753126 59.109375 6.6582031 z M 37.605469 71.994141 C 37.547337 71.99441 37.489836 71.998047 37.431641 71.998047 L 37.75 71.998047 C 37.701497 71.998047 37.653928 71.994327 37.605469 71.994141 z "
     id="Sent-Message-Background" />
</svg>
