<?xml version="1.0" encoding="UTF-8"?>
<svg width="54px" height="54px" viewBox="0 0 54 54" version="1.1" xmlns="http://www.w3.org/2000/svg" xmlns:xlink="http://www.w3.org/1999/xlink">
    <!-- Generator: Sketch 49.3 (51167) - http://www.bohemiancoding.com/sketch -->
    <title>chabot_avatar</title>
    <desc>Created with Sketch.</desc>
    <defs></defs>
    <g id="chabot_avatar" stroke="none" stroke-width="1" fill="none" fill-rule="evenodd">
        <g id="chabot" fill="#F15F63">
            <circle id="Oval-9" cx="27" cy="27" r="27"></circle>
        </g>
        <path d="M54,27 C54,12.1135135 41.8864865,0 27,0 C12.1135135,0 0,12.1135135 0,27 C0,41.8864865 12.1135135,54 27,54 C41.8864865,54 54,41.8864865 54,27 Z M8.1,45.3162162 C8.39189189,45.3162162 8.61081081,45.3162162 8.9027027,45.3162162 C12.9162162,45.3162162 16.127027,44.0756757 18.972973,42.3972973 C19.9945946,43.0540541 20.9432432,43.7108108 21.8918919,44.3675676 C23.2054054,45.2432432 24.4459459,46.1918919 25.8324324,46.9945946 C23.7162162,48.672973 21.1621622,50.2783784 18.0243243,51.6648649 C14.3027027,50.3513514 10.872973,48.1621622 8.1,45.3162162 Z M27,0.72972973 C41.5216216,0.72972973 53.2702703,12.5513514 53.2702703,27 C53.2702703,27.5108108 53.2702703,27.9486486 53.1972973,28.3864865 C48.9648649,26.5621622 45.6810811,25.1756757 42.7621622,24.372973 C31.9621622,17.7324324 23.7162162,21.4540541 16.3459459,26.3432432 C11.9675676,24.0810811 6.93243243,22.8405405 0.72972973,24.5918919 C2.04324324,11.2378378 13.2810811,0.72972973 27,0.72972973 Z M50.7162162,34.9540541 C50.4972973,35.1 50.2783784,35.172973 50.1324324,35.3189189 C38.9675676,28.6783784 32.327027,30.1378378 26.8540541,33.4945946 C26.0513514,32.9108108 25.3216216,32.327027 24.5189189,31.7432432 C23.9351351,31.3054054 23.3513514,30.8675676 22.6945946,30.4297297 C31.6702703,26.4162162 35.6837838,25.3945946 41.5945946,27 C44.3675676,28.7513514 47.4324324,31.3783784 50.7162162,34.9540541 Z M29.4810811,35.3189189 C33.8594595,33.0567568 38.8945946,32.472973 47.0675676,36.9243243 C39.8432432,40.3540541 34.5891892,38.6027027 29.4810811,35.3189189 Z M19.9216216,28.4594595 C19.7027027,28.3135135 19.4837838,28.1675676 19.2648649,28.0216216 C23.4243243,25.3945946 27.6567568,23.4243243 32.5459459,23.7891892 C29.1162162,24.4459459 25.2486486,25.9783784 19.9216216,28.4594595 Z M16.7837838,29.9189189 C16.4189189,30.0648649 16.0540541,30.2837838 15.6162162,30.4297297 C15.9081081,30.2108108 16.272973,29.9918919 16.5648649,29.772973 C16.6378378,29.772973 16.7108108,29.8459459 16.7837838,29.9189189 Z M15.1054054,33.8594595 C16.7108108,33.1297297 18.2432432,32.4 19.6297297,31.7432432 C20.6513514,32.472973 21.672973,33.2756757 22.7675676,34.0054054 C23.2783784,34.3702703 23.7891892,34.7351351 24.3,35.1 C23.6432432,35.6108108 22.9864865,36.0486486 22.3297297,36.5594595 C21.2351351,37.3621622 20.1405405,38.1648649 19.0459459,38.8945946 C16.5648649,37.4351351 13.8648649,36.2675676 10.8,35.8297297 C12.2594595,35.172973 13.7189189,34.5162162 15.1054054,33.8594595 Z M24.0081081,39.0405405 C24.9567568,38.3837838 25.8324324,37.6540541 26.7810811,37.0702703 C29.0432432,38.6027027 31.3783784,39.9891892 33.8594595,40.8648649 C32.2540541,41.8135135 30.7945946,43.0540541 29.1891892,44.4405405 C28.8972973,44.6594595 28.6054054,44.9513514 28.2405405,45.2432432 C26.7081081,44.3675676 25.1756757,43.272973 23.5702703,42.1783784 C22.9135135,41.7405405 22.2567568,41.3027027 21.6,40.8648649 C22.4756757,40.1351351 23.2054054,39.5513514 24.0081081,39.0405405 Z M45.972973,44.4405405 C39.7702703,48.1621622 35.2459459,48.1621622 31.1594595,46.5567568 C36.1945946,42.2513514 38.9675676,39.9891892 45.972973,44.4405405 Z M45.4621622,40.7918919 C46.9216216,40.2810811 48.4540541,39.6243243 50.0594595,38.7486486 C50.2054054,38.8216216 50.2783784,38.8945946 50.4243243,38.9675676 C49.7675676,40.2081081 49.1108108,41.3756757 48.3081081,42.4702703 C47.2864865,41.8135135 46.3378378,41.2297297 45.4621622,40.7918919 Z M50.2783784,30.2837838 C51.0810811,30.6486486 51.9567568,31.0135135 52.9054054,31.4513514 C52.8324324,31.8891892 52.7594595,32.327027 52.6135135,32.7648649 C51.8837838,31.8891892 51.0810811,31.0864865 50.2783784,30.2837838 Z M13.6459459,28.2405405 C13.2810811,28.4594595 12.9162162,28.7513514 12.5513514,28.9702703 C8.97567568,31.5243243 5.54594595,33.9324324 1.97027027,35.2459459 C1.16756757,32.8378378 0.72972973,30.2837838 0.656756757,27.6567568 C5.76486486,25.9783784 9.92432432,26.5621622 13.6459459,28.2405405 Z M16.0540541,40.7189189 C13.1351351,42.1783784 9.77837838,42.9081081 5.47297297,42.0324324 C4.88918919,41.1567568 4.30540541,40.2081081 3.79459459,39.2594595 C8.68378378,37.9459459 12.4783784,38.8945946 16.0540541,40.7189189 Z M28.6054054,48.6 C30.9405405,49.7675676 33.4945946,50.4972973 36.3405405,50.4972973 C37.2891892,50.4972973 38.2378378,50.4243243 39.2594595,50.2054054 C35.6108108,52.1756757 31.4513514,53.2702703 27,53.2702703 C25.3945946,53.2702703 23.8621622,53.1243243 22.3297297,52.8324324 C24.8108108,51.5189189 26.8540541,50.0594595 28.6054054,48.6 Z" id="Shape" fill="#F79868" fill-rule="nonzero"></path>
    </g>
</svg>