<?xml version="1.0" encoding="UTF-8"?>
<svg width="140px" height="140px" viewBox="0 0 140 140" version="1.1" xmlns="http://www.w3.org/2000/svg" xmlns:xlink="http://www.w3.org/1999/xlink">
    <!-- Generator: Sketch 49.3 (51167) - http://www.bohemiancoding.com/sketch -->
    <title>workshop1</title>
    <desc>Created with Sketch.</desc>
    <defs></defs>
    <g id="Page-1" stroke="none" stroke-width="1" fill="none" fill-rule="evenodd">
        <g id="Desktop-HD-Copy-7" transform="translate(-320.000000, -15926.000000)">
            <g id="Group-28" transform="translate(305.000000, 15911.000000)">
                <g id="Group-23" transform="translate(15.000000, 15.000000)"></g>
                <path d="M33.3780381,54.8533802 L97.3780381,54.8533802 C99.0348923,54.8533802 100.378038,56.1965259 100.378038,57.8533802 L100.378038,97.8533802 C100.378038,99.5102344 99.0348923,100.85338 97.3780381,100.85338 L33.3780381,100.85338 C31.7211838,100.85338 30.3780381,99.5102344 30.3780381,97.8533802 L30.3780381,57.8533802 C30.3780381,56.1965259 31.7211838,54.8533802 33.3780381,54.8533802 Z M105.548906,53.9527127 L125.548906,38.5680973 C126.862168,37.5578955 128.745708,37.8035746 129.75591,39.116837 C130.159315,39.6412628 130.378038,40.2843368 130.378038,40.9459693 L130.378038,114.760791 C130.378038,116.417645 129.034892,117.760791 127.378038,117.760791 C126.716406,117.760791 126.073332,117.542068 125.548906,117.138663 L105.548906,101.754048 C104.81065,101.186159 104.378038,100.307583 104.378038,99.3761757 L104.378038,56.3305847 C104.378038,55.3991776 104.81065,54.5206016 105.548906,53.9527127 Z" id="Combined-Shape" fill="#FFFFFF" transform="translate(80.378038, 77.853380) rotate(-330.000000) translate(-80.378038, -77.853380) "></path>
            </g>
        </g>
    </g>
</svg>