<?xml version="1.0" encoding="UTF-8"?>
<svg width="140px" height="140px" viewBox="0 0 140 140" version="1.1" xmlns="http://www.w3.org/2000/svg" xmlns:xlink="http://www.w3.org/1999/xlink">
    <!-- Generator: Sketch 49.3 (51167) - http://www.bohemiancoding.com/sketch -->
    <title>workshop4</title>
    <desc>Created with Sketch.</desc>
    <defs></defs>
    <g id="Page-1" stroke="none" stroke-width="1" fill="none" fill-rule="evenodd">
        <g id="Desktop-HD-Copy-7" transform="translate(-980.000000, -15926.000000)">
            <g id="Group-28" transform="translate(305.000000, 15911.000000)">
                <g id="Group-23" transform="translate(15.000000, 15.000000)"></g>
                <path d="M779,44 L705,44 L705,118 L692,118 C690.895431,118 690,117.104569 690,116 L690,30 C690,28.8954305 690.895431,28 692,28 L777,28 C778.104569,28 779,28.8954305 779,30 L779,44 Z M713,48 L796,48 C797.656854,48 799,49.3431458 799,51 L799,135 C799,136.656854 797.656854,138 796,138 L713,138 C711.343146,138 710,136.656854 710,135 L710,51 C710,49.3431458 711.343146,48 713,48 Z M767.038282,64 C761.965242,64 756.892874,65.7596725 751.948341,69.2783392 C745.119248,74.1381287 738.805533,74.1381287 731.977113,69.2783392 L725,64.3127251 L725,122 L784,122 L784,70.6113216 L782.12755,69.2783392 C777.18369,65.7596725 772.11065,64 767.038282,64 Z M757.662377,79.9955679 C762.916511,76.3689894 767.811436,76.0356006 773,78.9937291 L773,110 L738,110 L738,83.0947455 C740.280687,83.9204123 742.57734,84.3335245 744.875132,84.3335245 C749.173088,84.332967 753.472754,82.8873531 757.662377,79.9955679 Z" id="Combined-Shape" fill="#FFFFFF"></path>
            </g>
        </g>
    </g>
</svg>