<?xml version="1.0" encoding="UTF-8"?>
<svg width="140px" height="140px" viewBox="0 0 140 140" version="1.1" xmlns="http://www.w3.org/2000/svg" xmlns:xlink="http://www.w3.org/1999/xlink">
    <!-- Generator: Sketch 49.3 (51167) - http://www.bohemiancoding.com/sketch -->
    <title>workshop7</title>
    <desc>Created with Sketch.</desc>
    <defs></defs>
    <g id="Page-1" stroke="none" stroke-width="1" fill="none" fill-rule="evenodd">
        <g id="Desktop-HD-Copy-7" transform="translate(-760.000000, -16212.000000)">
            <g id="Group-28" transform="translate(305.000000, 15911.000000)">
                <g id="Group-23" transform="translate(15.000000, 15.000000)"></g>
                <path d="M508.922278,412.063415 C502.793943,413.723947 493.944636,416.36373 482.374356,419.982763 L487.475906,394.828674 C482.13056,387.088832 479,377.702036 479,367.584057 L479,367 C479,340.490332 500.490332,319 527,319 C553.509668,319 575,340.490332 575,367 L575,367.584057 C575,394.093725 553.509668,415.584057 527,415.584057 C520.604917,415.584057 514.501933,414.333433 508.922278,412.063415 Z M504,375.75558 C508.418278,375.75558 512,372.189217 512,367.789885 C512,363.390553 508.418278,359.824189 504,359.824189 C499.581722,359.824189 496,363.390553 496,367.789885 C496,372.189217 499.581722,375.75558 504,375.75558 Z M527,375.75558 C531.418278,375.75558 535,372.189217 535,367.789885 C535,363.390553 531.418278,359.824189 527,359.824189 C522.581722,359.824189 519,363.390553 519,367.789885 C519,372.189217 522.581722,375.75558 527,375.75558 Z M550,375.75558 C554.418278,375.75558 558,372.189217 558,367.789885 C558,363.390553 554.418278,359.824189 550,359.824189 C545.581722,359.824189 542,363.390553 542,367.789885 C542,372.189217 545.581722,375.75558 550,375.75558 Z" id="Combined-Shape" fill="#FFFFFF"></path>
            </g>
        </g>
    </g>
</svg>