<?xml version="1.0" encoding="UTF-8"?>
<svg width="140px" height="140px" viewBox="0 0 140 140" version="1.1" xmlns="http://www.w3.org/2000/svg" xmlns:xlink="http://www.w3.org/1999/xlink">
    <!-- Generator: Sketch 49.3 (51167) - http://www.bohemiancoding.com/sketch -->
    <title>workshop5</title>
    <desc>Created with Sketch.</desc>
    <defs>
        <rect id="path-1" x="58" y="21" width="37" height="6" rx="3"></rect>
        <rect id="path-2" x="58" y="31" width="37" height="6" rx="3"></rect>
        <rect id="path-3" x="58" y="41" width="37" height="6" rx="3"></rect>
        <rect id="path-4" x="58" y="50" width="37" height="6" rx="3"></rect>
        <rect id="path-5" x="58" y="60" width="37" height="6" rx="3"></rect>
    </defs>
    <g id="Page-1" stroke="none" stroke-width="1" fill="none" fill-rule="evenodd">
        <g id="Desktop-HD-Copy-7" transform="translate(-320.000000, -16212.000000)">
            <g id="Group-28" transform="translate(305.000000, 15911.000000)">
                <g id="Group-23" transform="translate(15.000000, 15.000000)"></g>
                <g id="Group-22" transform="translate(32.000000, 318.000000)">
                    <rect id="Rectangle-17" stroke="#FFFFFF" stroke-width="5" x="2.5" y="2.5" width="101" height="101" rx="3"></rect>
                    <rect id="Rectangle-17" stroke="#FFFFFF" stroke-width="5" x="2.5" y="2.5" width="101" height="11" rx="3"></rect>
                    <rect id="Rectangle-17-Copy" stroke="#FFFFFF" stroke-width="5" x="13.5" y="23.5" width="37" height="40" rx="3"></rect>
                    <path d="M13.5,23.5 L49.4877903,63.2759787" id="Line" stroke="#FFFFFF" stroke-width="6"></path>
                    <path d="M49.7379334,23.7292139 L13.2498569,63.0467648" id="Line" stroke="#FFFFFF" stroke-width="6"></path>
                    <g id="Rectangle-17-Copy-4">
                        <use fill="#979797" fill-rule="evenodd" xlink:href="#path-1"></use>
                        <rect stroke="#FFFFFF" stroke-width="5" x="60.5" y="23.5" width="32" height="1" rx="0.5"></rect>
                    </g>
                    <g id="Rectangle-17-Copy-5">
                        <use fill="#979797" fill-rule="evenodd" xlink:href="#path-2"></use>
                        <rect stroke="#FFFFFF" stroke-width="5" x="60.5" y="33.5" width="32" height="1" rx="0.5"></rect>
                    </g>
                    <g id="Rectangle-17-Copy-6">
                        <use fill="#979797" fill-rule="evenodd" xlink:href="#path-3"></use>
                        <rect stroke="#FFFFFF" stroke-width="5" x="60.5" y="43.5" width="32" height="1" rx="0.5"></rect>
                    </g>
                    <g id="Rectangle-17-Copy-7">
                        <use fill="#979797" fill-rule="evenodd" xlink:href="#path-4"></use>
                        <rect stroke="#FFFFFF" stroke-width="5" x="60.5" y="52.5" width="32" height="1" rx="0.5"></rect>
                    </g>
                    <g id="Rectangle-17-Copy-8">
                        <use fill="#979797" fill-rule="evenodd" xlink:href="#path-5"></use>
                        <rect stroke="#FFFFFF" stroke-width="5" x="60.5" y="62.5" width="32" height="1" rx="0.5"></rect>
                    </g>
                    <rect id="Rectangle-17-Copy-2" stroke="#FFFFFF" stroke-width="5" x="13.5" y="72.5" width="21" height="21" rx="3"></rect>
                    <rect id="Rectangle-17-Copy-3" stroke="#FFFFFF" stroke-width="5" x="44.5" y="72.5" width="48" height="21" rx="3"></rect>
                </g>
            </g>
        </g>
    </g>
</svg>